<svg xmlns="http://www.w3.org/2000/svg" xmlns:xlink="http://www.w3.org/1999/xlink" width="500" zoomAndPan="magnify" viewBox="0 0 375 374.999991" height="500" preserveAspectRatio="xMidYMid meet" version="1.0"><defs><clipPath id="7c6e3a6759"><path d="M 0 113.667969 L 375 113.667969 L 375 261.417969 L 0 261.417969 Z M 0 113.667969 " clip-rule="nonzero"/></clipPath></defs><rect x="-37.5" width="450" fill="#ffffff" y="-37.499999" height="449.999989" fill-opacity="1"/><rect x="-37.5" width="450" fill="#faf8f8" y="-37.499999" height="449.999989" fill-opacity="1"/><g clip-path="url(#7c6e3a6759)"><path fill="#027f5b" d="M 289.804688 250.925781 C 299.570312 244.050781 309.335938 237.175781 319.097656 230.296875 C 312.023438 241.042969 302.113281 247.710938 289.804688 250.925781 M 275.3125 240.082031 C 249.082031 239.320312 227.832031 230.023438 214.679688 205.816406 C 210.261719 197.683594 204.722656 190.117188 199.277344 182.597656 C 196.699219 179.039062 196.4375 176.320312 199.40625 173.070312 C 206.585938 165.21875 212.773438 156.191406 220.917969 149.546875 C 251.683594 124.457031 284.191406 127.328125 312.144531 155.828125 C 325.285156 169.226562 331.183594 184.335938 326.265625 202.535156 C 321.472656 220.261719 301.222656 242.710938 275.3125 240.082031 M 204.816406 213.4375 C 226.875 225.757812 242.707031 249.828125 271.851562 248.78125 C 241.945312 251.265625 221.65625 235.605469 204.816406 213.4375 M 267.496094 253.679688 C 260.835938 256.023438 252.769531 255.535156 244.339844 252.984375 C 243.285156 252.664062 242.226562 252.3125 241.164062 251.929688 C 231.601562 248.488281 221.742188 242.554688 213.082031 235.214844 C 212.121094 234.398438 211.171875 233.566406 210.242188 232.71875 C 208.378906 231.019531 206.585938 229.257812 204.875 227.445312 C 204.019531 226.539062 203.1875 225.617188 202.375 224.6875 C 200.753906 222.824219 199.21875 220.917969 197.796875 218.976562 C 192.101562 211.210938 188.140625 202.910156 186.945312 194.828125 C 187.597656 194.4375 188.242188 194.046875 188.894531 193.65625 C 192.714844 200.066406 196.410156 206.550781 200.382812 212.859375 C 207.195312 223.683594 215.253906 232.480469 224.632812 239.109375 C 236.6875 247.632812 250.921875 252.585938 267.496094 253.679688 M 185.820312 186.796875 C 174.734375 171.136719 164.585938 156.800781 153.445312 141.058594 C 173.921875 151.632812 188.65625 171.742188 185.820312 186.796875 M 178.074219 199.929688 C 164.910156 225.566406 144.378906 245.085938 108.695312 245.089844 C 74.539062 244.855469 49.316406 225.167969 46.136719 195.441406 C 43.773438 173.328125 51.957031 154.851562 69.1875 141.160156 C 79.707031 132.800781 92.695312 134.605469 104.949219 136.820312 C 127.621094 140.914062 146.957031 151.132812 161.164062 169.757812 C 166.929688 177.3125 172.449219 185.074219 177.65625 193.019531 C 178.777344 194.730469 179 198.117188 178.074219 199.929688 M 111.414062 256.988281 C 111.269531 256.542969 111.132812 256.097656 110.992188 255.648438 C 121.128906 252.441406 131.269531 249.234375 141.40625 246.027344 C 141.695312 246.539062 141.988281 247.046875 142.277344 247.558594 C 131.988281 250.703125 121.703125 253.847656 111.414062 256.988281 M 89.136719 249.339844 C 89.175781 248.621094 89.21875 247.90625 89.261719 247.191406 C 99.390625 247.734375 109.523438 248.277344 119.65625 248.820312 C 119.613281 249.582031 119.570312 250.339844 119.527344 251.097656 C 109.398438 250.511719 99.265625 249.925781 89.136719 249.339844 M 35.8125 185.726562 C 38.171875 206.851562 44.226562 224.007812 59.488281 239.527344 C 42.289062 227.613281 31.9375 204.273438 35.8125 185.726562 M 96.835938 129.242188 C 107.421875 131.90625 118.011719 134.566406 128.601562 137.230469 C 128.433594 137.917969 128.265625 138.601562 128.101562 139.289062 C 117.597656 136.699219 107.09375 134.113281 96.589844 131.523438 Z M 152.402344 147.144531 C 140.582031 141.039062 130.289062 135.71875 118.191406 129.464844 C 132.207031 131.96875 143.632812 134.964844 152.402344 147.144531 M 159.292969 138.953125 C 138.039062 131.609375 120.9375 118.019531 98.375 122.53125 C 113.1875 114.65625 142.914062 122.386719 159.292969 138.953125 M 194.539062 181.652344 C 194.539062 181.648438 194.539062 181.648438 194.542969 181.644531 C 195.015625 181.878906 195.683594 182.003906 195.929688 182.390625 C 203.007812 193.496094 210.039062 204.628906 217.171875 215.90625 C 216.183594 215.34375 215.214844 214.761719 214.261719 214.15625 C 199.992188 205.117188 190.027344 191.691406 194.539062 181.652344 M 340.113281 239.535156 C 331.175781 240.683594 322.308594 242.410156 311.5625 244.175781 C 323.875 233.925781 330.683594 222.15625 334.375 208.503906 C 344.96875 169.292969 324.324219 132.21875 285.773438 119.613281 C 269.699219 114.355469 254.546875 114.4375 240.269531 123.351562 C 224.148438 133.417969 209.8125 145.6875 199.449219 161.972656 C 197.40625 165.183594 195.640625 168.566406 194.207031 171.066406 C 182.65625 158.472656 172.515625 145.054688 160.042969 134.347656 C 138.058594 115.480469 112.691406 110.71875 85.007812 121.597656 C 57.625 132.355469 29.070312 138.4375 -0.210938 135.003906 C -29.820312 131.53125 -59.207031 125.84375 -88.511719 120.191406 C -129.480469 112.285156 -170.195312 110.292969 -210.78125 122.035156 C -213.34375 122.777344 -215.773438 123.972656 -218.265625 124.960938 C -218.007812 125.617188 -217.75 126.277344 -217.492188 126.9375 C -216.207031 126.734375 -214.875 126.679688 -213.640625 126.308594 C -174.351562 114.476562 -134.726562 114.921875 -94.792969 122.605469 C -46.023438 131.988281 2.289062 146.980469 55.101562 134.117188 C 36.707031 150.707031 34.945312 171.464844 32.890625 191.394531 C 30.976562 209.9375 38.363281 226.082031 52.199219 239.066406 C 92.050781 276.46875 152.140625 265.144531 175.183594 215.835938 C 177.15625 211.613281 179.496094 207.566406 181.914062 202.972656 C 185.597656 208.964844 188.464844 214.15625 191.824219 219.003906 C 217.261719 255.71875 254.769531 268.714844 293.476562 254.289062 C 322.210938 243.578125 351.878906 239 382.339844 242.605469 L 443.820312 240.785156 C 408.433594 240.292969 373.953125 235.179688 340.113281 239.535156 " fill-opacity="1" fill-rule="nonzero"/></g></svg>