<svg xmlns="http://www.w3.org/2000/svg" xmlns:xlink="http://www.w3.org/1999/xlink" width="1024" zoomAndPan="magnify" viewBox="0 0 768 767.999994" height="1024" preserveAspectRatio="xMidYMid meet" version="1.0"><defs><clipPath id="d2d26cf5d0"><path d="M 38.246094 31.664062 L 729.746094 31.664062 L 729.746094 723.164062 L 38.246094 723.164062 Z M 38.246094 31.664062 " clip-rule="nonzero"/></clipPath></defs><g clip-path="url(#d2d26cf5d0)"><path fill="#027f5b" d="M 383.996094 695.601562 C 208.546875 695.601562 65.808594 552.859375 65.808594 377.414062 C 65.808594 201.96875 208.546875 59.226562 383.996094 59.226562 C 559.441406 59.226562 702.183594 201.96875 702.183594 377.414062 C 702.183594 552.859375 559.441406 695.601562 383.996094 695.601562 Z M 383.996094 31.664062 C 193.347656 31.664062 38.246094 186.765625 38.246094 377.414062 C 38.246094 568.0625 193.347656 723.164062 383.996094 723.164062 C 574.644531 723.164062 729.746094 568.0625 729.746094 377.414062 C 729.746094 186.765625 574.644531 31.664062 383.996094 31.664062 " fill-opacity="1" fill-rule="nonzero"/></g><path fill="#027f5b" d="M 383.988281 367.652344 C 424.28125 367.652344 456.949219 332.671875 456.949219 289.523438 C 456.949219 246.371094 424.28125 211.394531 383.988281 211.394531 C 343.699219 211.394531 311.035156 246.371094 311.035156 289.523438 C 311.035156 332.671875 343.699219 367.652344 383.988281 367.652344 " fill-opacity="1" fill-rule="nonzero"/><path fill="#027f5b" d="M 428.132812 398.378906 L 339.851562 398.378906 C 291.035156 398.378906 251.46875 437.953125 251.46875 486.761719 L 251.46875 515.941406 C 251.46875 540.371094 271.273438 560.175781 295.703125 560.175781 L 472.28125 560.175781 C 496.714844 560.175781 516.519531 540.371094 516.519531 515.941406 L 516.519531 486.761719 C 516.519531 437.953125 476.941406 398.378906 428.132812 398.378906 " fill-opacity="1" fill-rule="nonzero"/><path fill="#027f5b" d="M 522.582031 372.011719 C 553.1875 372.011719 578 345.4375 578 312.660156 C 578 279.890625 553.1875 253.316406 522.582031 253.316406 C 491.976562 253.316406 467.167969 279.890625 467.167969 312.660156 C 467.167969 345.4375 491.976562 372.011719 522.582031 372.011719 " fill-opacity="1" fill-rule="nonzero"/><path fill="#027f5b" d="M 245.402344 372.011719 C 276.007812 372.011719 300.820312 345.4375 300.820312 312.660156 C 300.820312 279.890625 276.007812 253.316406 245.402344 253.316406 C 214.800781 253.316406 189.992188 279.890625 189.992188 312.660156 C 189.992188 345.4375 214.800781 372.011719 245.402344 372.011719 " fill-opacity="1" fill-rule="nonzero"/><path fill="#027f5b" d="M 293.328125 396.9375 C 288.6875 395.921875 283.878906 395.355469 278.9375 395.355469 L 211.875 395.355469 C 174.792969 395.355469 144.742188 425.410156 144.742188 462.484375 L 144.742188 484.652344 C 144.742188 503.207031 159.78125 518.253906 178.339844 518.253906 L 236.710938 518.253906 L 236.710938 487.855469 C 236.710938 447.953125 259.796875 413.453125 293.328125 396.9375 " fill-opacity="1" fill-rule="nonzero"/><path fill="#027f5b" d="M 556.113281 395.355469 L 489.054688 395.355469 C 484.105469 395.355469 479.296875 395.921875 474.65625 396.9375 C 508.191406 413.453125 531.277344 447.953125 531.277344 487.855469 L 531.277344 518.253906 L 589.644531 518.253906 C 608.203125 518.253906 623.25 503.207031 623.25 484.652344 L 623.25 462.484375 C 623.25 425.410156 593.191406 395.355469 556.113281 395.355469 " fill-opacity="1" fill-rule="nonzero"/></svg>