<svg xmlns="http://www.w3.org/2000/svg" xmlns:xlink="http://www.w3.org/1999/xlink" width="1024" zoomAndPan="magnify" viewBox="0 0 768 767.999994" height="1024" preserveAspectRatio="xMidYMid meet" version="1.0"><defs><clipPath id="aa7f60f26b"><path d="M 36.867188 31.664062 L 731 31.664062 L 731 726 L 36.867188 726 Z M 36.867188 31.664062 " clip-rule="nonzero"/></clipPath></defs><g clip-path="url(#aa7f60f26b)"><path fill="#027f5b" d="M 383.703125 725.546875 C 192.351562 725.546875 36.671875 569.867188 36.671875 378.503906 C 36.671875 187.148438 192.351562 31.46875 383.703125 31.46875 C 575.066406 31.46875 730.746094 187.148438 730.746094 378.503906 C 730.746094 569.867188 575.066406 725.546875 383.703125 725.546875 Z M 383.703125 65.699219 C 211.222656 65.699219 70.902344 206.027344 70.902344 378.503906 C 70.902344 550.992188 211.222656 691.320312 383.703125 691.320312 C 556.1875 691.320312 696.515625 550.992188 696.515625 378.503906 C 696.515625 206.027344 556.1875 65.699219 383.703125 65.699219 Z M 383.703125 65.699219 " fill-opacity="1" fill-rule="nonzero"/></g><path fill="#027f5b" d="M 384.070312 536.265625 C 384.070312 536.265625 497.402344 444.160156 534.28125 403.179688 C 567.894531 365.8125 569.816406 310.023438 534.28125 274.480469 C 498.742188 238.949219 441.136719 238.949219 405.597656 274.480469 L 384.070312 296 L 383.710938 295.652344 L 383.34375 296.011719 L 361.828125 274.492188 C 326.292969 238.957031 268.6875 238.957031 233.148438 274.492188 C 197.605469 310.027344 199.53125 365.824219 233.148438 403.191406 C 270.023438 444.171875 383.34375 536.277344 383.34375 536.277344 " fill-opacity="1" fill-rule="nonzero"/></svg>