<svg xmlns="http://www.w3.org/2000/svg" xmlns:xlink="http://www.w3.org/1999/xlink" width="1024" zoomAndPan="magnify" viewBox="0 0 768 767.999994" height="1024" preserveAspectRatio="xMidYMid meet" version="1.0"><defs><clipPath id="d066840bde"><path d="M 47 31.664062 L 721 31.664062 L 721 723 L 47 723 Z M 47 31.664062 " clip-rule="nonzero"/></clipPath></defs><g clip-path="url(#d066840bde)"><path fill="#027f5b" d="M 719.539062 515.804688 L 660.066406 388.539062 L 660.066406 181.699219 C 660.066406 180.078125 659.757812 178.515625 659.136719 177.015625 C 658.519531 175.515625 657.632812 174.195312 656.488281 173.046875 L 548.558594 65.085938 C 547.410156 63.941406 546.085938 63.054688 544.589844 62.433594 C 543.089844 61.8125 541.527344 61.5 539.90625 61.5 L 472.886719 61.5 L 456.285156 51.480469 C 454.898438 50.640625 453.398438 50.101562 451.796875 49.855469 C 450.191406 49.609375 448.601562 49.683594 447.023438 50.070312 L 431.332031 53.929688 L 372.023438 32.40625 C 370.496094 31.851562 368.921875 31.613281 367.300781 31.683594 C 365.679688 31.757812 364.132812 32.136719 362.664062 32.824219 L 301.214844 61.53125 L 195.335938 61.53125 C 194.53125 61.53125 193.738281 61.609375 192.949219 61.765625 C 192.160156 61.921875 191.394531 62.152344 190.652344 62.460938 C 189.910156 62.769531 189.203125 63.144531 188.535156 63.59375 C 187.867188 64.039062 187.25 64.546875 186.679688 65.113281 C 186.113281 65.683594 185.605469 66.300781 185.160156 66.96875 C 184.710938 67.636719 184.335938 68.34375 184.027344 69.085938 C 183.71875 69.828125 183.488281 70.59375 183.332031 71.382812 C 183.175781 72.171875 183.097656 72.964844 183.097656 73.769531 L 183.097656 114.992188 L 116.605469 131.363281 C 115.824219 131.554688 115.070312 131.820312 114.34375 132.160156 C 113.613281 132.5 112.925781 132.910156 112.277344 133.382812 C 111.632812 133.859375 111.035156 134.394531 110.496094 134.988281 C 109.953125 135.582031 109.472656 136.21875 109.058594 136.90625 C 108.640625 137.59375 108.296875 138.316406 108.023438 139.070312 C 107.75 139.828125 107.550781 140.601562 107.429688 141.398438 C 107.308594 142.191406 107.265625 142.988281 107.304688 143.792969 C 107.339844 144.59375 107.453125 145.386719 107.648438 146.167969 L 108.933594 151.367188 L 54.363281 176.886719 C 53.632812 177.226562 52.945312 177.632812 52.296875 178.109375 C 51.648438 178.585938 51.054688 179.121094 50.511719 179.714844 C 49.96875 180.304688 49.488281 180.945312 49.074219 181.632812 C 48.65625 182.320312 48.3125 183.042969 48.035156 183.800781 C 47.761719 184.554688 47.5625 185.332031 47.441406 186.125 C 47.320312 186.917969 47.277344 187.71875 47.316406 188.523438 C 47.351562 189.324219 47.464844 190.117188 47.65625 190.898438 C 47.851562 191.675781 48.117188 192.433594 48.457031 193.160156 L 183.101562 481.300781 L 183.101562 657.386719 C 183.101562 658.1875 183.179688 658.984375 183.339844 659.773438 C 183.496094 660.558594 183.726562 661.324219 184.035156 662.066406 C 184.339844 662.808594 184.71875 663.515625 185.164062 664.183594 C 185.609375 664.851562 186.117188 665.46875 186.6875 666.035156 C 187.253906 666.605469 187.871094 667.109375 188.539062 667.558594 C 189.207031 668.003906 189.914062 668.378906 190.65625 668.6875 C 191.398438 668.996094 192.160156 669.226562 192.949219 669.382812 C 193.738281 669.539062 194.53125 669.617188 195.335938 669.617188 L 236.375 669.617188 L 245.285156 705.894531 C 245.476562 706.675781 245.742188 707.429688 246.082031 708.15625 C 246.421875 708.886719 246.832031 709.574219 247.308594 710.222656 C 247.78125 710.867188 248.316406 711.464844 248.910156 712.003906 C 249.503906 712.546875 250.144531 713.027344 250.832031 713.441406 C 251.519531 713.859375 252.238281 714.203125 252.996094 714.476562 C 253.75 714.75 254.523438 714.949219 255.320312 715.070312 C 256.113281 715.191406 256.914062 715.234375 257.714844 715.195312 C 258.519531 715.160156 259.308594 715.046875 260.089844 714.851562 L 288.921875 707.765625 L 292.472656 715.363281 C 292.8125 716.09375 293.21875 716.785156 293.691406 717.433594 C 294.167969 718.082031 294.699219 718.679688 295.292969 719.226562 C 295.882812 719.769531 296.523438 720.25 297.210938 720.667969 C 297.898438 721.085938 298.617188 721.433594 299.375 721.710938 C 300.128906 721.984375 300.90625 722.183594 301.699219 722.308594 C 302.492188 722.429688 303.292969 722.476562 304.097656 722.441406 C 304.898438 722.40625 305.691406 722.292969 306.472656 722.101562 C 307.253906 721.914062 308.011719 721.648438 308.738281 721.308594 L 391.800781 682.492188 L 443.964844 669.65625 L 647.835938 669.65625 C 648.636719 669.65625 649.433594 669.578125 650.222656 669.421875 C 651.007812 669.265625 651.773438 669.03125 652.515625 668.726562 C 653.257812 668.417969 653.960938 668.039062 654.628906 667.59375 C 655.296875 667.148438 655.917969 666.640625 656.484375 666.074219 C 657.050781 665.503906 657.558594 664.886719 658.003906 664.21875 C 658.453125 663.550781 658.828125 662.847656 659.136719 662.105469 C 659.445312 661.363281 659.675781 660.597656 659.832031 659.808594 C 659.988281 659.023438 660.066406 658.226562 660.066406 657.421875 L 660.066406 616.46875 L 694.078125 608.097656 C 694.859375 607.90625 695.613281 607.640625 696.339844 607.300781 C 697.070312 606.960938 697.757812 606.550781 698.402344 606.078125 C 699.050781 605.601562 699.644531 605.066406 700.1875 604.472656 C 700.730469 603.878906 701.210938 603.238281 701.625 602.554688 C 702.042969 601.867188 702.386719 601.144531 702.660156 600.386719 C 702.933594 599.632812 703.132812 598.859375 703.253906 598.0625 C 703.375 597.269531 703.414062 596.472656 703.378906 595.667969 C 703.34375 594.867188 703.226562 594.074219 703.035156 593.292969 L 690.617188 542.789062 L 713.640625 532.03125 C 714.371094 531.695312 715.058594 531.285156 715.710938 530.8125 C 716.359375 530.335938 716.957031 529.804688 717.5 529.210938 C 718.042969 528.621094 718.523438 527.980469 718.941406 527.292969 C 719.359375 526.605469 719.707031 525.886719 719.984375 525.128906 C 720.257812 524.375 720.460938 523.601562 720.582031 522.804688 C 720.707031 522.011719 720.75 521.210938 720.714844 520.410156 C 720.679688 519.605469 720.570312 518.8125 720.378906 518.03125 C 720.1875 517.25 719.921875 516.496094 719.582031 515.765625 Z M 552.136719 103.308594 L 618.289062 169.457031 L 552.136719 169.457031 Z M 368.433594 57.132812 L 380.539062 61.53125 L 359 61.53125 Z M 183.101562 140.195312 L 183.101562 350.609375 L 134.296875 152.203125 Z M 114.859375 175.632812 L 167.742188 390.605469 L 75.804688 193.878906 Z M 261.582031 669.617188 L 341.523438 669.617188 L 266.144531 688.1875 Z M 207.585938 645.109375 L 207.585938 86.003906 L 527.664062 86.003906 L 527.664062 181.699219 C 527.664062 182.503906 527.742188 183.296875 527.898438 184.085938 C 528.058594 184.875 528.289062 185.640625 528.597656 186.382812 C 528.902344 187.125 529.28125 187.828125 529.726562 188.5 C 530.175781 189.167969 530.683594 189.785156 531.25 190.351562 C 531.820312 190.921875 532.4375 191.425781 533.105469 191.875 C 533.773438 192.320312 534.480469 192.695312 535.222656 193.003906 C 535.964844 193.3125 536.730469 193.542969 537.519531 193.699219 C 538.304688 193.855469 539.101562 193.933594 539.90625 193.933594 L 635.59375 193.933594 L 635.59375 645.175781 Z M 660.066406 591.222656 L 660.066406 521.136719 L 676.347656 587.242188 Z M 684.660156 518.550781 L 674.46875 477.164062 L 692.183594 515.046875 Z M 244.210938 191.101562 C 244.210938 190.300781 244.289062 189.503906 244.445312 188.714844 C 244.601562 187.925781 244.832031 187.160156 245.140625 186.417969 C 245.449219 185.675781 245.824219 184.972656 246.273438 184.304688 C 246.71875 183.636719 247.226562 183.019531 247.792969 182.449219 C 248.363281 181.882812 248.980469 181.375 249.648438 180.929688 C 250.316406 180.484375 251.023438 180.105469 251.765625 179.796875 C 252.507812 179.492188 253.273438 179.257812 254.0625 179.101562 C 254.851562 178.945312 255.644531 178.867188 256.449219 178.871094 L 360.382812 178.871094 C 361.171875 178.890625 361.953125 178.984375 362.726562 179.15625 C 363.5 179.328125 364.25 179.570312 364.972656 179.886719 C 365.699219 180.203125 366.386719 180.585938 367.039062 181.035156 C 367.6875 181.484375 368.289062 181.992188 368.84375 182.558594 C 369.394531 183.125 369.886719 183.738281 370.320312 184.398438 C 370.753906 185.0625 371.121094 185.757812 371.417969 186.492188 C 371.71875 187.222656 371.941406 187.980469 372.09375 188.753906 C 372.246094 189.53125 372.320312 190.316406 372.320312 191.105469 C 372.320312 191.898438 372.246094 192.679688 372.09375 193.457031 C 371.941406 194.234375 371.71875 194.988281 371.417969 195.722656 C 371.121094 196.453125 370.753906 197.152344 370.320312 197.8125 C 369.886719 198.472656 369.394531 199.089844 368.84375 199.65625 C 368.289062 200.222656 367.6875 200.730469 367.039062 201.179688 C 366.386719 201.628906 365.699219 202.011719 364.972656 202.328125 C 364.25 202.644531 363.5 202.886719 362.726562 203.058594 C 361.957031 203.226562 361.171875 203.324219 360.382812 203.34375 L 256.457031 203.34375 C 255.65625 203.34375 254.859375 203.265625 254.074219 203.109375 C 253.285156 202.953125 252.523438 202.722656 251.78125 202.414062 C 251.039062 202.109375 250.335938 201.734375 249.667969 201.289062 C 249 200.84375 248.382812 200.335938 247.816406 199.769531 C 247.246094 199.203125 246.738281 198.589844 246.292969 197.921875 C 245.84375 197.257812 245.46875 196.554688 245.160156 195.8125 C 244.851562 195.070312 244.617188 194.308594 244.457031 193.523438 C 244.300781 192.734375 244.21875 191.941406 244.214844 191.140625 Z M 244.210938 241.574219 C 244.210938 240.769531 244.289062 239.972656 244.445312 239.183594 C 244.601562 238.398438 244.832031 237.632812 245.140625 236.890625 C 245.449219 236.148438 245.824219 235.441406 246.273438 234.773438 C 246.71875 234.105469 247.226562 233.488281 247.792969 232.917969 C 248.363281 232.351562 248.980469 231.84375 249.648438 231.398438 C 250.316406 230.953125 251.023438 230.574219 251.765625 230.269531 C 252.507812 229.960938 253.273438 229.730469 254.0625 229.574219 C 254.851562 229.417969 255.644531 229.339844 256.449219 229.339844 L 444.15625 229.339844 C 444.960938 229.339844 445.757812 229.417969 446.546875 229.574219 C 447.335938 229.730469 448.105469 229.964844 448.847656 230.273438 C 449.589844 230.582031 450.296875 230.957031 450.964844 231.40625 C 451.636719 231.851562 452.253906 232.359375 452.824219 232.929688 C 453.390625 233.496094 453.898438 234.117188 454.347656 234.785156 C 454.792969 235.457031 455.171875 236.160156 455.480469 236.90625 C 455.789062 237.648438 456.019531 238.414062 456.175781 239.203125 C 456.335938 239.992188 456.414062 240.789062 456.414062 241.59375 C 456.414062 242.398438 456.335938 243.195312 456.175781 243.984375 C 456.019531 244.773438 455.789062 245.542969 455.480469 246.285156 C 455.171875 247.027344 454.792969 247.734375 454.347656 248.402344 C 453.898438 249.074219 453.390625 249.691406 452.824219 250.261719 C 452.253906 250.828125 451.636719 251.335938 450.964844 251.785156 C 450.296875 252.230469 449.589844 252.609375 448.847656 252.917969 C 448.105469 253.226562 447.335938 253.457031 446.546875 253.613281 C 445.757812 253.773438 444.960938 253.851562 444.15625 253.851562 L 256.457031 253.851562 C 255.652344 253.851562 254.855469 253.773438 254.070312 253.613281 C 253.28125 253.457031 252.515625 253.226562 251.773438 252.917969 C 251.03125 252.609375 250.324219 252.234375 249.65625 251.789062 C 248.988281 251.339844 248.371094 250.832031 247.800781 250.265625 C 247.234375 249.695312 246.726562 249.078125 246.28125 248.410156 C 245.832031 247.742188 245.457031 247.035156 245.148438 246.292969 C 244.839844 245.550781 244.609375 244.785156 244.453125 243.996094 C 244.296875 243.210938 244.214844 242.414062 244.214844 241.609375 Z M 598.953125 309.363281 C 598.953125 310.167969 598.875 310.964844 598.71875 311.75 C 598.5625 312.539062 598.328125 313.304688 598.023438 314.046875 C 597.714844 314.789062 597.335938 315.496094 596.890625 316.164062 C 596.445312 316.832031 595.9375 317.449219 595.367188 318.019531 C 594.800781 318.585938 594.183594 319.09375 593.515625 319.539062 C 592.84375 319.988281 592.140625 320.363281 591.398438 320.671875 C 590.65625 320.980469 589.890625 321.210938 589.101562 321.367188 C 588.3125 321.527344 587.515625 321.605469 586.714844 321.605469 L 256.457031 321.605469 C 255.652344 321.605469 254.855469 321.523438 254.066406 321.367188 C 253.277344 321.210938 252.511719 320.980469 251.765625 320.671875 C 251.023438 320.363281 250.316406 319.984375 249.648438 319.539062 C 248.980469 319.089844 248.359375 318.582031 247.792969 318.015625 C 247.222656 317.445312 246.714844 316.828125 246.265625 316.15625 C 245.820312 315.488281 245.441406 314.78125 245.132812 314.039062 C 244.828125 313.292969 244.59375 312.527344 244.4375 311.738281 C 244.28125 310.949219 244.203125 310.152344 244.203125 309.347656 C 244.203125 308.542969 244.28125 307.746094 244.4375 306.957031 C 244.59375 306.167969 244.828125 305.402344 245.132812 304.660156 C 245.441406 303.914062 245.820312 303.207031 246.265625 302.539062 C 246.714844 301.871094 247.222656 301.25 247.792969 300.683594 C 248.359375 300.113281 248.980469 299.605469 249.648438 299.160156 C 250.316406 298.710938 251.023438 298.332031 251.765625 298.027344 C 252.511719 297.71875 253.277344 297.484375 254.066406 297.328125 C 254.855469 297.171875 255.652344 297.09375 256.457031 297.09375 L 586.722656 297.09375 C 587.527344 297.09375 588.328125 297.171875 589.117188 297.328125 C 589.90625 297.488281 590.675781 297.722656 591.421875 298.03125 C 592.164062 298.339844 592.871094 298.71875 593.542969 299.167969 C 594.210938 299.621094 594.832031 300.128906 595.398438 300.703125 C 595.96875 301.273438 596.476562 301.894531 596.921875 302.566406 C 597.367188 303.238281 597.742188 303.949219 598.046875 304.695312 C 598.355469 305.441406 598.585938 306.210938 598.738281 307.003906 C 598.890625 307.792969 598.964844 308.59375 598.960938 309.402344 Z M 598.953125 365.476562 C 598.957031 366.285156 598.882812 367.082031 598.730469 367.875 C 598.578125 368.667969 598.347656 369.4375 598.042969 370.183594 C 597.738281 370.929688 597.363281 371.636719 596.917969 372.308594 C 596.472656 372.980469 595.964844 373.605469 595.398438 374.175781 C 594.828125 374.746094 594.210938 375.257812 593.539062 375.707031 C 592.871094 376.15625 592.164062 376.539062 591.417969 376.847656 C 590.675781 377.15625 589.90625 377.390625 589.117188 377.546875 C 588.324219 377.707031 587.527344 377.785156 586.722656 377.785156 L 256.457031 377.785156 C 255.652344 377.785156 254.855469 377.707031 254.066406 377.550781 C 253.277344 377.394531 252.511719 377.160156 251.765625 376.851562 C 251.023438 376.542969 250.316406 376.167969 249.648438 375.71875 C 248.980469 375.273438 248.359375 374.765625 247.792969 374.195312 C 247.222656 373.625 246.714844 373.007812 246.265625 372.339844 C 245.820312 371.667969 245.441406 370.964844 245.132812 370.21875 C 244.828125 369.476562 244.59375 368.710938 244.4375 367.921875 C 244.28125 367.132812 244.203125 366.335938 244.203125 365.53125 C 244.203125 364.726562 244.28125 363.929688 244.4375 363.140625 C 244.59375 362.351562 244.828125 361.582031 245.132812 360.839844 C 245.441406 360.097656 245.820312 359.390625 246.265625 358.722656 C 246.714844 358.050781 247.222656 357.433594 247.792969 356.863281 C 248.359375 356.296875 248.980469 355.785156 249.648438 355.339844 C 250.316406 354.894531 251.023438 354.515625 251.765625 354.207031 C 252.511719 353.898438 253.277344 353.667969 254.066406 353.511719 C 254.855469 353.351562 255.652344 353.273438 256.457031 353.273438 L 586.722656 353.273438 C 587.523438 353.273438 588.320312 353.351562 589.109375 353.511719 C 589.898438 353.667969 590.664062 353.898438 591.40625 354.207031 C 592.148438 354.515625 592.851562 354.890625 593.519531 355.335938 C 594.191406 355.785156 594.808594 356.292969 595.375 356.859375 C 595.945312 357.429688 596.453125 358.046875 596.898438 358.714844 C 597.34375 359.382812 597.722656 360.089844 598.03125 360.832031 C 598.335938 361.574219 598.570312 362.339844 598.726562 363.128906 C 598.882812 363.914062 598.960938 364.710938 598.960938 365.515625 Z M 598.953125 421.59375 C 598.953125 422.394531 598.875 423.191406 598.71875 423.980469 C 598.5625 424.769531 598.328125 425.535156 598.023438 426.277344 C 597.714844 427.019531 597.335938 427.722656 596.890625 428.390625 C 596.445312 429.058594 595.9375 429.675781 595.367188 430.246094 C 594.800781 430.8125 594.179688 431.320312 593.511719 431.765625 C 592.84375 432.214844 592.140625 432.589844 591.398438 432.898438 C 590.65625 433.203125 589.890625 433.4375 589.101562 433.59375 C 588.3125 433.75 587.515625 433.828125 586.714844 433.824219 L 256.457031 433.824219 C 255.652344 433.828125 254.855469 433.75 254.0625 433.59375 C 253.273438 433.4375 252.507812 433.207031 251.761719 432.898438 C 251.019531 432.589844 250.308594 432.214844 249.640625 431.765625 C 248.96875 431.320312 248.351562 430.8125 247.78125 430.242188 C 247.210938 429.671875 246.703125 429.054688 246.253906 428.382812 C 245.804688 427.714844 245.429688 427.007812 245.121094 426.265625 C 244.8125 425.519531 244.578125 424.753906 244.421875 423.964844 C 244.261719 423.171875 244.183594 422.375 244.183594 421.570312 C 244.183594 420.765625 244.261719 419.96875 244.421875 419.175781 C 244.578125 418.386719 244.8125 417.621094 245.121094 416.875 C 245.429688 416.132812 245.804688 415.425781 246.253906 414.757812 C 246.703125 414.085938 247.210938 413.46875 247.78125 412.898438 C 248.351562 412.328125 248.96875 411.820312 249.640625 411.375 C 250.308594 410.929688 251.019531 410.550781 251.761719 410.242188 C 252.507812 409.9375 253.273438 409.703125 254.0625 409.546875 C 254.855469 409.390625 255.652344 409.3125 256.457031 409.316406 L 586.722656 409.316406 C 587.527344 409.316406 588.324219 409.394531 589.117188 409.550781 C 589.90625 409.710938 590.671875 409.941406 591.417969 410.25 C 592.160156 410.5625 592.867188 410.941406 593.539062 411.390625 C 594.207031 411.835938 594.824219 412.347656 595.394531 412.917969 C 595.964844 413.488281 596.46875 414.109375 596.917969 414.78125 C 597.363281 415.453125 597.738281 416.160156 598.042969 416.90625 C 598.351562 417.652344 598.582031 418.421875 598.734375 419.210938 C 598.890625 420.003906 598.964844 420.800781 598.960938 421.609375 Z M 598.953125 477.707031 C 598.953125 478.511719 598.875 479.308594 598.71875 480.09375 C 598.5625 480.882812 598.328125 481.648438 598.023438 482.390625 C 597.714844 483.132812 597.335938 483.839844 596.890625 484.507812 C 596.445312 485.175781 595.9375 485.792969 595.367188 486.359375 C 594.800781 486.929688 594.179688 487.433594 593.511719 487.882812 C 592.84375 488.328125 592.140625 488.703125 591.398438 489.011719 C 590.65625 489.320312 589.890625 489.550781 589.101562 489.707031 C 588.3125 489.863281 587.515625 489.941406 586.714844 489.941406 L 256.457031 489.941406 C 255.652344 489.941406 254.855469 489.863281 254.066406 489.707031 C 253.277344 489.546875 252.511719 489.316406 251.765625 489.007812 C 251.023438 488.699219 250.316406 488.320312 249.648438 487.875 C 248.980469 487.429688 248.359375 486.921875 247.792969 486.351562 C 247.222656 485.78125 246.714844 485.164062 246.265625 484.492188 C 245.820312 483.824219 245.441406 483.117188 245.132812 482.375 C 244.828125 481.632812 244.59375 480.867188 244.4375 480.074219 C 244.28125 479.285156 244.203125 478.488281 244.203125 477.683594 C 244.203125 476.878906 244.28125 476.082031 244.4375 475.292969 C 244.59375 474.503906 244.828125 473.738281 245.132812 472.996094 C 245.441406 472.25 245.820312 471.546875 246.265625 470.875 C 246.714844 470.207031 247.222656 469.589844 247.792969 469.019531 C 248.359375 468.449219 248.980469 467.941406 249.648438 467.496094 C 250.316406 467.046875 251.023438 466.671875 251.765625 466.363281 C 252.511719 466.054688 253.277344 465.824219 254.066406 465.664062 C 254.855469 465.507812 255.652344 465.429688 256.457031 465.429688 L 586.722656 465.429688 C 587.527344 465.429688 588.328125 465.507812 589.117188 465.667969 C 589.910156 465.824219 590.675781 466.058594 591.421875 466.367188 C 592.167969 466.679688 592.875 467.058594 593.542969 467.507812 C 594.214844 467.957031 594.832031 468.46875 595.402344 469.042969 C 595.972656 469.613281 596.480469 470.234375 596.925781 470.910156 C 597.371094 471.582031 597.746094 472.289062 598.050781 473.039062 C 598.355469 473.785156 598.585938 474.554688 598.738281 475.347656 C 598.890625 476.136719 598.964844 476.9375 598.960938 477.746094 Z M 598.953125 533.816406 C 598.953125 534.617188 598.875 535.414062 598.71875 536.203125 C 598.5625 536.992188 598.328125 537.757812 598.023438 538.5 C 597.714844 539.242188 597.335938 539.945312 596.890625 540.617188 C 596.445312 541.285156 595.9375 541.902344 595.367188 542.46875 C 594.800781 543.039062 594.183594 543.546875 593.515625 543.992188 C 592.84375 544.4375 592.140625 544.816406 591.398438 545.125 C 590.65625 545.429688 589.890625 545.664062 589.101562 545.820312 C 588.3125 545.976562 587.515625 546.054688 586.714844 546.054688 L 480.796875 546.054688 C 479.992188 546.054688 479.195312 545.976562 478.40625 545.820312 C 477.617188 545.664062 476.851562 545.429688 476.105469 545.121094 C 475.363281 544.8125 474.65625 544.4375 473.988281 543.988281 C 473.320312 543.542969 472.699219 543.035156 472.132812 542.464844 C 471.5625 541.898438 471.054688 541.277344 470.605469 540.609375 C 470.160156 539.941406 469.78125 539.234375 469.476562 538.488281 C 469.167969 537.746094 468.933594 536.980469 468.777344 536.191406 C 468.621094 535.402344 468.542969 534.605469 468.542969 533.800781 C 468.542969 532.996094 468.621094 532.199219 468.777344 531.410156 C 468.933594 530.621094 469.167969 529.851562 469.476562 529.109375 C 469.78125 528.367188 470.160156 527.660156 470.605469 526.992188 C 471.054688 526.320312 471.5625 525.703125 472.132812 525.132812 C 472.699219 524.566406 473.320312 524.058594 473.988281 523.609375 C 474.65625 523.164062 475.363281 522.785156 476.105469 522.476562 C 476.851562 522.167969 477.617188 521.9375 478.40625 521.78125 C 479.195312 521.621094 479.992188 521.542969 480.796875 521.542969 L 586.722656 521.542969 C 587.527344 521.542969 588.328125 521.621094 589.117188 521.78125 C 589.910156 521.9375 590.675781 522.171875 591.421875 522.480469 C 592.167969 522.789062 592.875 523.167969 593.542969 523.617188 C 594.214844 524.070312 594.832031 524.578125 595.402344 525.152344 C 595.972656 525.722656 596.476562 526.34375 596.925781 527.015625 C 597.371094 527.691406 597.746094 528.398438 598.050781 529.144531 C 598.355469 529.894531 598.585938 530.660156 598.738281 531.453125 C 598.890625 532.246094 598.964844 533.046875 598.960938 533.851562 Z M 598.953125 533.816406 " fill-opacity="1" fill-rule="nonzero"/></g></svg>