<svg xmlns="http://www.w3.org/2000/svg" xmlns:xlink="http://www.w3.org/1999/xlink" width="1024" zoomAndPan="magnify" viewBox="0 0 768 767.999994" height="1024" preserveAspectRatio="xMidYMid meet" version="1.0"><defs><clipPath id="47848ad936"><path d="M 26 31.664062 L 749 31.664062 L 749 723 L 26 723 Z M 26 31.664062 " clip-rule="nonzero"/></clipPath></defs><g clip-path="url(#47848ad936)"><path fill="#027f5b" d="M 437.675781 242.550781 C 439.136719 242.550781 440.59375 242.480469 442.046875 242.335938 C 443.5 242.195312 444.941406 241.980469 446.371094 241.695312 C 447.804688 241.410156 449.21875 241.058594 450.617188 240.632812 C 452.011719 240.210938 453.386719 239.71875 454.734375 239.160156 C 456.082031 238.601562 457.402344 237.976562 458.6875 237.289062 C 459.976562 236.601562 461.226562 235.851562 462.441406 235.039062 C 463.652344 234.230469 464.824219 233.359375 465.953125 232.433594 C 467.082031 231.507812 468.160156 230.53125 469.195312 229.496094 C 470.226562 228.464844 471.207031 227.386719 472.132812 226.257812 C 473.058594 225.128906 473.925781 223.957031 474.738281 222.742188 C 475.546875 221.53125 476.296875 220.277344 476.984375 218.992188 C 477.675781 217.703125 478.296875 216.386719 478.855469 215.039062 C 479.414062 213.6875 479.90625 212.316406 480.328125 210.917969 C 480.753906 209.523438 481.109375 208.109375 481.390625 206.675781 C 481.675781 205.246094 481.890625 203.800781 482.035156 202.347656 C 482.175781 200.898438 482.25 199.441406 482.25 197.980469 L 482.25 158.121094 C 482.25 156.660156 482.175781 155.203125 482.035156 153.75 C 481.890625 152.300781 481.675781 150.855469 481.390625 149.425781 C 481.109375 147.992188 480.753906 146.578125 480.328125 145.183594 C 479.90625 143.785156 479.414062 142.414062 478.855469 141.0625 C 478.296875 139.714844 477.675781 138.398438 476.984375 137.109375 C 476.296875 135.820312 475.546875 134.570312 474.738281 133.359375 C 473.925781 132.144531 473.058594 130.972656 472.132812 129.84375 C 471.207031 128.714844 470.226562 127.636719 469.195312 126.605469 C 468.160156 125.570312 467.082031 124.59375 465.953125 123.667969 C 464.824219 122.738281 463.652344 121.871094 462.441406 121.0625 C 461.226562 120.25 459.976562 119.5 458.6875 118.8125 C 457.402344 118.125 456.082031 117.5 454.734375 116.941406 C 453.386719 116.382812 452.011719 115.890625 450.617188 115.46875 C 449.21875 115.042969 447.804688 114.691406 446.371094 114.40625 C 444.941406 114.121094 443.5 113.90625 442.046875 113.761719 C 440.59375 113.621094 439.136719 113.550781 437.675781 113.550781 L 144.777344 113.550781 C 143.316406 113.550781 141.859375 113.621094 140.40625 113.761719 C 138.953125 113.90625 137.511719 114.121094 136.082031 114.40625 C 134.648438 114.691406 133.234375 115.042969 131.839844 115.46875 C 130.441406 115.890625 129.066406 116.382812 127.71875 116.941406 C 126.371094 117.5 125.054688 118.125 123.765625 118.8125 C 122.476562 119.5 121.226562 120.25 120.011719 121.0625 C 118.800781 121.871094 117.628906 122.738281 116.5 123.667969 C 115.371094 124.59375 114.292969 125.570312 113.257812 126.605469 C 112.226562 127.636719 111.246094 128.714844 110.320312 129.84375 C 109.394531 130.972656 108.527344 132.144531 107.714844 133.359375 C 106.90625 134.570312 106.15625 135.824219 105.46875 137.109375 C 104.78125 138.398438 104.15625 139.714844 103.597656 141.0625 C 103.039062 142.414062 102.546875 143.785156 102.125 145.183594 C 101.699219 146.578125 101.347656 147.992188 101.0625 149.425781 C 100.777344 150.855469 100.5625 152.300781 100.417969 153.75 C 100.277344 155.203125 100.203125 156.660156 100.203125 158.121094 L 100.203125 198.488281 C 100.203125 199.949219 100.277344 201.40625 100.417969 202.859375 C 100.5625 204.3125 100.777344 205.753906 101.0625 207.1875 C 101.347656 208.617188 101.699219 210.03125 102.125 211.429688 C 102.546875 212.824219 103.039062 214.199219 103.597656 215.546875 C 104.15625 216.894531 104.78125 218.214844 105.46875 219.5 C 106.15625 220.789062 106.90625 222.039062 107.714844 223.253906 C 108.527344 224.464844 109.394531 225.636719 110.320312 226.765625 C 111.246094 227.894531 112.226562 228.976562 113.257812 230.007812 C 114.292969 231.039062 115.371094 232.019531 116.5 232.945312 C 117.628906 233.871094 118.800781 234.738281 120.011719 235.550781 C 121.226562 236.359375 122.476562 237.109375 123.765625 237.800781 C 125.054688 238.488281 126.371094 239.109375 127.71875 239.667969 C 129.066406 240.226562 130.441406 240.71875 131.835938 241.144531 C 133.234375 241.566406 134.648438 241.921875 136.082031 242.207031 C 137.511719 242.488281 138.953125 242.703125 140.40625 242.847656 C 141.859375 242.992188 143.316406 243.0625 144.777344 243.0625 Z M 137.898438 198.488281 L 137.898438 158.121094 C 137.898438 157.703125 137.941406 157.289062 138.023438 156.878906 C 138.105469 156.46875 138.222656 156.070312 138.382812 155.683594 C 138.542969 155.296875 138.742188 154.929688 138.972656 154.582031 C 139.203125 154.234375 139.46875 153.914062 139.765625 153.617188 C 140.058594 153.324219 140.382812 153.058594 140.730469 152.828125 C 141.078125 152.59375 141.445312 152.398438 141.832031 152.238281 C 142.214844 152.078125 142.613281 151.957031 143.023438 151.875 C 143.433594 151.792969 143.847656 151.753906 144.265625 151.753906 L 437.675781 151.753906 C 438.09375 151.753906 438.507812 151.792969 438.917969 151.875 C 439.328125 151.957031 439.726562 152.078125 440.113281 152.238281 C 440.5 152.398438 440.867188 152.59375 441.214844 152.828125 C 441.5625 153.058594 441.882812 153.324219 442.179688 153.617188 C 442.476562 153.914062 442.738281 154.234375 442.972656 154.582031 C 443.203125 154.929688 443.398438 155.296875 443.558594 155.683594 C 443.71875 156.070312 443.839844 156.46875 443.921875 156.878906 C 444.003906 157.289062 444.042969 157.703125 444.042969 158.121094 L 444.042969 198.488281 C 444.042969 198.90625 444.003906 199.320312 443.921875 199.730469 C 443.839844 200.140625 443.71875 200.539062 443.558594 200.925781 C 443.398438 201.3125 443.203125 201.679688 442.972656 202.027344 C 442.738281 202.375 442.476562 202.695312 442.179688 202.992188 C 441.882812 203.289062 441.5625 203.550781 441.214844 203.785156 C 440.867188 204.015625 440.5 204.210938 440.113281 204.371094 C 439.726562 204.53125 439.328125 204.652344 438.917969 204.734375 C 438.507812 204.816406 438.09375 204.859375 437.675781 204.859375 L 144.777344 204.859375 C 144.335938 204.894531 143.898438 204.882812 143.460938 204.828125 C 143.027344 204.769531 142.597656 204.671875 142.183594 204.527344 C 141.765625 204.382812 141.371094 204.199219 140.992188 203.972656 C 140.613281 203.746094 140.265625 203.480469 139.941406 203.183594 C 139.617188 202.882812 139.328125 202.554688 139.074219 202.195312 C 138.820312 201.835938 138.605469 201.453125 138.429688 201.050781 C 138.253906 200.648438 138.121094 200.230469 138.03125 199.796875 C 137.941406 199.367188 137.898438 198.929688 137.898438 198.488281 Z M 196.863281 313.101562 L 133.1875 313.101562 C 132.5625 313.101562 131.9375 313.132812 131.316406 313.195312 C 130.691406 313.257812 130.074219 313.347656 129.460938 313.46875 C 128.847656 313.59375 128.242188 313.746094 127.644531 313.925781 C 127.042969 314.109375 126.457031 314.316406 125.878906 314.558594 C 125.300781 314.796875 124.734375 315.0625 124.183594 315.359375 C 123.632812 315.652344 123.09375 315.976562 122.574219 316.324219 C 122.054688 316.671875 121.554688 317.042969 121.070312 317.4375 C 120.585938 317.835938 120.121094 318.253906 119.679688 318.699219 C 119.238281 319.140625 118.820312 319.605469 118.421875 320.085938 C 118.023438 320.570312 117.652344 321.074219 117.304688 321.59375 C 116.957031 322.113281 116.636719 322.648438 116.339844 323.199219 C 116.046875 323.753906 115.777344 324.316406 115.539062 324.894531 C 115.300781 325.472656 115.089844 326.0625 114.90625 326.660156 C 114.726562 327.257812 114.574219 327.867188 114.453125 328.480469 C 114.332031 329.09375 114.238281 329.710938 114.175781 330.332031 C 114.117188 330.957031 114.085938 331.578125 114.085938 332.207031 L 114.085938 395.878906 C 114.085938 396.503906 114.117188 397.128906 114.175781 397.75 C 114.238281 398.375 114.332031 398.992188 114.453125 399.605469 C 114.574219 400.21875 114.726562 400.824219 114.90625 401.425781 C 115.089844 402.023438 115.300781 402.613281 115.539062 403.191406 C 115.777344 403.769531 116.046875 404.332031 116.339844 404.882812 C 116.636719 405.4375 116.957031 405.972656 117.304688 406.492188 C 117.652344 407.011719 118.023438 407.515625 118.421875 407.996094 C 118.820312 408.480469 119.238281 408.945312 119.679688 409.386719 C 120.121094 409.828125 120.585938 410.25 121.070312 410.644531 C 121.554688 411.042969 122.054688 411.414062 122.574219 411.761719 C 123.09375 412.109375 123.632812 412.429688 124.183594 412.726562 C 124.734375 413.019531 125.300781 413.289062 125.878906 413.527344 C 126.457031 413.765625 127.042969 413.976562 127.644531 414.160156 C 128.242188 414.339844 128.847656 414.492188 129.460938 414.613281 C 130.074219 414.738281 130.691406 414.828125 131.316406 414.890625 C 131.9375 414.949219 132.5625 414.980469 133.1875 414.980469 L 196.863281 414.980469 C 197.488281 414.980469 198.113281 414.949219 198.734375 414.890625 C 199.355469 414.828125 199.976562 414.738281 200.589844 414.613281 C 201.203125 414.492188 201.808594 414.339844 202.40625 414.160156 C 203.003906 413.976562 203.59375 413.765625 204.171875 413.527344 C 204.75 413.289062 205.316406 413.019531 205.867188 412.726562 C 206.417969 412.429688 206.953125 412.109375 207.472656 411.761719 C 207.996094 411.414062 208.496094 411.042969 208.980469 410.644531 C 209.464844 410.25 209.925781 409.828125 210.367188 409.386719 C 210.8125 408.945312 211.230469 408.480469 211.628906 407.996094 C 212.023438 407.515625 212.398438 407.011719 212.746094 406.492188 C 213.09375 405.972656 213.414062 405.4375 213.707031 404.882812 C 214.003906 404.332031 214.269531 403.769531 214.511719 403.191406 C 214.75 402.613281 214.960938 402.023438 215.140625 401.425781 C 215.324219 400.824219 215.476562 400.21875 215.597656 399.605469 C 215.71875 398.992188 215.8125 398.375 215.871094 397.75 C 215.933594 397.128906 215.964844 396.503906 215.964844 395.878906 L 215.964844 332.207031 C 215.964844 331.578125 215.933594 330.949219 215.871094 330.324219 C 215.808594 329.699219 215.71875 329.078125 215.59375 328.464844 C 215.472656 327.847656 215.316406 327.238281 215.132812 326.636719 C 214.953125 326.035156 214.738281 325.445312 214.496094 324.867188 C 214.257812 324.285156 213.988281 323.71875 213.691406 323.164062 C 213.390625 322.613281 213.070312 322.074219 212.71875 321.554688 C 212.367188 321.03125 211.992188 320.527344 211.59375 320.042969 C 211.191406 319.558594 210.769531 319.097656 210.324219 318.652344 C 209.878906 318.210938 209.410156 317.789062 208.925781 317.394531 C 208.4375 316.996094 207.933594 316.625 207.410156 316.277344 C 206.882812 315.929688 206.34375 315.609375 205.789062 315.316406 C 205.234375 315.023438 204.664062 314.757812 204.082031 314.519531 C 203.5 314.28125 202.910156 314.074219 202.308594 313.894531 C 201.707031 313.714844 201.097656 313.566406 200.480469 313.449219 C 199.863281 313.328125 199.242188 313.242188 198.617188 313.183594 C 197.988281 313.125 197.363281 313.097656 196.734375 313.101562 Z M 177.757812 376.777344 L 152.289062 376.777344 L 152.289062 351.308594 L 177.757812 351.308594 Z M 196.863281 434.210938 L 133.1875 434.210938 C 132.5625 434.210938 131.9375 434.242188 131.316406 434.304688 C 130.691406 434.363281 130.074219 434.457031 129.460938 434.578125 C 128.847656 434.699219 128.242188 434.851562 127.644531 435.035156 C 127.042969 435.214844 126.457031 435.425781 125.878906 435.664062 C 125.300781 435.90625 124.734375 436.171875 124.183594 436.46875 C 123.632812 436.761719 123.09375 437.082031 122.574219 437.429688 C 122.054688 437.777344 121.554688 438.152344 121.070312 438.546875 C 120.585938 438.945312 120.121094 439.363281 119.679688 439.804688 C 119.238281 440.25 118.820312 440.710938 118.421875 441.195312 C 118.023438 441.679688 117.652344 442.179688 117.304688 442.699219 C 116.957031 443.222656 116.636719 443.757812 116.339844 444.308594 C 116.046875 444.859375 115.777344 445.425781 115.539062 446.003906 C 115.300781 446.582031 115.089844 447.167969 114.90625 447.769531 C 114.726562 448.367188 114.574219 448.972656 114.453125 449.585938 C 114.332031 450.199219 114.238281 450.820312 114.175781 451.441406 C 114.117188 452.0625 114.085938 452.6875 114.085938 453.3125 L 114.085938 516.988281 C 114.085938 517.613281 114.117188 518.238281 114.175781 518.859375 C 114.238281 519.484375 114.332031 520.101562 114.453125 520.714844 C 114.574219 521.328125 114.726562 521.933594 114.90625 522.53125 C 115.089844 523.132812 115.300781 523.71875 115.539062 524.296875 C 115.777344 524.875 116.046875 525.441406 116.339844 525.992188 C 116.636719 526.542969 116.957031 527.078125 117.304688 527.601562 C 117.652344 528.121094 118.023438 528.621094 118.421875 529.105469 C 118.820312 529.589844 119.238281 530.050781 119.679688 530.496094 C 120.121094 530.9375 120.585938 531.355469 121.070312 531.753906 C 121.554688 532.152344 122.054688 532.523438 122.574219 532.871094 C 123.09375 533.21875 123.632812 533.539062 124.183594 533.835938 C 124.734375 534.128906 125.300781 534.394531 125.878906 534.636719 C 126.457031 534.875 127.042969 535.085938 127.644531 535.265625 C 128.242188 535.449219 128.847656 535.601562 129.460938 535.722656 C 130.074219 535.84375 130.691406 535.9375 131.316406 535.996094 C 131.9375 536.058594 132.5625 536.089844 133.1875 536.089844 L 196.863281 536.089844 C 197.488281 536.089844 198.113281 536.058594 198.734375 535.996094 C 199.355469 535.9375 199.976562 535.84375 200.589844 535.722656 C 201.203125 535.601562 201.808594 535.449219 202.40625 535.265625 C 203.003906 535.085938 203.59375 534.875 204.171875 534.636719 C 204.75 534.394531 205.316406 534.128906 205.867188 533.835938 C 206.417969 533.539062 206.953125 533.21875 207.472656 532.871094 C 207.996094 532.523438 208.496094 532.152344 208.980469 531.753906 C 209.464844 531.355469 209.925781 530.9375 210.367188 530.496094 C 210.8125 530.050781 211.230469 529.589844 211.628906 529.105469 C 212.023438 528.621094 212.398438 528.121094 212.746094 527.601562 C 213.09375 527.078125 213.414062 526.542969 213.707031 525.992188 C 214.003906 525.441406 214.269531 524.875 214.511719 524.296875 C 214.75 523.71875 214.960938 523.132812 215.140625 522.53125 C 215.324219 521.933594 215.476562 521.328125 215.597656 520.714844 C 215.71875 520.101562 215.8125 519.484375 215.871094 518.859375 C 215.933594 518.238281 215.964844 517.613281 215.964844 516.988281 L 215.964844 453.1875 C 215.960938 452.5625 215.925781 451.9375 215.859375 451.316406 C 215.792969 450.691406 215.699219 450.074219 215.570312 449.460938 C 215.445312 448.847656 215.289062 448.242188 215.105469 447.648438 C 214.917969 447.050781 214.703125 446.460938 214.460938 445.886719 C 214.21875 445.308594 213.945312 444.746094 213.648438 444.195312 C 213.351562 443.648438 213.023438 443.113281 212.675781 442.59375 C 212.324219 442.078125 211.949219 441.578125 211.546875 441.097656 C 211.148438 440.617188 210.722656 440.15625 210.277344 439.714844 C 209.832031 439.277344 209.367188 438.859375 208.882812 438.464844 C 208.394531 438.074219 207.890625 437.703125 207.367188 437.359375 C 206.847656 437.015625 206.308594 436.699219 205.753906 436.40625 C 205.199219 436.117188 204.632812 435.851562 204.054688 435.617188 C 203.476562 435.382812 202.886719 435.175781 202.285156 434.996094 C 201.683594 434.820312 201.078125 434.671875 200.464844 434.554688 C 199.847656 434.433594 199.230469 434.347656 198.605469 434.289062 C 197.984375 434.234375 197.359375 434.207031 196.734375 434.210938 Z M 177.757812 497.886719 L 152.289062 497.886719 L 152.289062 472.414062 L 177.757812 472.414062 Z M 196.734375 555.066406 L 133.058594 555.066406 C 132.433594 555.066406 131.8125 555.09375 131.1875 555.15625 C 130.566406 555.21875 129.949219 555.308594 129.332031 555.429688 C 128.71875 555.554688 128.113281 555.707031 127.515625 555.886719 C 126.917969 556.070312 126.328125 556.28125 125.75 556.519531 C 125.171875 556.757812 124.609375 557.023438 124.054688 557.320312 C 123.503906 557.613281 122.96875 557.9375 122.449219 558.285156 C 121.925781 558.632812 121.425781 559.003906 120.941406 559.402344 C 120.457031 559.796875 119.996094 560.21875 119.554688 560.660156 C 119.109375 561.101562 118.691406 561.566406 118.292969 562.046875 C 117.898438 562.53125 117.523438 563.035156 117.175781 563.554688 C 116.828125 564.074219 116.507812 564.609375 116.214844 565.164062 C 115.917969 565.714844 115.652344 566.277344 115.414062 566.855469 C 115.171875 567.433594 114.960938 568.023438 114.78125 568.621094 C 114.597656 569.21875 114.449219 569.828125 114.324219 570.441406 C 114.203125 571.054688 114.113281 571.671875 114.050781 572.292969 C 113.988281 572.917969 113.957031 573.542969 113.957031 574.167969 L 113.957031 637.839844 C 113.957031 638.464844 113.988281 639.089844 114.050781 639.714844 C 114.113281 640.335938 114.203125 640.953125 114.324219 641.566406 C 114.449219 642.179688 114.597656 642.789062 114.78125 643.386719 C 114.960938 643.984375 115.171875 644.574219 115.414062 645.152344 C 115.652344 645.730469 115.917969 646.292969 116.214844 646.84375 C 116.507812 647.398438 116.828125 647.933594 117.175781 648.453125 C 117.523438 648.972656 117.898438 649.476562 118.292969 649.960938 C 118.691406 650.441406 119.109375 650.90625 119.554688 651.347656 C 119.996094 651.789062 120.457031 652.210938 120.941406 652.605469 C 121.425781 653.003906 121.925781 653.375 122.449219 653.722656 C 122.96875 654.070312 123.503906 654.390625 124.054688 654.6875 C 124.605469 654.980469 125.171875 655.25 125.75 655.488281 C 126.328125 655.726562 126.917969 655.9375 127.515625 656.121094 C 128.113281 656.300781 128.71875 656.453125 129.332031 656.574219 C 129.949219 656.699219 130.566406 656.789062 131.1875 656.851562 C 131.8125 656.914062 132.433594 656.941406 133.058594 656.941406 L 196.734375 656.941406 C 197.359375 656.941406 197.984375 656.914062 198.605469 656.851562 C 199.230469 656.789062 199.847656 656.699219 200.460938 656.574219 C 201.074219 656.453125 201.679688 656.300781 202.28125 656.121094 C 202.878906 655.9375 203.464844 655.726562 204.042969 655.488281 C 204.621094 655.25 205.1875 654.980469 205.738281 654.6875 C 206.289062 654.390625 206.828125 654.070312 207.347656 653.722656 C 207.867188 653.375 208.367188 653.003906 208.851562 652.605469 C 209.335938 652.210938 209.800781 651.789062 210.242188 651.347656 C 210.683594 650.90625 211.105469 650.441406 211.5 649.960938 C 211.898438 649.476562 212.269531 648.972656 212.617188 648.453125 C 212.964844 647.933594 213.285156 647.398438 213.582031 646.84375 C 213.875 646.292969 214.144531 645.730469 214.382812 645.152344 C 214.621094 644.574219 214.832031 643.984375 215.015625 643.386719 C 215.195312 642.789062 215.347656 642.179688 215.46875 641.566406 C 215.589844 640.953125 215.683594 640.335938 215.746094 639.714844 C 215.804688 639.089844 215.835938 638.464844 215.835938 637.839844 L 215.835938 574.167969 C 215.835938 573.542969 215.804688 572.917969 215.746094 572.292969 C 215.683594 571.671875 215.589844 571.054688 215.46875 570.441406 C 215.347656 569.828125 215.195312 569.21875 215.015625 568.621094 C 214.832031 568.023438 214.621094 567.433594 214.382812 566.855469 C 214.144531 566.277344 213.875 565.714844 213.582031 565.160156 C 213.285156 564.609375 212.964844 564.074219 212.617188 563.554688 C 212.269531 563.035156 211.898438 562.53125 211.5 562.046875 C 211.105469 561.566406 210.683594 561.101562 210.242188 560.660156 C 209.800781 560.21875 209.335938 559.796875 208.851562 559.402344 C 208.367188 559.003906 207.867188 558.632812 207.347656 558.285156 C 206.828125 557.9375 206.289062 557.613281 205.738281 557.320312 C 205.1875 557.023438 204.621094 556.757812 204.042969 556.519531 C 203.464844 556.277344 202.878906 556.070312 202.28125 555.886719 C 201.679688 555.707031 201.074219 555.554688 200.460938 555.429688 C 199.847656 555.308594 199.230469 555.21875 198.605469 555.15625 C 197.984375 555.09375 197.359375 555.066406 196.734375 555.066406 Z M 177.632812 618.738281 L 152.164062 618.738281 L 152.164062 593.269531 L 177.632812 593.269531 Z M 324.082031 313.101562 L 260.410156 313.101562 C 259.78125 313.101562 259.160156 313.132812 258.535156 313.195312 C 257.914062 313.257812 257.296875 313.347656 256.683594 313.46875 C 256.066406 313.59375 255.460938 313.746094 254.863281 313.925781 C 254.265625 314.109375 253.675781 314.316406 253.097656 314.558594 C 252.519531 314.796875 251.957031 315.0625 251.402344 315.359375 C 250.851562 315.652344 250.316406 315.976562 249.796875 316.324219 C 249.277344 316.671875 248.773438 317.042969 248.289062 317.4375 C 247.804688 317.835938 247.34375 318.253906 246.902344 318.699219 C 246.457031 319.140625 246.039062 319.605469 245.640625 320.085938 C 245.246094 320.570312 244.875 321.074219 244.527344 321.59375 C 244.179688 322.113281 243.855469 322.648438 243.5625 323.199219 C 243.265625 323.753906 243 324.316406 242.761719 324.894531 C 242.519531 325.472656 242.308594 326.0625 242.128906 326.660156 C 241.945312 327.257812 241.796875 327.867188 241.671875 328.480469 C 241.550781 329.09375 241.460938 329.710938 241.398438 330.332031 C 241.335938 330.957031 241.304688 331.578125 241.304688 332.207031 L 241.304688 395.878906 C 241.304688 396.503906 241.335938 397.128906 241.398438 397.75 C 241.460938 398.375 241.550781 398.992188 241.671875 399.605469 C 241.796875 400.21875 241.945312 400.824219 242.128906 401.425781 C 242.308594 402.023438 242.519531 402.613281 242.761719 403.191406 C 243 403.769531 243.265625 404.332031 243.5625 404.882812 C 243.855469 405.4375 244.179688 405.972656 244.527344 406.492188 C 244.875 407.011719 245.246094 407.515625 245.640625 407.996094 C 246.039062 408.480469 246.457031 408.945312 246.902344 409.386719 C 247.34375 409.828125 247.804688 410.25 248.289062 410.644531 C 248.773438 411.042969 249.277344 411.414062 249.796875 411.761719 C 250.316406 412.109375 250.851562 412.429688 251.402344 412.726562 C 251.957031 413.019531 252.519531 413.289062 253.097656 413.527344 C 253.675781 413.765625 254.265625 413.976562 254.863281 414.160156 C 255.460938 414.339844 256.066406 414.492188 256.683594 414.613281 C 257.296875 414.738281 257.914062 414.828125 258.535156 414.890625 C 259.160156 414.949219 259.78125 414.980469 260.410156 414.980469 L 324.082031 414.980469 C 324.707031 414.980469 325.332031 414.949219 325.953125 414.890625 C 326.578125 414.828125 327.195312 414.738281 327.808594 414.613281 C 328.421875 414.492188 329.027344 414.339844 329.628906 414.160156 C 330.226562 413.976562 330.816406 413.765625 331.390625 413.527344 C 331.96875 413.289062 332.535156 413.019531 333.085938 412.726562 C 333.640625 412.429688 334.175781 412.109375 334.695312 411.761719 C 335.214844 411.414062 335.71875 411.042969 336.199219 410.644531 C 336.683594 410.25 337.148438 409.828125 337.589844 409.386719 C 338.03125 408.945312 338.453125 408.480469 338.847656 407.996094 C 339.246094 407.515625 339.617188 407.011719 339.964844 406.492188 C 340.3125 405.972656 340.632812 405.4375 340.929688 404.882812 C 341.222656 404.332031 341.492188 403.769531 341.730469 403.191406 C 341.96875 402.613281 342.179688 402.023438 342.363281 401.425781 C 342.542969 400.824219 342.695312 400.21875 342.816406 399.605469 C 342.941406 398.992188 343.03125 398.375 343.09375 397.75 C 343.152344 397.128906 343.183594 396.503906 343.183594 395.878906 L 343.183594 332.207031 C 343.183594 331.578125 343.152344 330.957031 343.09375 330.332031 C 343.03125 329.710938 342.941406 329.09375 342.816406 328.480469 C 342.695312 327.867188 342.542969 327.257812 342.363281 326.660156 C 342.179688 326.0625 341.96875 325.472656 341.730469 324.894531 C 341.492188 324.316406 341.222656 323.753906 340.929688 323.199219 C 340.632812 322.648438 340.3125 322.113281 339.964844 321.59375 C 339.617188 321.074219 339.246094 320.570312 338.847656 320.085938 C 338.453125 319.605469 338.03125 319.140625 337.589844 318.699219 C 337.148438 318.253906 336.683594 317.835938 336.199219 317.4375 C 335.71875 317.042969 335.214844 316.671875 334.695312 316.324219 C 334.175781 315.976562 333.640625 315.652344 333.085938 315.359375 C 332.535156 315.0625 331.96875 314.796875 331.390625 314.558594 C 330.816406 314.316406 330.226562 314.109375 329.628906 313.925781 C 329.027344 313.746094 328.421875 313.59375 327.808594 313.46875 C 327.195312 313.347656 326.578125 313.257812 325.953125 313.195312 C 325.332031 313.132812 324.707031 313.101562 324.082031 313.101562 Z M 304.980469 376.777344 L 279.511719 376.777344 L 279.511719 351.308594 L 304.980469 351.308594 Z M 324.082031 434.210938 L 260.410156 434.210938 C 259.78125 434.210938 259.160156 434.242188 258.535156 434.304688 C 257.914062 434.363281 257.296875 434.457031 256.683594 434.578125 C 256.066406 434.699219 255.460938 434.851562 254.863281 435.035156 C 254.265625 435.214844 253.675781 435.425781 253.097656 435.664062 C 252.519531 435.90625 251.957031 436.171875 251.402344 436.46875 C 250.851562 436.761719 250.316406 437.082031 249.796875 437.429688 C 249.277344 437.777344 248.773438 438.152344 248.289062 438.546875 C 247.804688 438.945312 247.34375 439.363281 246.902344 439.804688 C 246.457031 440.25 246.039062 440.710938 245.640625 441.195312 C 245.246094 441.679688 244.875 442.179688 244.527344 442.699219 C 244.179688 443.222656 243.855469 443.757812 243.5625 444.308594 C 243.265625 444.859375 243 445.425781 242.761719 446.003906 C 242.519531 446.582031 242.308594 447.167969 242.128906 447.769531 C 241.945312 448.367188 241.796875 448.972656 241.671875 449.585938 C 241.550781 450.199219 241.460938 450.820312 241.398438 451.441406 C 241.335938 452.0625 241.304688 452.6875 241.304688 453.3125 L 241.304688 516.988281 C 241.304688 517.613281 241.335938 518.238281 241.398438 518.859375 C 241.460938 519.484375 241.550781 520.101562 241.671875 520.714844 C 241.796875 521.328125 241.945312 521.933594 242.128906 522.53125 C 242.308594 523.132812 242.519531 523.71875 242.761719 524.296875 C 243 524.875 243.265625 525.441406 243.5625 525.992188 C 243.855469 526.542969 244.179688 527.078125 244.527344 527.601562 C 244.875 528.121094 245.246094 528.621094 245.640625 529.105469 C 246.039062 529.589844 246.457031 530.050781 246.902344 530.496094 C 247.34375 530.9375 247.804688 531.355469 248.289062 531.753906 C 248.773438 532.152344 249.277344 532.523438 249.796875 532.871094 C 250.316406 533.21875 250.851562 533.539062 251.402344 533.835938 C 251.957031 534.128906 252.519531 534.394531 253.097656 534.636719 C 253.675781 534.875 254.265625 535.085938 254.863281 535.265625 C 255.460938 535.449219 256.066406 535.601562 256.683594 535.722656 C 257.296875 535.84375 257.914062 535.9375 258.535156 535.996094 C 259.160156 536.058594 259.78125 536.089844 260.410156 536.089844 L 324.082031 536.089844 C 324.707031 536.089844 325.332031 536.058594 325.953125 535.996094 C 326.578125 535.9375 327.195312 535.84375 327.808594 535.722656 C 328.421875 535.601562 329.027344 535.449219 329.628906 535.265625 C 330.226562 535.085938 330.816406 534.875 331.390625 534.636719 C 331.96875 534.394531 332.535156 534.128906 333.085938 533.835938 C 333.640625 533.539062 334.175781 533.21875 334.695312 532.871094 C 335.214844 532.523438 335.71875 532.152344 336.199219 531.753906 C 336.683594 531.355469 337.148438 530.9375 337.589844 530.496094 C 338.03125 530.050781 338.453125 529.589844 338.847656 529.105469 C 339.246094 528.621094 339.617188 528.121094 339.964844 527.601562 C 340.3125 527.078125 340.632812 526.542969 340.929688 525.992188 C 341.222656 525.441406 341.492188 524.875 341.730469 524.296875 C 341.96875 523.71875 342.179688 523.132812 342.363281 522.53125 C 342.542969 521.933594 342.695312 521.328125 342.816406 520.714844 C 342.941406 520.101562 343.03125 519.484375 343.09375 518.859375 C 343.152344 518.238281 343.183594 517.613281 343.183594 516.988281 L 343.183594 453.1875 C 343.179688 452.5625 343.144531 451.941406 343.082031 451.324219 C 343.015625 450.703125 342.921875 450.085938 342.796875 449.476562 C 342.671875 448.867188 342.515625 448.265625 342.332031 447.667969 C 342.148438 447.074219 341.933594 446.488281 341.695312 445.914062 C 341.453125 445.339844 341.183594 444.78125 340.886719 444.230469 C 340.59375 443.683594 340.269531 443.152344 339.921875 442.632812 C 339.574219 442.117188 339.199219 441.621094 338.804688 441.140625 C 338.40625 440.660156 337.988281 440.199219 337.546875 439.761719 C 337.101562 439.320312 336.640625 438.90625 336.15625 438.511719 C 335.675781 438.117188 335.175781 437.75 334.65625 437.402344 C 334.136719 437.058594 333.601562 436.742188 333.050781 436.449219 C 332.503906 436.15625 331.9375 435.890625 331.363281 435.652344 C 330.789062 435.414062 330.203125 435.207031 329.605469 435.027344 C 329.007812 434.847656 328.40625 434.695312 327.792969 434.574219 C 327.183594 434.453125 326.566406 434.363281 325.945312 434.300781 C 325.328125 434.242188 324.707031 434.210938 324.082031 434.210938 Z M 304.980469 497.886719 L 279.511719 497.886719 L 279.511719 472.414062 L 304.980469 472.414062 Z M 324.082031 555.066406 L 260.410156 555.066406 C 259.78125 555.066406 259.160156 555.09375 258.535156 555.15625 C 257.914062 555.21875 257.296875 555.308594 256.683594 555.429688 C 256.066406 555.554688 255.460938 555.707031 254.863281 555.886719 C 254.265625 556.070312 253.675781 556.28125 253.097656 556.519531 C 252.519531 556.757812 251.957031 557.023438 251.402344 557.320312 C 250.851562 557.613281 250.316406 557.9375 249.796875 558.285156 C 249.277344 558.632812 248.773438 559.003906 248.289062 559.402344 C 247.804688 559.796875 247.34375 560.21875 246.902344 560.660156 C 246.457031 561.101562 246.039062 561.566406 245.640625 562.046875 C 245.246094 562.53125 244.875 563.035156 244.527344 563.554688 C 244.179688 564.074219 243.855469 564.609375 243.5625 565.164062 C 243.265625 565.714844 243 566.277344 242.761719 566.855469 C 242.519531 567.433594 242.308594 568.023438 242.128906 568.621094 C 241.945312 569.21875 241.796875 569.828125 241.671875 570.441406 C 241.550781 571.054688 241.460938 571.671875 241.398438 572.292969 C 241.335938 572.917969 241.304688 573.542969 241.304688 574.167969 L 241.304688 637.839844 C 241.304688 638.464844 241.335938 639.089844 241.398438 639.714844 C 241.460938 640.335938 241.550781 640.953125 241.671875 641.566406 C 241.796875 642.179688 241.945312 642.789062 242.128906 643.386719 C 242.308594 643.984375 242.519531 644.574219 242.761719 645.152344 C 243 645.730469 243.265625 646.292969 243.5625 646.84375 C 243.855469 647.398438 244.179688 647.933594 244.527344 648.453125 C 244.875 648.972656 245.246094 649.476562 245.640625 649.960938 C 246.039062 650.441406 246.457031 650.90625 246.902344 651.347656 C 247.34375 651.789062 247.804688 652.210938 248.289062 652.605469 C 248.773438 653.003906 249.277344 653.375 249.796875 653.722656 C 250.316406 654.070312 250.851562 654.390625 251.402344 654.6875 C 251.957031 654.980469 252.519531 655.25 253.097656 655.488281 C 253.675781 655.726562 254.265625 655.9375 254.863281 656.121094 C 255.460938 656.300781 256.066406 656.453125 256.683594 656.574219 C 257.296875 656.699219 257.914062 656.789062 258.535156 656.851562 C 259.160156 656.914062 259.78125 656.941406 260.410156 656.941406 L 324.082031 656.941406 C 324.707031 656.941406 325.332031 656.914062 325.953125 656.851562 C 326.578125 656.789062 327.195312 656.699219 327.808594 656.574219 C 328.421875 656.453125 329.027344 656.300781 329.628906 656.121094 C 330.226562 655.9375 330.816406 655.726562 331.390625 655.488281 C 331.96875 655.25 332.535156 654.980469 333.085938 654.6875 C 333.640625 654.390625 334.175781 654.070312 334.695312 653.722656 C 335.214844 653.375 335.71875 653.003906 336.199219 652.605469 C 336.683594 652.210938 337.148438 651.789062 337.589844 651.347656 C 338.03125 650.90625 338.453125 650.441406 338.847656 649.960938 C 339.246094 649.476562 339.617188 648.972656 339.964844 648.453125 C 340.3125 647.933594 340.632812 647.398438 340.929688 646.84375 C 341.222656 646.292969 341.492188 645.730469 341.730469 645.152344 C 341.96875 644.574219 342.179688 643.984375 342.363281 643.386719 C 342.542969 642.789062 342.695312 642.179688 342.816406 641.566406 C 342.941406 640.953125 343.03125 640.335938 343.09375 639.714844 C 343.152344 639.089844 343.183594 638.464844 343.183594 637.839844 L 343.183594 574.167969 C 343.183594 573.542969 343.152344 572.917969 343.09375 572.292969 C 343.03125 571.671875 342.941406 571.054688 342.816406 570.441406 C 342.695312 569.828125 342.542969 569.21875 342.363281 568.621094 C 342.179688 568.023438 341.96875 567.433594 341.730469 566.855469 C 341.492188 566.277344 341.222656 565.714844 340.929688 565.160156 C 340.632812 564.609375 340.3125 564.074219 339.964844 563.554688 C 339.617188 563.035156 339.246094 562.53125 338.847656 562.046875 C 338.453125 561.566406 338.03125 561.101562 337.589844 560.660156 C 337.148438 560.21875 336.683594 559.796875 336.199219 559.402344 C 335.71875 559.003906 335.214844 558.632812 334.695312 558.285156 C 334.175781 557.9375 333.640625 557.613281 333.085938 557.320312 C 332.535156 557.023438 331.96875 556.757812 331.390625 556.519531 C 330.816406 556.277344 330.226562 556.070312 329.628906 555.886719 C 329.027344 555.707031 328.421875 555.554688 327.808594 555.429688 C 327.195312 555.308594 326.578125 555.21875 325.953125 555.15625 C 325.332031 555.09375 324.707031 555.066406 324.082031 555.066406 Z M 304.980469 618.738281 L 279.511719 618.738281 L 279.511719 593.269531 L 304.980469 593.269531 Z M 451.429688 313.101562 L 387.757812 313.101562 C 387.132812 313.101562 386.507812 313.132812 385.882812 313.195312 C 385.261719 313.257812 384.644531 313.347656 384.03125 313.46875 C 383.417969 313.59375 382.808594 313.746094 382.210938 313.925781 C 381.613281 314.109375 381.023438 314.316406 380.445312 314.558594 C 379.867188 314.796875 379.304688 315.0625 378.75 315.359375 C 378.199219 315.652344 377.664062 315.976562 377.144531 316.324219 C 376.625 316.671875 376.121094 317.042969 375.636719 317.4375 C 375.15625 317.835938 374.691406 318.253906 374.25 318.699219 C 373.808594 319.140625 373.386719 319.605469 372.992188 320.085938 C 372.59375 320.570312 372.222656 321.074219 371.875 321.59375 C 371.527344 322.113281 371.203125 322.648438 370.910156 323.199219 C 370.613281 323.753906 370.347656 324.316406 370.109375 324.894531 C 369.867188 325.472656 369.660156 326.0625 369.476562 326.660156 C 369.296875 327.257812 369.144531 327.867188 369.019531 328.480469 C 368.898438 329.09375 368.808594 329.710938 368.746094 330.332031 C 368.683594 330.957031 368.65625 331.578125 368.65625 332.207031 L 368.65625 395.878906 C 368.65625 396.503906 368.683594 397.128906 368.746094 397.75 C 368.808594 398.375 368.898438 398.992188 369.019531 399.605469 C 369.144531 400.21875 369.296875 400.824219 369.476562 401.425781 C 369.660156 402.023438 369.867188 402.613281 370.109375 403.191406 C 370.347656 403.769531 370.613281 404.332031 370.910156 404.882812 C 371.203125 405.4375 371.527344 405.972656 371.875 406.492188 C 372.222656 407.011719 372.59375 407.515625 372.992188 407.996094 C 373.386719 408.480469 373.808594 408.945312 374.25 409.386719 C 374.691406 409.828125 375.15625 410.25 375.636719 410.644531 C 376.121094 411.042969 376.625 411.414062 377.144531 411.761719 C 377.664062 412.109375 378.199219 412.429688 378.75 412.726562 C 379.304688 413.019531 379.867188 413.289062 380.445312 413.527344 C 381.023438 413.765625 381.613281 413.976562 382.210938 414.160156 C 382.808594 414.339844 383.417969 414.492188 384.03125 414.613281 C 384.644531 414.738281 385.261719 414.828125 385.882812 414.890625 C 386.507812 414.949219 387.132812 414.980469 387.757812 414.980469 L 451.429688 414.980469 C 452.054688 414.980469 452.679688 414.949219 453.304688 414.890625 C 453.925781 414.828125 454.542969 414.738281 455.15625 414.613281 C 455.769531 414.492188 456.378906 414.339844 456.976562 414.160156 C 457.574219 413.976562 458.164062 413.765625 458.742188 413.527344 C 459.320312 413.289062 459.882812 413.019531 460.433594 412.726562 C 460.988281 412.429688 461.523438 412.109375 462.042969 411.761719 C 462.5625 411.414062 463.066406 411.042969 463.550781 410.644531 C 464.03125 410.25 464.496094 409.828125 464.9375 409.386719 C 465.378906 408.945312 465.800781 408.480469 466.195312 407.996094 C 466.59375 407.515625 466.964844 407.011719 467.3125 406.492188 C 467.660156 405.972656 467.980469 405.4375 468.277344 404.882812 C 468.570312 404.332031 468.839844 403.769531 469.078125 403.191406 C 469.316406 402.613281 469.527344 402.023438 469.710938 401.425781 C 469.890625 400.824219 470.042969 400.21875 470.164062 399.605469 C 470.289062 398.992188 470.378906 398.375 470.441406 397.75 C 470.503906 397.128906 470.53125 396.503906 470.53125 395.878906 L 470.53125 332.207031 C 470.53125 331.578125 470.503906 330.957031 470.441406 330.332031 C 470.378906 329.710938 470.289062 329.09375 470.164062 328.480469 C 470.042969 327.867188 469.890625 327.257812 469.710938 326.660156 C 469.527344 326.0625 469.316406 325.472656 469.078125 324.894531 C 468.839844 324.316406 468.570312 323.753906 468.277344 323.199219 C 467.980469 322.648438 467.660156 322.113281 467.3125 321.59375 C 466.964844 321.074219 466.59375 320.570312 466.195312 320.085938 C 465.800781 319.605469 465.378906 319.140625 464.9375 318.699219 C 464.496094 318.253906 464.03125 317.835938 463.550781 317.4375 C 463.066406 317.042969 462.5625 316.671875 462.042969 316.324219 C 461.523438 315.976562 460.988281 315.652344 460.433594 315.359375 C 459.882812 315.0625 459.320312 314.796875 458.742188 314.558594 C 458.164062 314.316406 457.574219 314.109375 456.976562 313.925781 C 456.378906 313.746094 455.769531 313.59375 455.15625 313.46875 C 454.542969 313.347656 453.925781 313.257812 453.304688 313.195312 C 452.679688 313.132812 452.054688 313.101562 451.429688 313.101562 Z M 432.328125 376.777344 L 406.859375 376.777344 L 406.859375 351.308594 L 432.328125 351.308594 Z M 590.496094 360.859375 C 579.773438 360.84375 569.164062 361.90625 558.65625 364.042969 L 558.65625 75.980469 C 558.65625 74.519531 558.585938 73.066406 558.441406 71.613281 C 558.300781 70.160156 558.085938 68.71875 557.800781 67.285156 C 557.515625 65.855469 557.160156 64.441406 556.738281 63.042969 C 556.316406 61.644531 555.824219 60.273438 555.265625 58.925781 C 554.707031 57.574219 554.082031 56.257812 553.394531 54.96875 C 552.707031 53.683594 551.957031 52.433594 551.144531 51.21875 C 550.335938 50.003906 549.464844 48.832031 548.539062 47.707031 C 547.613281 46.578125 546.636719 45.496094 545.601562 44.464844 C 544.570312 43.433594 543.492188 42.453125 542.363281 41.527344 C 541.234375 40.601562 540.0625 39.730469 538.847656 38.921875 C 537.632812 38.109375 536.382812 37.359375 535.097656 36.671875 C 533.808594 35.984375 532.492188 35.359375 531.144531 34.800781 C 529.792969 34.242188 528.421875 33.753906 527.023438 33.328125 C 525.628906 32.90625 524.214844 32.550781 522.78125 32.265625 C 521.347656 31.980469 519.90625 31.765625 518.453125 31.625 C 517 31.480469 515.546875 31.410156 514.085938 31.410156 L 71.042969 31.410156 C 69.582031 31.410156 68.125 31.480469 66.671875 31.625 C 65.21875 31.765625 63.777344 31.980469 62.347656 32.265625 C 60.914062 32.550781 59.5 32.90625 58.101562 33.328125 C 56.707031 33.753906 55.332031 34.242188 53.984375 34.800781 C 52.636719 35.359375 51.316406 35.984375 50.03125 36.671875 C 48.742188 37.359375 47.492188 38.109375 46.277344 38.921875 C 45.066406 39.730469 43.894531 40.601562 42.765625 41.527344 C 41.636719 42.453125 40.558594 43.433594 39.523438 44.464844 C 38.492188 45.496094 37.511719 46.578125 36.585938 47.707031 C 35.660156 48.832031 34.792969 50.003906 33.980469 51.21875 C 33.171875 52.433594 32.421875 53.683594 31.734375 54.96875 C 31.042969 56.257812 30.421875 57.574219 29.863281 58.925781 C 29.304688 60.273438 28.8125 61.644531 28.390625 63.042969 C 27.964844 64.441406 27.609375 65.855469 27.328125 67.285156 C 27.042969 68.71875 26.828125 70.160156 26.683594 71.613281 C 26.542969 73.066406 26.46875 74.519531 26.46875 75.980469 L 26.46875 677.699219 C 26.46875 679.160156 26.542969 680.617188 26.683594 682.070312 C 26.828125 683.523438 27.042969 684.964844 27.328125 686.394531 C 27.609375 687.828125 27.964844 689.242188 28.390625 690.640625 C 28.8125 692.035156 29.304688 693.410156 29.863281 694.757812 C 30.421875 696.105469 31.042969 697.425781 31.734375 698.710938 C 32.421875 700 33.171875 701.25 33.980469 702.464844 C 34.792969 703.675781 35.660156 704.847656 36.585938 705.976562 C 37.511719 707.105469 38.492188 708.1875 39.523438 709.21875 C 40.558594 710.25 41.636719 711.230469 42.765625 712.15625 C 43.894531 713.082031 45.066406 713.949219 46.277344 714.761719 C 47.492188 715.570312 48.742188 716.320312 50.03125 717.007812 C 51.316406 717.699219 52.636719 718.320312 53.984375 718.878906 C 55.332031 719.4375 56.707031 719.929688 58.101562 720.351562 C 59.5 720.777344 60.914062 721.132812 62.347656 721.417969 C 63.777344 721.699219 65.21875 721.914062 66.671875 722.058594 C 68.125 722.199219 69.582031 722.273438 71.042969 722.273438 L 514.085938 722.273438 C 515.546875 722.273438 517 722.199219 518.453125 722.058594 C 519.90625 721.914062 521.347656 721.699219 522.78125 721.417969 C 524.214844 721.132812 525.628906 720.777344 527.023438 720.351562 C 528.421875 719.929688 529.792969 719.4375 531.144531 718.878906 C 532.492188 718.320312 533.808594 717.699219 535.097656 717.007812 C 536.382812 716.320312 537.632812 715.570312 538.847656 714.761719 C 540.0625 713.949219 541.234375 713.082031 542.363281 712.15625 C 543.492188 711.230469 544.570312 710.25 545.601562 709.21875 C 546.636719 708.1875 547.613281 707.105469 548.539062 705.976562 C 549.464844 704.847656 550.335938 703.675781 551.144531 702.464844 C 551.957031 701.25 552.707031 700 553.394531 698.710938 C 554.082031 697.425781 554.707031 696.105469 555.265625 694.757812 C 555.824219 693.410156 556.316406 692.035156 556.738281 690.640625 C 557.160156 689.242188 557.515625 687.828125 557.800781 686.394531 C 558.085938 684.964844 558.300781 683.523438 558.441406 682.070312 C 558.585938 680.617188 558.65625 679.160156 558.65625 677.699219 L 558.65625 674.515625 C 561.359375 675.066406 564.074219 675.546875 566.800781 675.953125 C 569.527344 676.363281 572.261719 676.699219 575.007812 676.964844 C 577.75 677.230469 580.5 677.425781 583.257812 677.546875 C 586.011719 677.667969 588.765625 677.71875 591.523438 677.695312 C 594.28125 677.671875 597.035156 677.578125 599.789062 677.414062 C 602.539062 677.246094 605.285156 677.011719 608.027344 676.699219 C 610.765625 676.390625 613.496094 676.011719 616.214844 675.558594 C 618.933594 675.109375 621.640625 674.585938 624.335938 673.992188 C 627.027344 673.398438 629.703125 672.734375 632.359375 672.003906 C 635.019531 671.269531 637.65625 670.46875 640.273438 669.597656 C 642.886719 668.726562 645.480469 667.789062 648.046875 666.785156 C 650.613281 665.777344 653.152344 664.707031 655.664062 663.566406 C 658.175781 662.429688 660.65625 661.226562 663.105469 659.957031 C 665.554688 658.691406 667.964844 657.359375 670.34375 655.964844 C 672.722656 654.570312 675.066406 653.117188 677.367188 651.601562 C 679.671875 650.085938 681.933594 648.507812 684.152344 646.875 C 686.375 645.242188 688.550781 643.550781 690.683594 641.800781 C 692.816406 640.054688 694.902344 638.25 696.941406 636.394531 C 698.976562 634.539062 700.96875 632.628906 702.90625 630.667969 C 704.84375 628.707031 706.730469 626.699219 708.5625 624.640625 C 710.398438 622.582031 712.175781 620.472656 713.902344 618.324219 C 715.625 616.171875 717.289062 613.976562 718.898438 611.734375 C 720.507812 609.496094 722.058594 607.21875 723.550781 604.898438 C 725.039062 602.578125 726.46875 600.222656 727.835938 597.828125 C 729.203125 595.433594 730.503906 593.003906 731.746094 590.539062 C 732.984375 588.078125 734.160156 585.585938 735.269531 583.0625 C 736.382812 580.539062 737.425781 577.984375 738.402344 575.40625 C 739.378906 572.828125 740.289062 570.226562 741.128906 567.601562 C 741.96875 564.976562 742.742188 562.328125 743.445312 559.664062 C 744.148438 556.996094 744.78125 554.316406 745.34375 551.617188 C 745.90625 548.917969 746.398438 546.203125 746.820312 543.480469 C 747.238281 540.753906 747.589844 538.019531 747.867188 535.277344 C 748.148438 532.535156 748.351562 529.785156 748.488281 527.03125 C 748.625 524.277344 748.6875 521.523438 748.675781 518.765625 C 748.667969 516.007812 748.585938 513.253906 748.433594 510.5 C 748.28125 507.746094 748.058594 505 747.761719 502.257812 C 747.464844 499.515625 747.097656 496.785156 746.660156 494.0625 C 746.21875 491.339844 745.710938 488.632812 745.128906 485.9375 C 744.550781 483.242188 743.898438 480.5625 743.179688 477.902344 C 742.457031 475.238281 741.667969 472.597656 740.8125 469.980469 C 739.953125 467.359375 739.027344 464.761719 738.035156 462.191406 C 737.039062 459.617188 735.980469 457.074219 734.855469 454.558594 C 733.726562 452.039062 732.535156 449.554688 731.28125 447.101562 C 730.023438 444.644531 728.703125 442.226562 727.320312 439.839844 C 725.9375 437.457031 724.496094 435.105469 722.988281 432.796875 C 721.484375 430.488281 719.921875 428.21875 718.296875 425.988281 C 716.671875 423.761719 714.992188 421.578125 713.253906 419.433594 C 711.515625 417.292969 709.722656 415.199219 707.878906 413.152344 C 706.03125 411.105469 704.132812 409.109375 702.179688 407.160156 C 700.226562 405.214844 698.226562 403.316406 696.175781 401.472656 C 694.125 399.628906 692.03125 397.84375 689.886719 396.109375 C 687.742188 394.375 685.554688 392.695312 683.324219 391.078125 C 681.09375 389.457031 678.820312 387.898438 676.507812 386.394531 C 674.195312 384.894531 671.84375 383.453125 669.457031 382.078125 C 667.066406 380.699219 664.644531 379.382812 662.1875 378.132812 C 659.734375 376.878906 657.246094 375.691406 654.726562 374.570312 C 652.207031 373.449219 649.660156 372.390625 647.089844 371.402344 C 644.515625 370.414062 641.917969 369.492188 639.292969 368.640625 C 636.671875 367.785156 634.03125 367 631.367188 366.285156 C 628.707031 365.570312 626.027344 364.925781 623.328125 364.347656 C 620.632812 363.773438 617.921875 363.269531 615.199219 362.835938 C 612.476562 362.398438 609.746094 362.039062 607.003906 361.746094 C 604.261719 361.453125 601.511719 361.234375 598.761719 361.085938 C 596.007812 360.9375 593.25 360.863281 590.496094 360.859375 Z M 520.453125 677.699219 C 520.453125 678.117188 520.414062 678.53125 520.332031 678.941406 C 520.25 679.351562 520.128906 679.75 519.96875 680.136719 C 519.808594 680.523438 519.613281 680.890625 519.378906 681.238281 C 519.148438 681.585938 518.882812 681.90625 518.589844 682.203125 C 518.292969 682.5 517.972656 682.761719 517.625 682.996094 C 517.277344 683.226562 516.910156 683.421875 516.523438 683.582031 C 516.136719 683.742188 515.738281 683.863281 515.328125 683.945312 C 514.917969 684.027344 514.503906 684.066406 514.085938 684.066406 L 71.042969 684.066406 C 70.625 684.066406 70.210938 684.027344 69.800781 683.945312 C 69.390625 683.863281 68.992188 683.742188 68.605469 683.582031 C 68.21875 683.421875 67.851562 683.226562 67.503906 682.996094 C 67.15625 682.761719 66.835938 682.5 66.539062 682.203125 C 66.242188 681.90625 65.980469 681.585938 65.746094 681.238281 C 65.515625 680.890625 65.320312 680.523438 65.160156 680.136719 C 65 679.75 64.878906 679.351562 64.796875 678.941406 C 64.714844 678.53125 64.675781 678.117188 64.675781 677.699219 L 64.675781 75.980469 C 64.675781 75.5625 64.714844 75.148438 64.796875 74.738281 C 64.878906 74.328125 65 73.929688 65.160156 73.542969 C 65.320312 73.160156 65.515625 72.792969 65.746094 72.445312 C 65.980469 72.097656 66.242188 71.773438 66.539062 71.480469 C 66.835938 71.183594 67.15625 70.917969 67.503906 70.6875 C 67.851562 70.453125 68.21875 70.257812 68.605469 70.097656 C 68.992188 69.9375 69.390625 69.816406 69.800781 69.734375 C 70.210938 69.65625 70.625 69.613281 71.042969 69.613281 L 514.085938 69.613281 C 514.503906 69.613281 514.917969 69.65625 515.328125 69.734375 C 515.738281 69.816406 516.136719 69.9375 516.523438 70.097656 C 516.910156 70.257812 517.277344 70.453125 517.625 70.6875 C 517.972656 70.917969 518.292969 71.183594 518.589844 71.480469 C 518.882812 71.773438 519.148438 72.097656 519.378906 72.445312 C 519.613281 72.792969 519.808594 73.160156 519.96875 73.542969 C 520.128906 73.929688 520.25 74.328125 520.332031 74.738281 C 520.414062 75.148438 520.453125 75.5625 520.453125 75.980469 L 520.453125 376.777344 C 513.964844 380.003906 507.726562 383.65625 501.734375 387.734375 C 495.746094 391.8125 490.058594 396.277344 484.679688 401.128906 C 479.296875 405.984375 474.273438 411.179688 469.601562 416.71875 C 464.929688 422.257812 460.65625 428.089844 456.777344 434.210938 C 455.234375 433.800781 453.664062 433.589844 452.066406 433.574219 L 388.394531 433.574219 C 387.769531 433.574219 387.144531 433.605469 386.519531 433.667969 C 385.898438 433.726562 385.28125 433.820312 384.667969 433.941406 C 384.054688 434.0625 383.445312 434.214844 382.847656 434.398438 C 382.25 434.578125 381.660156 434.789062 381.082031 435.027344 C 380.503906 435.269531 379.941406 435.535156 379.386719 435.832031 C 378.835938 436.125 378.300781 436.445312 377.78125 436.792969 C 377.261719 437.140625 376.757812 437.515625 376.273438 437.910156 C 375.792969 438.308594 375.328125 438.726562 374.886719 439.167969 C 374.445312 439.613281 374.023438 440.074219 373.628906 440.558594 C 373.230469 441.042969 372.859375 441.542969 372.511719 442.0625 C 372.164062 442.585938 371.839844 443.121094 371.546875 443.671875 C 371.25 444.222656 370.984375 444.789062 370.746094 445.367188 C 370.503906 445.945312 370.296875 446.53125 370.113281 447.132812 C 369.933594 447.730469 369.78125 448.335938 369.65625 448.949219 C 369.535156 449.5625 369.445312 450.183594 369.382812 450.804688 C 369.320312 451.425781 369.292969 452.050781 369.292969 452.675781 L 369.292969 516.351562 C 369.292969 516.976562 369.320312 517.601562 369.382812 518.222656 C 369.445312 518.847656 369.535156 519.464844 369.65625 520.078125 C 369.78125 520.691406 369.933594 521.296875 370.113281 521.894531 C 370.296875 522.496094 370.503906 523.082031 370.746094 523.660156 C 370.984375 524.238281 371.25 524.804688 371.546875 525.355469 C 371.839844 525.90625 372.164062 526.441406 372.511719 526.964844 C 372.859375 527.484375 373.230469 527.984375 373.628906 528.46875 C 374.023438 528.953125 374.445312 529.414062 374.886719 529.859375 C 375.328125 530.300781 375.792969 530.71875 376.273438 531.117188 C 376.757812 531.515625 377.261719 531.886719 377.78125 532.234375 C 378.300781 532.582031 378.835938 532.902344 379.386719 533.199219 C 379.941406 533.492188 380.503906 533.757812 381.082031 534 C 381.660156 534.238281 382.25 534.449219 382.847656 534.628906 C 383.445312 534.8125 384.054688 534.964844 384.667969 535.085938 C 385.28125 535.207031 385.898438 535.300781 386.519531 535.359375 C 387.144531 535.421875 387.769531 535.453125 388.394531 535.453125 L 433.09375 535.453125 C 433.613281 542.050781 434.546875 548.585938 435.894531 555.066406 L 387.757812 555.066406 C 387.132812 555.066406 386.507812 555.09375 385.882812 555.15625 C 385.261719 555.21875 384.644531 555.308594 384.03125 555.429688 C 383.417969 555.554688 382.808594 555.707031 382.210938 555.886719 C 381.613281 556.070312 381.023438 556.28125 380.445312 556.519531 C 379.867188 556.757812 379.304688 557.023438 378.75 557.320312 C 378.199219 557.613281 377.664062 557.9375 377.144531 558.285156 C 376.625 558.632812 376.121094 559.003906 375.636719 559.402344 C 375.15625 559.796875 374.691406 560.21875 374.25 560.660156 C 373.808594 561.101562 373.386719 561.566406 372.992188 562.046875 C 372.59375 562.53125 372.222656 563.035156 371.875 563.554688 C 371.527344 564.074219 371.203125 564.609375 370.910156 565.164062 C 370.613281 565.714844 370.347656 566.277344 370.109375 566.855469 C 369.867188 567.433594 369.660156 568.023438 369.476562 568.621094 C 369.296875 569.21875 369.144531 569.828125 369.019531 570.441406 C 368.898438 571.054688 368.808594 571.671875 368.746094 572.292969 C 368.683594 572.917969 368.65625 573.542969 368.65625 574.167969 L 368.65625 637.839844 C 368.65625 638.464844 368.683594 639.089844 368.746094 639.714844 C 368.808594 640.335938 368.898438 640.953125 369.019531 641.566406 C 369.144531 642.179688 369.296875 642.789062 369.476562 643.386719 C 369.660156 643.984375 369.867188 644.574219 370.109375 645.152344 C 370.347656 645.730469 370.613281 646.292969 370.910156 646.84375 C 371.203125 647.398438 371.527344 647.933594 371.875 648.453125 C 372.222656 648.972656 372.59375 649.476562 372.992188 649.960938 C 373.386719 650.441406 373.808594 650.90625 374.25 651.347656 C 374.691406 651.789062 375.15625 652.210938 375.636719 652.605469 C 376.121094 653.003906 376.625 653.375 377.144531 653.722656 C 377.664062 654.070312 378.199219 654.390625 378.75 654.6875 C 379.304688 654.980469 379.867188 655.25 380.445312 655.488281 C 381.023438 655.726562 381.613281 655.9375 382.210938 656.121094 C 382.808594 656.300781 383.417969 656.453125 384.03125 656.574219 C 384.644531 656.699219 385.261719 656.789062 385.882812 656.851562 C 386.507812 656.914062 387.132812 656.941406 387.757812 656.941406 L 451.429688 656.941406 C 452.054688 656.941406 452.679688 656.914062 453.304688 656.851562 C 453.925781 656.789062 454.542969 656.699219 455.15625 656.574219 C 455.769531 656.453125 456.378906 656.300781 456.976562 656.121094 C 457.574219 655.9375 458.164062 655.726562 458.742188 655.488281 C 459.320312 655.25 459.882812 654.980469 460.433594 654.6875 C 460.988281 654.390625 461.523438 654.070312 462.042969 653.722656 C 462.5625 653.375 463.066406 653.003906 463.550781 652.605469 C 464.03125 652.210938 464.496094 651.789062 464.9375 651.347656 C 465.378906 650.90625 465.800781 650.441406 466.195312 649.960938 C 466.59375 649.476562 466.964844 648.972656 467.3125 648.453125 C 467.660156 647.933594 467.980469 647.398438 468.277344 646.84375 C 468.570312 646.292969 468.839844 645.730469 469.078125 645.152344 C 469.316406 644.574219 469.527344 643.984375 469.710938 643.386719 C 469.890625 642.789062 470.042969 642.179688 470.164062 641.566406 C 470.289062 640.953125 470.378906 640.335938 470.441406 639.714844 C 470.503906 639.089844 470.53125 638.464844 470.53125 637.839844 L 470.53125 623.070312 C 477.425781 631.003906 485.03125 638.1875 493.347656 644.617188 C 501.664062 651.046875 510.527344 656.597656 519.945312 661.273438 Z M 406.859375 497.886719 L 406.859375 472.414062 L 432.328125 472.414062 L 432.328125 497.886719 Z M 432.328125 593.523438 L 432.328125 618.992188 L 406.859375 618.992188 L 406.859375 593.269531 Z M 590.496094 639.496094 C 588.554688 639.496094 586.617188 639.445312 584.679688 639.351562 C 582.742188 639.253906 580.808594 639.113281 578.875 638.925781 C 576.945312 638.734375 575.019531 638.5 573.101562 638.21875 C 571.183594 637.933594 569.269531 637.605469 567.367188 637.230469 C 565.464844 636.855469 563.570312 636.4375 561.6875 635.96875 C 559.804688 635.503906 557.933594 634.992188 556.078125 634.433594 C 554.21875 633.878906 552.375 633.277344 550.546875 632.628906 C 548.71875 631.984375 546.90625 631.292969 545.109375 630.558594 C 543.3125 629.824219 541.535156 629.046875 539.777344 628.226562 C 538.019531 627.410156 536.285156 626.546875 534.566406 625.640625 C 532.851562 624.738281 531.15625 623.792969 529.488281 622.808594 C 527.816406 621.820312 526.171875 620.796875 524.550781 619.730469 C 522.929688 618.664062 521.335938 617.558594 519.769531 616.417969 C 518.199219 615.273438 516.660156 614.09375 515.152344 612.875 C 513.640625 611.660156 512.160156 610.40625 510.710938 609.117188 C 509.261719 607.828125 507.84375 606.503906 506.457031 605.144531 C 505.074219 603.789062 503.722656 602.398438 502.402344 600.976562 C 501.085938 599.550781 499.800781 598.097656 498.554688 596.613281 C 497.304688 595.128906 496.09375 593.613281 494.921875 592.070312 C 493.746094 590.527344 492.609375 588.953125 491.511719 587.355469 C 490.410156 585.757812 489.351562 584.132812 488.332031 582.480469 C 487.3125 580.832031 486.332031 579.15625 485.394531 577.460938 C 484.457031 575.761719 483.558594 574.042969 482.703125 572.300781 C 481.847656 570.5625 481.035156 568.800781 480.265625 567.019531 C 479.492188 565.242188 478.765625 563.441406 478.082031 561.628906 C 477.402344 559.8125 476.761719 557.980469 476.167969 556.132812 C 475.570312 554.289062 475.023438 552.429688 474.519531 550.554688 C 474.011719 548.683594 473.554688 546.796875 473.140625 544.902344 C 472.726562 543.007812 472.359375 541.101562 472.039062 539.191406 C 471.71875 537.277344 471.441406 535.355469 471.214844 533.429688 C 470.984375 531.503906 470.804688 529.574219 470.667969 527.636719 C 470.535156 525.703125 470.445312 523.765625 470.40625 521.828125 C 470.816406 520.28125 471.027344 518.710938 471.042969 517.113281 L 471.042969 506.035156 C 471.253906 504.125 471.511719 502.222656 471.8125 500.324219 C 472.117188 498.425781 472.464844 496.539062 472.859375 494.65625 C 473.253906 492.777344 473.691406 490.90625 474.175781 489.046875 C 474.65625 487.1875 475.183594 485.339844 475.757812 483.507812 C 476.328125 481.671875 476.945312 479.851562 477.601562 478.046875 C 478.261719 476.242188 478.964844 474.453125 479.707031 472.683594 C 480.453125 470.910156 481.238281 469.160156 482.070312 467.425781 C 482.898438 465.691406 483.765625 463.980469 484.679688 462.289062 C 485.589844 460.597656 486.539062 458.925781 487.53125 457.28125 C 488.523438 455.632812 489.550781 454.011719 490.621094 452.417969 C 491.6875 450.820312 492.796875 449.25 493.941406 447.707031 C 495.082031 446.160156 496.265625 444.644531 497.480469 443.160156 C 498.695312 441.671875 499.949219 440.214844 501.234375 438.789062 C 502.523438 437.359375 503.839844 435.964844 505.195312 434.601562 C 506.546875 433.238281 507.933594 431.90625 509.351562 430.609375 C 510.769531 429.3125 512.214844 428.050781 513.695312 426.820312 C 515.171875 425.59375 516.679688 424.402344 518.210938 423.246094 C 519.746094 422.089844 521.308594 420.972656 522.898438 419.890625 C 524.488281 418.808594 526.101562 417.765625 527.738281 416.761719 C 529.378906 415.757812 531.039062 414.796875 532.722656 413.871094 C 534.410156 412.949219 536.113281 412.066406 537.839844 411.222656 C 539.570312 410.382812 541.316406 409.582031 543.082031 408.824219 C 544.84375 408.0625 546.628906 407.347656 548.429688 406.675781 C 550.226562 406.003906 552.042969 405.375 553.871094 404.789062 C 555.703125 404.203125 557.546875 403.660156 559.402344 403.164062 C 561.257812 402.664062 563.125 402.210938 565 401.804688 C 566.878906 401.394531 568.765625 401.035156 570.660156 400.714844 C 572.554688 400.398438 574.457031 400.125 576.363281 399.898438 C 578.273438 399.675781 580.1875 399.492188 582.101562 399.359375 C 584.019531 399.222656 585.9375 399.136719 587.859375 399.09375 C 589.78125 399.050781 591.699219 399.054688 593.621094 399.101562 C 595.542969 399.152344 597.460938 399.246094 599.378906 399.390625 C 601.292969 399.53125 603.203125 399.71875 605.113281 399.953125 C 607.019531 400.183594 608.921875 400.464844 610.8125 400.789062 C 612.707031 401.113281 614.59375 401.480469 616.46875 401.894531 C 618.34375 402.308594 620.210938 402.769531 622.066406 403.273438 C 623.917969 403.777344 625.757812 404.324219 627.585938 404.917969 C 629.414062 405.511719 631.226562 406.148438 633.027344 406.824219 C 634.824219 407.503906 636.601562 408.226562 638.367188 408.992188 C 640.128906 409.757812 641.871094 410.5625 643.597656 411.410156 C 645.320312 412.257812 647.023438 413.148438 648.703125 414.078125 C 650.386719 415.007812 652.042969 415.976562 653.679688 416.988281 C 655.3125 417.996094 656.921875 419.042969 658.507812 420.128906 C 660.09375 421.21875 661.652344 422.339844 663.179688 423.503906 C 664.710938 424.664062 666.214844 425.859375 667.6875 427.09375 C 669.160156 428.328125 670.605469 429.59375 672.015625 430.898438 C 673.429688 432.199219 674.808594 433.535156 676.160156 434.90625 C 677.507812 436.273438 678.824219 437.671875 680.105469 439.105469 C 681.386719 440.535156 682.632812 442 683.84375 443.488281 C 685.054688 444.980469 686.230469 446.5 687.367188 448.050781 C 688.507812 449.597656 689.605469 451.171875 690.671875 452.773438 C 691.734375 454.371094 692.757812 455.996094 693.742188 457.648438 C 694.726562 459.296875 695.671875 460.96875 696.578125 462.664062 C 697.480469 464.359375 698.347656 466.074219 699.167969 467.8125 C 699.992188 469.546875 700.773438 471.304688 701.511719 473.078125 C 702.25 474.851562 702.945312 476.640625 703.597656 478.449219 C 704.25 480.253906 704.859375 482.078125 705.421875 483.914062 C 705.988281 485.75 706.511719 487.597656 706.988281 489.460938 C 707.464844 491.320312 707.894531 493.195312 708.28125 495.074219 C 708.667969 496.957031 709.011719 498.847656 709.304688 500.746094 C 709.601562 502.644531 709.851562 504.550781 710.058594 506.460938 C 710.261719 508.371094 710.421875 510.285156 710.535156 512.203125 C 710.648438 514.121094 710.714844 516.039062 710.738281 517.960938 C 710.757812 519.882812 710.734375 521.804688 710.660156 523.722656 C 710.589844 525.644531 710.472656 527.5625 710.308594 529.476562 C 710.148438 531.390625 709.9375 533.300781 709.683594 535.203125 C 709.429688 537.109375 709.128906 539.007812 708.785156 540.894531 C 708.4375 542.785156 708.046875 544.667969 707.613281 546.539062 C 707.175781 548.410156 706.695312 550.269531 706.171875 552.117188 C 705.648438 553.964844 705.078125 555.800781 704.464844 557.621094 C 703.851562 559.445312 703.195312 561.25 702.496094 563.039062 C 701.796875 564.828125 701.054688 566.601562 700.269531 568.355469 C 699.488281 570.109375 698.660156 571.84375 697.792969 573.558594 C 696.925781 575.269531 696.015625 576.964844 695.070312 578.636719 C 694.121094 580.304688 693.132812 581.953125 692.105469 583.578125 C 691.078125 585.199219 690.011719 586.796875 688.90625 588.371094 C 687.800781 589.941406 686.660156 591.488281 685.480469 593.003906 C 684.304688 594.523438 683.089844 596.011719 681.839844 597.472656 C 680.589844 598.929688 679.304688 600.359375 677.988281 601.757812 C 676.671875 603.15625 675.320312 604.519531 673.933594 605.855469 C 672.550781 607.1875 671.136719 608.488281 669.691406 609.75 C 668.246094 611.015625 666.769531 612.246094 665.265625 613.441406 C 663.757812 614.636719 662.226562 615.792969 660.664062 616.914062 C 659.105469 618.035156 657.519531 619.117188 655.90625 620.164062 C 654.292969 621.207031 652.65625 622.214844 650.996094 623.179688 C 649.335938 624.148438 647.652344 625.074219 645.949219 625.960938 C 644.242188 626.84375 642.519531 627.691406 640.773438 628.492188 C 639.027344 629.296875 637.261719 630.054688 635.480469 630.773438 C 633.699219 631.492188 631.902344 632.167969 630.085938 632.800781 C 628.273438 633.433594 626.441406 634.023438 624.601562 634.566406 C 622.757812 635.109375 620.902344 635.609375 619.035156 636.066406 C 617.167969 636.523438 615.292969 636.933594 613.40625 637.300781 C 611.519531 637.664062 609.625 637.984375 607.726562 638.261719 C 605.824219 638.535156 603.917969 638.765625 602.003906 638.949219 C 600.089844 639.128906 598.175781 639.269531 596.253906 639.359375 C 594.335938 639.453125 592.417969 639.496094 590.496094 639.496094 Z M 577.761719 485.660156 C 576.742188 502.46875 600.9375 501.449219 611.378906 506.289062 C 613.304688 507.203125 615.171875 508.222656 616.984375 509.347656 C 619.753906 510.992188 622.335938 512.894531 624.734375 515.046875 C 627.128906 517.199219 629.296875 519.5625 631.230469 522.140625 C 633.164062 524.71875 634.828125 527.460938 636.222656 530.363281 C 637.617188 533.269531 638.71875 536.28125 639.523438 539.402344 C 639.898438 540.863281 640.210938 542.339844 640.457031 543.828125 C 640.703125 545.316406 640.882812 546.8125 640.992188 548.320312 C 641.105469 549.824219 641.152344 551.332031 641.128906 552.839844 C 641.109375 554.351562 641.019531 555.855469 640.863281 557.359375 C 640.710938 558.859375 640.488281 560.351562 640.199219 561.832031 C 639.910156 563.3125 639.558594 564.78125 639.140625 566.230469 C 638.722656 567.679688 638.238281 569.109375 637.695312 570.515625 C 637.148438 571.925781 636.542969 573.304688 635.875 574.660156 C 635.207031 576.011719 634.480469 577.332031 633.695312 578.621094 C 632.90625 579.910156 632.066406 581.164062 631.171875 582.378906 C 630.273438 583.589844 629.324219 584.765625 628.324219 585.894531 C 627.320312 587.023438 626.273438 588.105469 625.175781 589.144531 C 624.078125 590.179688 622.9375 591.164062 621.753906 592.101562 C 620.566406 593.035156 619.34375 593.917969 618.078125 594.742188 C 616.816406 595.570312 615.519531 596.335938 614.1875 597.046875 C 612.855469 597.757812 611.496094 598.410156 610.105469 599 L 610.105469 610.714844 C 610.105469 611.339844 610.074219 611.964844 610.015625 612.589844 C 609.953125 613.210938 609.859375 613.828125 609.738281 614.441406 C 609.617188 615.054688 609.464844 615.664062 609.285156 616.261719 C 609.101562 616.859375 608.890625 617.449219 608.652344 618.027344 C 608.414062 618.605469 608.144531 619.167969 607.851562 619.71875 C 607.554688 620.273438 607.234375 620.808594 606.886719 621.328125 C 606.539062 621.847656 606.167969 622.351562 605.769531 622.835938 C 605.375 623.316406 604.953125 623.78125 604.511719 624.222656 C 604.070312 624.664062 603.605469 625.085938 603.121094 625.480469 C 602.640625 625.878906 602.136719 626.25 601.617188 626.597656 C 601.097656 626.945312 600.558594 627.265625 600.007812 627.5625 C 599.457031 627.855469 598.890625 628.125 598.3125 628.363281 C 597.734375 628.601562 597.148438 628.8125 596.550781 628.996094 C 595.949219 629.175781 595.34375 629.328125 594.730469 629.449219 C 594.117188 629.574219 593.5 629.664062 592.875 629.726562 C 592.253906 629.789062 591.628906 629.816406 591.003906 629.816406 C 590.378906 629.816406 589.753906 629.789062 589.132812 629.726562 C 588.507812 629.664062 587.890625 629.574219 587.277344 629.449219 C 586.664062 629.328125 586.058594 629.175781 585.457031 628.996094 C 584.859375 628.8125 584.273438 628.601562 583.695312 628.363281 C 583.117188 628.125 582.550781 627.855469 582 627.5625 C 581.449219 627.265625 580.910156 626.945312 580.390625 626.597656 C 579.871094 626.25 579.371094 625.878906 578.886719 625.480469 C 578.402344 625.085938 577.9375 624.664062 577.496094 624.222656 C 577.054688 623.78125 576.632812 623.316406 576.238281 622.835938 C 575.839844 622.351562 575.46875 621.847656 575.121094 621.328125 C 574.773438 620.808594 574.453125 620.273438 574.15625 619.71875 C 573.863281 619.167969 573.59375 618.605469 573.355469 618.027344 C 573.117188 617.449219 572.90625 616.859375 572.722656 616.261719 C 572.542969 615.664062 572.390625 615.054688 572.269531 614.441406 C 572.148438 613.828125 572.054688 613.210938 571.992188 612.589844 C 571.933594 611.964844 571.902344 611.339844 571.902344 610.714844 L 571.902344 600.65625 C 569.984375 600.027344 568.109375 599.289062 566.28125 598.441406 C 564.449219 597.59375 562.671875 596.644531 560.953125 595.589844 C 559.230469 594.535156 557.578125 593.386719 555.992188 592.140625 C 554.40625 590.894531 552.894531 589.5625 551.464844 588.140625 C 550.03125 586.71875 548.6875 585.222656 547.429688 583.644531 C 546.171875 582.066406 545.007812 580.421875 543.941406 578.707031 C 542.875 576.996094 541.910156 575.226562 541.050781 573.402344 C 540.1875 571.578125 539.433594 569.710938 538.792969 567.800781 C 538.582031 567.207031 538.402344 566.605469 538.253906 565.996094 C 538.105469 565.386719 537.984375 564.769531 537.898438 564.148438 C 537.808594 563.527344 537.75 562.902344 537.722656 562.277344 C 537.695312 561.648438 537.695312 561.019531 537.730469 560.394531 C 537.765625 559.765625 537.828125 559.144531 537.925781 558.523438 C 538.019531 557.902344 538.144531 557.289062 538.300781 556.679688 C 538.457031 556.070312 538.640625 555.472656 538.855469 554.882812 C 539.070312 554.292969 539.3125 553.714844 539.585938 553.148438 C 539.855469 552.582031 540.15625 552.03125 540.480469 551.492188 C 540.804688 550.957031 541.15625 550.4375 541.535156 549.933594 C 541.910156 549.429688 542.3125 548.949219 542.734375 548.484375 C 543.160156 548.023438 543.605469 547.582031 544.070312 547.160156 C 544.539062 546.742188 545.027344 546.347656 545.53125 545.976562 C 546.039062 545.605469 546.5625 545.257812 547.101562 544.9375 C 547.640625 544.617188 548.195312 544.324219 548.765625 544.058594 C 549.335938 543.792969 549.914062 543.558594 550.507812 543.347656 C 551.101562 543.140625 551.699219 542.960938 552.3125 542.8125 C 552.921875 542.660156 553.535156 542.542969 554.15625 542.453125 C 554.777344 542.363281 555.402344 542.304688 556.03125 542.277344 C 556.65625 542.25 557.285156 542.253906 557.914062 542.289062 C 558.539062 542.324219 559.164062 542.386719 559.785156 542.480469 C 560.402344 542.578125 561.019531 542.703125 561.628906 542.859375 C 562.234375 543.015625 562.835938 543.199219 563.425781 543.414062 C 564.015625 543.628906 564.59375 543.871094 565.160156 544.144531 C 565.726562 544.414062 566.277344 544.710938 566.8125 545.039062 C 567.351562 545.363281 567.871094 545.714844 568.371094 546.089844 C 568.875 546.46875 569.359375 546.867188 569.820312 547.292969 C 570.285156 547.714844 570.726562 548.160156 571.144531 548.628906 C 571.5625 549.097656 571.960938 549.582031 572.332031 550.089844 C 572.703125 550.59375 573.046875 551.117188 573.367188 551.660156 C 573.6875 552.199219 573.980469 552.753906 574.246094 553.324219 C 574.511719 553.890625 574.75 554.472656 574.957031 555.066406 C 575.15625 555.789062 575.417969 556.488281 575.738281 557.164062 C 576.058594 557.839844 576.4375 558.484375 576.875 559.09375 C 577.308594 559.707031 577.796875 560.273438 578.332031 560.796875 C 578.867188 561.320312 579.445312 561.792969 580.0625 562.21875 C 580.683594 562.640625 581.332031 563.003906 582.015625 563.3125 C 582.699219 563.621094 583.40625 563.863281 584.132812 564.046875 C 584.859375 564.230469 585.597656 564.347656 586.34375 564.402344 C 587.09375 564.453125 587.839844 564.441406 588.585938 564.359375 C 598.261719 563.722656 606.414062 551.625 599.152344 543.09375 C 597.851562 541.789062 596.371094 540.730469 594.710938 539.921875 C 593.054688 539.113281 591.308594 538.601562 589.476562 538.382812 C 561.203125 532.90625 536.625 513.550781 538.535156 482.222656 C 538.699219 479.804688 539.027344 477.410156 539.527344 475.039062 C 540.023438 472.667969 540.683594 470.339844 541.503906 468.0625 C 542.324219 465.78125 543.300781 463.570312 544.429688 461.425781 C 545.5625 459.28125 546.835938 457.226562 548.25 455.261719 C 549.667969 453.296875 551.214844 451.4375 552.890625 449.6875 C 554.566406 447.941406 556.355469 446.316406 558.257812 444.816406 C 560.164062 443.3125 562.160156 441.953125 564.253906 440.730469 C 566.347656 439.511719 568.511719 438.441406 570.753906 437.523438 L 570.753906 427.714844 C 570.753906 427.089844 570.785156 426.46875 570.847656 425.84375 C 570.910156 425.222656 571 424.601562 571.121094 423.988281 C 571.246094 423.375 571.398438 422.769531 571.578125 422.171875 C 571.761719 421.574219 571.96875 420.984375 572.210938 420.40625 C 572.449219 419.828125 572.714844 419.261719 573.011719 418.710938 C 573.304688 418.160156 573.628906 417.625 573.976562 417.105469 C 574.324219 416.582031 574.695312 416.082031 575.089844 415.597656 C 575.488281 415.113281 575.910156 414.652344 576.351562 414.210938 C 576.792969 413.765625 577.257812 413.347656 577.738281 412.949219 C 578.222656 412.554688 578.726562 412.179688 579.246094 411.832031 C 579.765625 411.484375 580.300781 411.164062 580.851562 410.871094 C 581.40625 410.574219 581.96875 410.308594 582.546875 410.070312 C 583.125 409.828125 583.714844 409.617188 584.3125 409.4375 C 584.910156 409.253906 585.519531 409.101562 586.132812 408.980469 C 586.746094 408.859375 587.363281 408.769531 587.984375 408.707031 C 588.609375 408.644531 589.230469 408.613281 589.859375 408.613281 C 590.484375 408.613281 591.109375 408.644531 591.730469 408.707031 C 592.351562 408.769531 592.972656 408.859375 593.585938 408.980469 C 594.199219 409.101562 594.804688 409.253906 595.402344 409.4375 C 596 409.617188 596.589844 409.828125 597.167969 410.070312 C 597.746094 410.308594 598.3125 410.574219 598.863281 410.871094 C 599.414062 411.164062 599.949219 411.484375 600.46875 411.832031 C 600.992188 412.179688 601.492188 412.554688 601.976562 412.949219 C 602.460938 413.347656 602.921875 413.765625 603.363281 414.210938 C 603.808594 414.652344 604.226562 415.113281 604.625 415.597656 C 605.019531 416.082031 605.394531 416.582031 605.742188 417.105469 C 606.089844 417.625 606.410156 418.160156 606.703125 418.710938 C 607 419.261719 607.265625 419.828125 607.507812 420.40625 C 607.746094 420.984375 607.957031 421.574219 608.136719 422.171875 C 608.320312 422.769531 608.472656 423.375 608.59375 423.988281 C 608.714844 424.601562 608.808594 425.222656 608.867188 425.84375 C 608.929688 426.46875 608.960938 427.089844 608.960938 427.714844 L 608.960938 438.285156 C 612.742188 439.6875 616.308594 441.511719 619.65625 443.761719 C 622.660156 445.867188 625.40625 448.265625 627.902344 450.949219 C 630.394531 453.636719 632.582031 456.554688 634.457031 459.707031 C 636.335938 462.855469 637.859375 466.167969 639.035156 469.640625 C 640.210938 473.113281 641.011719 476.667969 641.433594 480.3125 C 641.511719 480.9375 641.558594 481.566406 641.574219 482.195312 C 641.589844 482.824219 641.574219 483.453125 641.527344 484.082031 C 641.480469 484.710938 641.402344 485.335938 641.296875 485.957031 C 641.1875 486.578125 641.050781 487.191406 640.882812 487.800781 C 640.714844 488.410156 640.515625 489.007812 640.289062 489.59375 C 640.0625 490.183594 639.808594 490.757812 639.523438 491.320312 C 639.238281 491.882812 638.929688 492.433594 638.59375 492.964844 C 638.253906 493.496094 637.894531 494.011719 637.503906 494.507812 C 637.117188 495.003906 636.707031 495.480469 636.269531 495.9375 C 635.835938 496.394531 635.378906 496.828125 634.902344 497.242188 C 634.425781 497.652344 633.929688 498.039062 633.414062 498.402344 C 632.898438 498.765625 632.367188 499.101562 631.816406 499.414062 C 631.269531 499.722656 630.707031 500.007812 630.132812 500.261719 C 629.554688 500.519531 628.96875 500.746094 628.367188 500.941406 C 627.769531 501.140625 627.164062 501.308594 626.546875 501.445312 C 625.933594 501.585938 625.3125 501.691406 624.6875 501.769531 C 624.0625 501.847656 623.433594 501.894531 622.804688 501.910156 C 622.171875 501.925781 621.542969 501.910156 620.914062 501.863281 C 620.285156 501.816406 619.664062 501.738281 619.042969 501.628906 C 618.421875 501.523438 617.804688 501.386719 617.199219 501.21875 C 616.589844 501.050781 615.992188 500.851562 615.40625 500.625 C 614.816406 500.398438 614.242188 500.140625 613.679688 499.859375 C 613.113281 499.574219 612.566406 499.265625 612.035156 498.929688 C 611.5 498.589844 610.988281 498.226562 610.488281 497.839844 C 609.992188 497.453125 609.515625 497.042969 609.058594 496.605469 C 608.601562 496.171875 608.167969 495.714844 607.757812 495.238281 C 607.347656 494.761719 606.957031 494.265625 606.59375 493.75 C 606.234375 493.234375 605.894531 492.703125 605.585938 492.152344 C 605.273438 491.605469 604.992188 491.042969 604.734375 490.46875 C 604.480469 489.890625 604.253906 489.304688 604.054688 488.703125 C 603.859375 488.105469 603.691406 487.5 603.550781 486.882812 C 603.414062 486.269531 603.304688 485.648438 603.230469 485.023438 C 603.117188 484.054688 602.902344 483.109375 602.585938 482.183594 C 602.269531 481.261719 601.859375 480.382812 601.351562 479.546875 C 600.847656 478.710938 600.257812 477.941406 599.585938 477.230469 C 598.917969 476.523438 598.179688 475.894531 597.371094 475.34375 C 596.558594 474.796875 595.699219 474.339844 594.789062 473.972656 C 593.878906 473.605469 592.941406 473.34375 591.976562 473.175781 C 591.007812 473.011719 590.035156 472.953125 589.054688 472.996094 C 588.078125 473.039062 587.113281 473.183594 586.164062 473.433594 C 584.863281 473.871094 583.652344 474.492188 582.535156 475.289062 C 581.414062 476.085938 580.4375 477.027344 579.597656 478.117188 C 578.757812 479.203125 578.09375 480.390625 577.609375 481.675781 C 577.121094 482.960938 576.832031 484.289062 576.742188 485.660156 Z M 577.761719 485.660156 " fill-opacity="1" fill-rule="nonzero"/></g></svg>