<svg xmlns="http://www.w3.org/2000/svg" xmlns:xlink="http://www.w3.org/1999/xlink" width="1024" zoomAndPan="magnify" viewBox="0 0 768 767.999994" height="1024" preserveAspectRatio="xMidYMid meet" version="1.0"><defs><clipPath id="de52411dbf"><path d="M 61 31.664062 L 707 31.664062 L 707 257 L 61 257 Z M 61 31.664062 " clip-rule="nonzero"/></clipPath><clipPath id="3f458cbc59"><path d="M 18.121094 675 L 750 675 L 750 723.164062 L 18.121094 723.164062 Z M 18.121094 675 " clip-rule="nonzero"/></clipPath></defs><g clip-path="url(#de52411dbf)"><path fill="#027f5b" d="M 706.644531 173.59375 L 706.613281 173.59375 L 545.304688 102.628906 L 384 31.664062 L 222.691406 102.628906 L 61.386719 173.59375 L 61.355469 173.59375 L 61.355469 256.113281 L 706.644531 256.113281 Z M 706.644531 173.59375 " fill-opacity="1" fill-rule="nonzero"/></g><path fill="#027f5b" d="M 124.890625 558.128906 C 115.320312 558.128906 107.5625 565.886719 107.5625 575.457031 C 107.5625 585.027344 115.320312 592.785156 124.890625 592.785156 L 227.214844 592.785156 C 236.785156 592.785156 244.542969 585.027344 244.542969 575.457031 C 244.542969 565.886719 236.785156 558.128906 227.214844 558.128906 L 221.4375 558.128906 L 221.4375 310.574219 L 227.214844 310.574219 C 236.785156 310.574219 244.542969 302.816406 244.542969 293.246094 C 244.542969 283.675781 236.785156 275.917969 227.214844 275.917969 L 124.890625 275.917969 C 115.320312 275.917969 107.5625 283.675781 107.5625 293.246094 C 107.5625 302.816406 115.320312 310.574219 124.890625 310.574219 L 130.667969 310.574219 L 130.667969 558.128906 Z M 124.890625 558.128906 " fill-opacity="1" fill-rule="nonzero"/><path fill="#027f5b" d="M 332.835938 558.128906 C 323.265625 558.128906 315.507812 565.886719 315.507812 575.457031 C 315.507812 585.027344 323.265625 592.785156 332.835938 592.785156 L 435.160156 592.785156 C 444.730469 592.785156 452.488281 585.027344 452.488281 575.457031 C 452.488281 565.886719 444.730469 558.128906 435.160156 558.128906 L 429.382812 558.128906 L 429.382812 310.574219 L 435.160156 310.574219 C 444.730469 310.574219 452.488281 302.816406 452.488281 293.246094 C 452.488281 283.675781 444.730469 275.917969 435.160156 275.917969 L 332.835938 275.917969 C 323.265625 275.917969 315.507812 283.675781 315.507812 293.246094 C 315.507812 302.816406 323.265625 310.574219 332.835938 310.574219 L 338.613281 310.574219 L 338.613281 558.128906 Z M 332.835938 558.128906 " fill-opacity="1" fill-rule="nonzero"/><path fill="#027f5b" d="M 544.082031 558.128906 C 534.511719 558.128906 526.753906 565.886719 526.753906 575.457031 C 526.753906 585.027344 534.511719 592.785156 544.082031 592.785156 L 646.40625 592.785156 C 655.976562 592.785156 663.734375 585.027344 663.734375 575.457031 C 663.734375 565.886719 655.976562 558.128906 646.40625 558.128906 L 640.628906 558.128906 L 640.628906 310.574219 L 646.40625 310.574219 C 655.976562 310.574219 663.734375 302.816406 663.734375 293.246094 C 663.734375 283.675781 655.976562 275.917969 646.40625 275.917969 L 544.082031 275.917969 C 534.511719 275.917969 526.753906 283.675781 526.753906 293.246094 C 526.753906 302.816406 534.511719 310.574219 544.082031 310.574219 L 549.859375 310.574219 L 549.859375 558.128906 Z M 544.082031 558.128906 " fill-opacity="1" fill-rule="nonzero"/><path fill="#027f5b" d="M 61.371094 629.09375 L 61.371094 638.996094 C 61.371094 648.109375 68.757812 655.5 77.875 655.5 L 690.125 655.5 C 699.238281 655.5 706.628906 648.109375 706.628906 638.996094 L 706.628906 629.09375 C 706.628906 619.980469 699.238281 612.589844 690.125 612.589844 L 77.875 612.589844 C 68.757812 612.589844 61.371094 619.980469 61.371094 629.09375 Z M 61.371094 629.09375 " fill-opacity="1" fill-rule="nonzero"/><g clip-path="url(#3f458cbc59)"><path fill="#027f5b" d="M 733.050781 675.304688 L 34.949219 675.304688 C 25.832031 675.304688 18.445312 682.695312 18.445312 691.808594 L 18.445312 706.660156 C 18.445312 715.773438 25.832031 723.164062 34.949219 723.164062 L 733.050781 723.164062 C 742.164062 723.164062 749.554688 715.773438 749.554688 706.660156 L 749.554688 691.808594 C 749.554688 682.691406 742.164062 675.304688 733.050781 675.304688 Z M 733.050781 675.304688 " fill-opacity="1" fill-rule="nonzero"/></g></svg>