<svg xmlns="http://www.w3.org/2000/svg" xmlns:xlink="http://www.w3.org/1999/xlink" width="1024" zoomAndPan="magnify" viewBox="0 0 768 767.999994" height="1024" preserveAspectRatio="xMidYMid meet" version="1.0"><defs><clipPath id="33dd3ca0b3"><path d="M 38 31.664062 L 730 31.664062 L 730 723.164062 L 38 723.164062 Z M 38 31.664062 " clip-rule="nonzero"/></clipPath></defs><g clip-path="url(#33dd3ca0b3)"><path fill="#027f5b" d="M 695.042969 632.5 L 695.042969 583.136719 C 696.269531 582.824219 697.480469 582.464844 698.671875 582.050781 C 699.867188 581.640625 701.042969 581.183594 702.199219 580.671875 C 703.359375 580.164062 704.492188 579.609375 705.601562 579.007812 C 706.714844 578.40625 707.796875 577.757812 708.855469 577.066406 C 709.914062 576.375 710.9375 575.640625 711.9375 574.863281 C 712.933594 574.089844 713.894531 573.273438 714.824219 572.414062 C 715.753906 571.558594 716.648438 570.667969 717.503906 569.738281 C 718.359375 568.804688 719.171875 567.84375 719.949219 566.84375 C 720.722656 565.847656 721.457031 564.820312 722.148438 563.761719 C 722.839844 562.703125 723.484375 561.621094 724.085938 560.507812 C 724.6875 559.398438 725.242188 558.261719 725.75 557.105469 C 726.257812 555.949219 726.714844 554.773438 727.125 553.578125 C 727.535156 552.382812 727.894531 551.171875 728.203125 549.945312 C 728.515625 548.722656 728.773438 547.484375 728.980469 546.238281 C 729.191406 544.992188 729.347656 543.738281 729.449219 542.480469 C 729.554688 541.222656 729.605469 539.960938 729.605469 538.695312 C 729.605469 537.433594 729.554688 536.171875 729.449219 534.914062 C 729.347656 533.652344 729.191406 532.402344 728.980469 531.152344 C 728.773438 529.90625 728.515625 528.671875 728.203125 527.445312 C 727.894531 526.222656 727.535156 525.011719 727.125 523.816406 C 726.714844 522.621094 726.257812 521.445312 725.75 520.289062 C 725.242188 519.132812 724.6875 517.996094 724.085938 516.886719 C 723.484375 515.773438 722.839844 514.6875 722.148438 513.632812 C 721.457031 512.574219 720.722656 511.546875 719.949219 510.546875 C 719.171875 509.550781 718.359375 508.585938 717.503906 507.65625 C 716.648438 506.726562 715.753906 505.832031 714.824219 504.976562 C 713.894531 504.121094 712.933594 503.304688 711.9375 502.527344 C 710.9375 501.75 709.914062 501.019531 708.855469 500.324219 C 707.796875 499.632812 706.714844 498.988281 705.601562 498.386719 C 704.492188 497.785156 703.359375 497.226562 702.199219 496.71875 C 701.042969 496.210938 699.867188 495.75 698.671875 495.339844 C 697.480469 494.929688 696.269531 494.570312 695.042969 494.257812 L 695.042969 423.496094 C 695.042969 422.738281 694.96875 421.988281 694.824219 421.246094 C 694.675781 420.503906 694.457031 419.785156 694.167969 419.085938 C 693.878906 418.386719 693.523438 417.722656 693.101562 417.09375 C 692.683594 416.464844 692.203125 415.882812 691.671875 415.347656 C 691.136719 414.8125 690.554688 414.335938 689.925781 413.914062 C 689.296875 413.496094 688.632812 413.140625 687.933594 412.851562 C 687.234375 412.5625 686.511719 412.34375 685.769531 412.195312 C 685.03125 412.046875 684.28125 411.972656 683.523438 411.972656 L 591.363281 411.972656 L 591.363281 329.691406 C 592.585938 329.378906 593.796875 329.019531 594.992188 328.609375 C 596.1875 328.195312 597.363281 327.738281 598.519531 327.230469 C 599.675781 326.722656 600.808594 326.164062 601.921875 325.5625 C 603.03125 324.960938 604.117188 324.316406 605.171875 323.625 C 606.230469 322.929688 607.257812 322.195312 608.253906 321.421875 C 609.25 320.644531 610.214844 319.828125 611.144531 318.972656 C 612.074219 318.113281 612.964844 317.222656 613.820312 316.292969 C 614.675781 315.363281 615.492188 314.398438 616.265625 313.402344 C 617.042969 312.402344 617.777344 311.375 618.46875 310.316406 C 619.15625 309.261719 619.804688 308.175781 620.40625 307.0625 C 621.003906 305.953125 621.558594 304.816406 622.066406 303.660156 C 622.574219 302.503906 623.03125 301.328125 623.441406 300.132812 C 623.851562 298.9375 624.214844 297.726562 624.523438 296.5 C 624.832031 295.277344 625.09375 294.042969 625.300781 292.796875 C 625.507812 291.546875 625.664062 290.296875 625.769531 289.035156 C 625.871094 287.777344 625.925781 286.515625 625.925781 285.253906 C 625.925781 283.988281 625.871094 282.726562 625.769531 281.46875 C 625.664062 280.207031 625.507812 278.957031 625.300781 277.710938 C 625.09375 276.464844 624.832031 275.226562 624.523438 274.003906 C 624.214844 272.777344 623.851562 271.566406 623.441406 270.371094 C 623.03125 269.175781 622.574219 268 622.066406 266.84375 C 621.558594 265.6875 621.003906 264.550781 620.40625 263.441406 C 619.804688 262.328125 619.15625 261.246094 618.46875 260.1875 C 617.777344 259.128906 617.042969 258.101562 616.265625 257.105469 C 615.492188 256.105469 614.675781 255.140625 613.820312 254.210938 C 612.964844 253.28125 612.074219 252.390625 611.144531 251.535156 C 610.214844 250.675781 609.25 249.859375 608.253906 249.085938 C 607.257812 248.308594 606.230469 247.574219 605.171875 246.882812 C 604.117188 246.191406 603.03125 245.542969 601.921875 244.941406 C 600.808594 244.339844 599.675781 243.785156 598.519531 243.277344 C 597.363281 242.765625 596.1875 242.308594 594.992188 241.894531 C 593.796875 241.484375 592.585938 241.125 591.363281 240.8125 L 591.363281 181.570312 C 591.363281 180.8125 591.289062 180.066406 591.140625 179.324219 C 590.992188 178.582031 590.773438 177.859375 590.484375 177.160156 C 590.195312 176.464844 589.839844 175.800781 589.421875 175.171875 C 589 174.542969 588.523438 173.960938 587.988281 173.425781 C 587.453125 172.890625 586.871094 172.410156 586.242188 171.992188 C 585.613281 171.570312 584.949219 171.214844 584.25 170.925781 C 583.550781 170.636719 582.832031 170.417969 582.089844 170.273438 C 581.347656 170.125 580.597656 170.050781 579.84375 170.050781 L 395.519531 170.050781 L 395.519531 122.328125 C 396.414062 122.097656 397.300781 121.839844 398.183594 121.554688 C 399.0625 121.269531 399.933594 120.957031 400.792969 120.621094 C 401.65625 120.285156 402.503906 119.921875 403.34375 119.535156 C 404.183594 119.144531 405.011719 118.734375 405.824219 118.292969 C 406.640625 117.855469 407.441406 117.394531 408.226562 116.910156 C 409.011719 116.421875 409.785156 115.914062 410.539062 115.378906 C 411.296875 114.847656 412.035156 114.292969 412.757812 113.714844 C 413.480469 113.136719 414.183594 112.539062 414.871094 111.921875 C 415.558594 111.300781 416.226562 110.660156 416.875 110 C 417.519531 109.339844 418.148438 108.664062 418.757812 107.964844 C 419.363281 107.269531 419.949219 106.554688 420.511719 105.820312 C 421.078125 105.085938 421.617188 104.339844 422.136719 103.574219 C 422.65625 102.808594 423.152344 102.027344 423.625 101.230469 C 424.097656 100.4375 424.542969 99.628906 424.96875 98.804688 C 425.390625 97.984375 425.789062 97.148438 426.160156 96.304688 C 426.535156 95.457031 426.882812 94.601562 427.203125 93.734375 C 427.527344 92.867188 427.820312 91.992188 428.089844 91.105469 C 428.359375 90.222656 428.601562 89.328125 428.816406 88.429688 C 429.03125 87.53125 429.21875 86.625 429.378906 85.714844 C 429.539062 84.804688 429.671875 83.890625 429.777344 82.96875 C 429.882812 82.050781 429.960938 81.132812 430.011719 80.207031 C 430.0625 79.285156 430.085938 78.359375 430.078125 77.433594 C 430.074219 76.511719 430.039062 75.585938 429.980469 74.664062 C 429.917969 73.742188 429.828125 72.820312 429.710938 71.902344 C 429.597656 70.988281 429.453125 70.074219 429.28125 69.164062 C 429.109375 68.257812 428.910156 67.351562 428.683594 66.457031 C 428.457031 65.558594 428.207031 64.671875 427.925781 63.789062 C 427.648438 62.90625 427.339844 62.035156 427.007812 61.171875 C 426.675781 60.308594 426.320312 59.457031 425.9375 58.613281 C 425.554688 57.773438 425.144531 56.945312 424.710938 56.128906 C 424.28125 55.308594 423.820312 54.507812 423.339844 53.71875 C 422.859375 52.929688 422.355469 52.152344 421.824219 51.394531 C 421.296875 50.636719 420.746094 49.894531 420.175781 49.167969 C 419.601562 48.441406 419.007812 47.734375 418.390625 47.042969 C 417.777344 46.351562 417.140625 45.679688 416.484375 45.027344 C 415.828125 44.378906 415.15625 43.746094 414.460938 43.132812 C 413.765625 42.523438 413.054688 41.933594 412.324219 41.363281 C 411.597656 40.796875 410.851562 40.25 410.089844 39.726562 C 409.328125 39.203125 408.550781 38.703125 407.757812 38.226562 C 406.964844 37.75 406.160156 37.296875 405.339844 36.867188 C 404.519531 36.441406 403.6875 36.039062 402.84375 35.660156 C 402 35.28125 401.144531 34.929688 400.28125 34.601562 C 399.414062 34.273438 398.539062 33.972656 397.65625 33.699219 C 396.773438 33.425781 395.882812 33.179688 394.984375 32.957031 C 394.085938 32.738281 393.183594 32.542969 392.273438 32.378906 C 391.363281 32.210938 390.449219 32.074219 389.53125 31.964844 C 388.613281 31.851562 387.695312 31.769531 386.769531 31.714844 C 385.847656 31.65625 384.921875 31.628906 384 31.628906 C 383.074219 31.628906 382.148438 31.65625 381.226562 31.714844 C 380.304688 31.769531 379.382812 31.851562 378.464844 31.964844 C 377.546875 32.074219 376.632812 32.210938 375.722656 32.378906 C 374.8125 32.542969 373.910156 32.738281 373.011719 32.957031 C 372.113281 33.179688 371.222656 33.425781 370.339844 33.699219 C 369.457031 33.972656 368.582031 34.273438 367.71875 34.601562 C 366.851562 34.929688 366 35.28125 365.152344 35.660156 C 364.308594 36.039062 363.480469 36.441406 362.660156 36.867188 C 361.839844 37.296875 361.035156 37.75 360.242188 38.226562 C 359.449219 38.703125 358.671875 39.203125 357.910156 39.726562 C 357.148438 40.25 356.402344 40.796875 355.671875 41.363281 C 354.941406 41.933594 354.230469 42.523438 353.535156 43.132812 C 352.84375 43.746094 352.167969 44.378906 351.511719 45.027344 C 350.855469 45.679688 350.21875 46.351562 349.605469 47.042969 C 348.988281 47.734375 348.394531 48.441406 347.824219 49.167969 C 347.25 49.894531 346.699219 50.636719 346.171875 51.394531 C 345.644531 52.152344 345.136719 52.929688 344.65625 53.71875 C 344.175781 54.507812 343.71875 55.308594 343.285156 56.128906 C 342.851562 56.945312 342.445312 57.773438 342.0625 58.613281 C 341.675781 59.457031 341.320312 60.308594 340.988281 61.171875 C 340.65625 62.035156 340.351562 62.90625 340.070312 63.789062 C 339.792969 64.671875 339.539062 65.558594 339.3125 66.457031 C 339.085938 67.351562 338.890625 68.257812 338.71875 69.164062 C 338.546875 70.074219 338.402344 70.988281 338.285156 71.902344 C 338.167969 72.820312 338.078125 73.742188 338.019531 74.664062 C 337.957031 75.585938 337.925781 76.511719 337.917969 77.433594 C 337.914062 78.359375 337.9375 79.285156 337.984375 80.207031 C 338.035156 81.132812 338.113281 82.050781 338.21875 82.96875 C 338.324219 83.890625 338.457031 84.804688 338.617188 85.714844 C 338.777344 86.625 338.96875 87.53125 339.183594 88.429688 C 339.398438 89.328125 339.640625 90.222656 339.90625 91.105469 C 340.175781 91.992188 340.472656 92.867188 340.792969 93.734375 C 341.113281 94.601562 341.460938 95.457031 341.835938 96.304688 C 342.207031 97.148438 342.605469 97.984375 343.03125 98.804688 C 343.453125 99.628906 343.902344 100.4375 344.375 101.230469 C 344.84375 102.027344 345.339844 102.808594 345.859375 103.574219 C 346.378906 104.339844 346.921875 105.085938 347.484375 105.820312 C 348.046875 106.554688 348.632812 107.269531 349.242188 107.964844 C 349.847656 108.664062 350.476562 109.339844 351.125 110 C 351.773438 110.660156 352.441406 111.300781 353.125 111.921875 C 353.8125 112.539062 354.515625 113.136719 355.238281 113.714844 C 355.960938 114.292969 356.703125 114.847656 357.457031 115.378906 C 358.214844 115.914062 358.984375 116.421875 359.769531 116.910156 C 360.558594 117.394531 361.359375 117.855469 362.171875 118.292969 C 362.988281 118.734375 363.8125 119.144531 364.652344 119.535156 C 365.492188 119.921875 366.34375 120.285156 367.203125 120.621094 C 368.066406 120.957031 368.9375 121.269531 369.816406 121.554688 C 370.695312 121.839844 371.582031 122.097656 372.480469 122.328125 L 372.480469 170.050781 L 188.15625 170.050781 C 187.398438 170.050781 186.648438 170.125 185.90625 170.273438 C 185.167969 170.417969 184.445312 170.636719 183.746094 170.925781 C 183.046875 171.214844 182.382812 171.570312 181.753906 171.992188 C 181.125 172.410156 180.542969 172.890625 180.007812 173.425781 C 179.472656 173.960938 178.996094 174.542969 178.578125 175.171875 C 178.15625 175.800781 177.800781 176.464844 177.511719 177.160156 C 177.222656 177.859375 177.003906 178.582031 176.855469 179.324219 C 176.710938 180.066406 176.636719 180.8125 176.636719 181.570312 L 176.636719 240.8125 C 175.410156 241.125 174.199219 241.484375 173.007812 241.894531 C 171.8125 242.308594 170.636719 242.765625 169.480469 243.277344 C 168.320312 243.785156 167.1875 244.339844 166.078125 244.941406 C 164.964844 245.542969 163.882812 246.191406 162.824219 246.882812 C 161.765625 247.574219 160.738281 248.308594 159.742188 249.085938 C 158.746094 249.859375 157.785156 250.675781 156.855469 251.535156 C 155.925781 252.390625 155.03125 253.28125 154.175781 254.210938 C 153.320312 255.140625 152.507812 256.105469 151.730469 257.105469 C 150.953125 258.101562 150.222656 259.128906 149.53125 260.1875 C 148.839844 261.246094 148.195312 262.328125 147.59375 263.441406 C 146.992188 264.550781 146.4375 265.6875 145.929688 266.84375 C 145.421875 268 144.964844 269.175781 144.554688 270.371094 C 144.144531 271.566406 143.785156 272.777344 143.472656 274.003906 C 143.164062 275.226562 142.90625 276.464844 142.699219 277.710938 C 142.488281 278.957031 142.332031 280.207031 142.230469 281.46875 C 142.125 282.726562 142.074219 283.988281 142.074219 285.253906 C 142.074219 286.515625 142.125 287.777344 142.230469 289.035156 C 142.332031 290.296875 142.488281 291.546875 142.699219 292.796875 C 142.90625 294.042969 143.164062 295.277344 143.472656 296.5 C 143.785156 297.726562 144.144531 298.9375 144.554688 300.132812 C 144.964844 301.328125 145.421875 302.503906 145.929688 303.660156 C 146.4375 304.816406 146.992188 305.953125 147.59375 307.0625 C 148.195312 308.175781 148.839844 309.261719 149.53125 310.316406 C 150.222656 311.375 150.953125 312.402344 151.730469 313.402344 C 152.507812 314.398438 153.320312 315.363281 154.175781 316.292969 C 155.03125 317.222656 155.925781 318.113281 156.855469 318.972656 C 157.785156 319.828125 158.746094 320.644531 159.742188 321.421875 C 160.738281 322.195312 161.765625 322.929688 162.824219 323.625 C 163.882812 324.316406 164.964844 324.960938 166.078125 325.5625 C 167.1875 326.164062 168.320312 326.722656 169.480469 327.230469 C 170.636719 327.738281 171.8125 328.195312 173.007812 328.609375 C 174.199219 329.019531 175.410156 329.378906 176.636719 329.691406 L 176.636719 411.972656 L 84.472656 411.972656 C 83.71875 411.972656 82.96875 412.046875 82.226562 412.195312 C 81.484375 412.34375 80.765625 412.5625 80.066406 412.851562 C 79.367188 413.140625 78.703125 413.496094 78.074219 413.914062 C 77.445312 414.335938 76.863281 414.8125 76.328125 415.347656 C 75.792969 415.882812 75.316406 416.464844 74.894531 417.09375 C 74.476562 417.722656 74.121094 418.386719 73.832031 419.085938 C 73.539062 419.785156 73.324219 420.503906 73.175781 421.246094 C 73.027344 421.988281 72.953125 422.738281 72.953125 423.496094 L 72.953125 494.257812 C 71.730469 494.570312 70.519531 494.929688 69.324219 495.339844 C 68.128906 495.75 66.953125 496.210938 65.796875 496.71875 C 64.640625 497.226562 63.507812 497.785156 62.394531 498.386719 C 61.285156 498.988281 60.199219 499.632812 59.144531 500.324219 C 58.085938 501.019531 57.058594 501.75 56.0625 502.527344 C 55.066406 503.304688 54.101562 504.121094 53.171875 504.976562 C 52.242188 505.832031 51.351562 506.726562 50.496094 507.65625 C 49.640625 508.585938 48.824219 509.550781 48.046875 510.546875 C 47.273438 511.546875 46.539062 512.574219 45.847656 513.632812 C 45.160156 514.6875 44.511719 515.773438 43.910156 516.886719 C 43.308594 517.996094 42.757812 519.132812 42.25 520.289062 C 41.742188 521.445312 41.28125 522.621094 40.871094 523.816406 C 40.460938 525.011719 40.101562 526.222656 39.792969 527.445312 C 39.484375 528.671875 39.222656 529.90625 39.015625 531.152344 C 38.808594 532.402344 38.652344 533.652344 38.546875 534.914062 C 38.441406 536.171875 38.390625 537.433594 38.390625 538.695312 C 38.390625 539.960938 38.441406 541.222656 38.546875 542.480469 C 38.652344 543.738281 38.808594 544.992188 39.015625 546.238281 C 39.222656 547.484375 39.484375 548.722656 39.792969 549.945312 C 40.101562 551.171875 40.460938 552.382812 40.871094 553.578125 C 41.28125 554.773438 41.742188 555.949219 42.25 557.105469 C 42.757812 558.261719 43.308594 559.398438 43.910156 560.507812 C 44.511719 561.621094 45.160156 562.703125 45.847656 563.761719 C 46.539062 564.820312 47.273438 565.847656 48.046875 566.84375 C 48.824219 567.84375 49.640625 568.804688 50.496094 569.738281 C 51.351562 570.667969 52.242188 571.558594 53.171875 572.414062 C 54.101562 573.273438 55.066406 574.089844 56.0625 574.863281 C 57.058594 575.640625 58.085938 576.375 59.144531 577.066406 C 60.199219 577.757812 61.285156 578.40625 62.394531 579.007812 C 63.507812 579.609375 64.640625 580.164062 65.796875 580.671875 C 66.953125 581.183594 68.128906 581.640625 69.324219 582.050781 C 70.519531 582.464844 71.730469 582.824219 72.953125 583.136719 L 72.953125 632.5 C 72.058594 632.730469 71.171875 632.988281 70.289062 633.273438 C 69.410156 633.558594 68.539062 633.871094 67.679688 634.207031 C 66.816406 634.542969 65.96875 634.90625 65.128906 635.292969 C 64.289062 635.683594 63.460938 636.09375 62.648438 636.535156 C 61.832031 636.972656 61.03125 637.433594 60.246094 637.917969 C 59.460938 638.40625 58.6875 638.914062 57.933594 639.449219 C 57.175781 639.980469 56.4375 640.535156 55.714844 641.113281 C 54.992188 641.691406 54.289062 642.289062 53.601562 642.90625 C 52.914062 643.527344 52.246094 644.167969 51.597656 644.828125 C 50.949219 645.484375 50.324219 646.164062 49.714844 646.863281 C 49.109375 647.558594 48.523438 648.273438 47.960938 649.007812 C 47.394531 649.742188 46.855469 650.488281 46.335938 651.253906 C 45.816406 652.019531 45.320312 652.800781 44.847656 653.597656 C 44.375 654.390625 43.929688 655.199219 43.503906 656.023438 C 43.082031 656.84375 42.683594 657.679688 42.308594 658.523438 C 41.9375 659.371094 41.589844 660.226562 41.269531 661.09375 C 40.945312 661.960938 40.652344 662.835938 40.382812 663.722656 C 40.113281 664.605469 39.871094 665.5 39.65625 666.398438 C 39.441406 667.296875 39.253906 668.203125 39.09375 669.113281 C 38.933594 670.023438 38.800781 670.9375 38.695312 671.855469 C 38.589844 672.777344 38.511719 673.695312 38.460938 674.621094 C 38.410156 675.542969 38.386719 676.46875 38.394531 677.390625 C 38.398438 678.316406 38.433594 679.242188 38.492188 680.164062 C 38.554688 681.085938 38.644531 682.007812 38.761719 682.925781 C 38.875 683.839844 39.019531 684.753906 39.191406 685.664062 C 39.363281 686.570312 39.5625 687.472656 39.789062 688.371094 C 40.015625 689.269531 40.265625 690.15625 40.546875 691.039062 C 40.824219 691.921875 41.132812 692.792969 41.460938 693.65625 C 41.792969 694.519531 42.152344 695.371094 42.535156 696.210938 C 42.917969 697.054688 43.328125 697.882812 43.761719 698.699219 C 44.191406 699.519531 44.648438 700.320312 45.132812 701.109375 C 45.613281 701.898438 46.117188 702.675781 46.644531 703.433594 C 47.175781 704.191406 47.726562 704.933594 48.296875 705.660156 C 48.871094 706.386719 49.464844 707.09375 50.078125 707.785156 C 50.695312 708.476562 51.332031 709.148438 51.988281 709.796875 C 52.644531 710.449219 53.316406 711.082031 54.011719 711.695312 C 54.707031 712.304688 55.417969 712.894531 56.144531 713.464844 C 56.875 714.03125 57.621094 714.578125 58.382812 715.101562 C 59.144531 715.625 59.921875 716.125 60.714844 716.601562 C 61.507812 717.078125 62.3125 717.53125 63.132812 717.960938 C 63.953125 718.386719 64.785156 718.789062 65.628906 719.167969 C 66.472656 719.546875 67.328125 719.898438 68.191406 720.226562 C 69.058594 720.554688 69.933594 720.851562 70.816406 721.128906 C 71.699219 721.402344 72.589844 721.648438 73.488281 721.871094 C 74.386719 722.089844 75.289062 722.28125 76.199219 722.449219 C 77.109375 722.617188 78.023438 722.753906 78.941406 722.863281 C 79.859375 722.976562 80.777344 723.058594 81.703125 723.113281 C 82.625 723.171875 83.550781 723.199219 84.472656 723.199219 C 85.398438 723.199219 86.324219 723.171875 87.246094 723.113281 C 88.167969 723.058594 89.089844 722.976562 90.007812 722.863281 C 90.925781 722.753906 91.839844 722.617188 92.75 722.449219 C 93.660156 722.28125 94.5625 722.089844 95.460938 721.871094 C 96.359375 721.648438 97.25 721.402344 98.132812 721.128906 C 99.015625 720.851562 99.890625 720.554688 100.753906 720.226562 C 101.621094 719.898438 102.472656 719.546875 103.316406 719.167969 C 104.160156 718.789062 104.992188 718.386719 105.8125 717.960938 C 106.632812 717.53125 107.4375 717.078125 108.230469 716.601562 C 109.023438 716.125 109.800781 715.625 110.5625 715.101562 C 111.324219 714.578125 112.070312 714.03125 112.800781 713.464844 C 113.53125 712.894531 114.242188 712.304688 114.9375 711.695312 C 115.628906 711.082031 116.304688 710.449219 116.960938 709.796875 C 117.617188 709.148438 118.25 708.476562 118.867188 707.785156 C 119.484375 707.09375 120.078125 706.386719 120.648438 705.660156 C 121.222656 704.933594 121.773438 704.191406 122.300781 703.433594 C 122.828125 702.675781 123.332031 701.898438 123.816406 701.109375 C 124.296875 700.320312 124.753906 699.519531 125.1875 698.699219 C 125.621094 697.882812 126.027344 697.054688 126.410156 696.210938 C 126.796875 695.371094 127.152344 694.519531 127.484375 693.65625 C 127.816406 692.792969 128.121094 691.921875 128.402344 691.039062 C 128.679688 690.15625 128.933594 689.269531 129.160156 688.371094 C 129.386719 687.472656 129.582031 686.570312 129.753906 685.664062 C 129.925781 684.753906 130.070312 683.839844 130.1875 682.925781 C 130.304688 682.007812 130.390625 681.085938 130.453125 680.164062 C 130.515625 679.242188 130.546875 678.316406 130.554688 677.390625 C 130.558594 676.46875 130.535156 675.542969 130.488281 674.621094 C 130.4375 673.695312 130.359375 672.777344 130.253906 671.855469 C 130.148438 670.9375 130.015625 670.023438 129.855469 669.113281 C 129.691406 668.203125 129.503906 667.296875 129.289062 666.398438 C 129.074219 665.5 128.832031 664.605469 128.5625 663.722656 C 128.296875 662.835938 128 661.960938 127.679688 661.09375 C 127.355469 660.226562 127.011719 659.371094 126.636719 658.523438 C 126.261719 657.679688 125.867188 656.84375 125.441406 656.023438 C 125.019531 655.199219 124.570312 654.390625 124.097656 653.597656 C 123.625 652.800781 123.132812 652.019531 122.613281 651.253906 C 122.09375 650.488281 121.550781 649.742188 120.988281 649.007812 C 120.421875 648.273438 119.839844 647.558594 119.230469 646.863281 C 118.625 646.164062 117.996094 645.484375 117.347656 644.828125 C 116.699219 644.167969 116.03125 643.527344 115.347656 642.90625 C 114.660156 642.289062 113.957031 641.691406 113.234375 641.113281 C 112.511719 640.535156 111.769531 639.980469 111.015625 639.449219 C 110.257812 638.914062 109.488281 638.40625 108.699219 637.917969 C 107.914062 637.433594 107.113281 636.972656 106.300781 636.535156 C 105.484375 636.09375 104.65625 635.683594 103.820312 635.292969 C 102.980469 634.90625 102.128906 634.542969 101.269531 634.207031 C 100.40625 633.871094 99.535156 633.558594 98.65625 633.273438 C 97.777344 632.988281 96.890625 632.730469 95.992188 632.5 L 95.992188 583.136719 C 97.21875 582.824219 98.429688 582.464844 99.621094 582.050781 C 100.816406 581.640625 101.992188 581.183594 103.152344 580.671875 C 104.308594 580.164062 105.441406 579.609375 106.550781 579.007812 C 107.664062 578.40625 108.746094 577.757812 109.804688 577.066406 C 110.863281 576.375 111.890625 575.640625 112.886719 574.863281 C 113.882812 574.089844 114.84375 573.273438 115.773438 572.414062 C 116.703125 571.558594 117.597656 570.667969 118.453125 569.738281 C 119.308594 568.804688 120.121094 567.84375 120.898438 566.84375 C 121.675781 565.847656 122.40625 564.820312 123.097656 563.761719 C 123.789062 562.703125 124.433594 561.621094 125.035156 560.507812 C 125.636719 559.398438 126.191406 558.261719 126.699219 557.105469 C 127.207031 555.949219 127.664062 554.773438 128.074219 553.578125 C 128.484375 552.382812 128.84375 551.171875 129.15625 549.945312 C 129.464844 548.722656 129.722656 547.484375 129.929688 546.238281 C 130.140625 544.992188 130.296875 543.738281 130.398438 542.480469 C 130.503906 541.222656 130.554688 539.960938 130.554688 538.695312 C 130.554688 537.433594 130.503906 536.171875 130.398438 534.914062 C 130.296875 533.652344 130.140625 532.402344 129.929688 531.152344 C 129.722656 529.90625 129.464844 528.671875 129.15625 527.445312 C 128.84375 526.222656 128.484375 525.011719 128.074219 523.816406 C 127.664062 522.621094 127.207031 521.445312 126.699219 520.289062 C 126.191406 519.132812 125.636719 517.996094 125.035156 516.886719 C 124.433594 515.773438 123.789062 514.6875 123.097656 513.632812 C 122.40625 512.574219 121.675781 511.546875 120.898438 510.546875 C 120.121094 509.550781 119.308594 508.585938 118.453125 507.65625 C 117.597656 506.726562 116.703125 505.832031 115.773438 504.976562 C 114.84375 504.121094 113.882812 503.304688 112.886719 502.527344 C 111.890625 501.75 110.863281 501.019531 109.804688 500.324219 C 108.746094 499.632812 107.664062 498.988281 106.550781 498.386719 C 105.441406 497.785156 104.308594 497.226562 103.152344 496.71875 C 101.992188 496.210938 100.816406 495.75 99.621094 495.339844 C 98.429688 494.929688 97.21875 494.570312 95.992188 494.257812 L 95.992188 435.015625 L 280.316406 435.015625 L 280.316406 494.257812 C 279.09375 494.570312 277.882812 494.929688 276.6875 495.339844 C 275.492188 495.75 274.316406 496.210938 273.160156 496.71875 C 272.003906 497.226562 270.871094 497.785156 269.757812 498.386719 C 268.648438 498.988281 267.5625 499.632812 266.507812 500.324219 C 265.449219 501.019531 264.421875 501.75 263.425781 502.527344 C 262.429688 503.304688 261.464844 504.121094 260.535156 504.976562 C 259.605469 505.832031 258.714844 506.726562 257.859375 507.65625 C 257.003906 508.585938 256.1875 509.550781 255.414062 510.546875 C 254.636719 511.546875 253.902344 512.574219 253.210938 513.632812 C 252.523438 514.6875 251.875 515.773438 251.273438 516.886719 C 250.671875 517.996094 250.121094 519.132812 249.613281 520.289062 C 249.105469 521.445312 248.644531 522.621094 248.234375 523.816406 C 247.824219 525.011719 247.464844 526.222656 247.15625 527.445312 C 246.847656 528.671875 246.585938 529.90625 246.378906 531.152344 C 246.171875 532.402344 246.015625 533.652344 245.910156 534.914062 C 245.808594 536.171875 245.753906 537.433594 245.753906 538.695312 C 245.753906 539.960938 245.808594 541.222656 245.910156 542.480469 C 246.015625 543.738281 246.171875 544.992188 246.378906 546.238281 C 246.585938 547.484375 246.847656 548.722656 247.15625 549.945312 C 247.464844 551.171875 247.824219 552.382812 248.234375 553.578125 C 248.644531 554.773438 249.105469 555.949219 249.613281 557.105469 C 250.121094 558.261719 250.671875 559.398438 251.273438 560.507812 C 251.875 561.621094 252.523438 562.703125 253.210938 563.761719 C 253.902344 564.820312 254.636719 565.847656 255.414062 566.84375 C 256.1875 567.84375 257.003906 568.804688 257.859375 569.738281 C 258.714844 570.667969 259.605469 571.558594 260.535156 572.414062 C 261.464844 573.273438 262.429688 574.089844 263.425781 574.863281 C 264.421875 575.640625 265.449219 576.375 266.507812 577.066406 C 267.5625 577.757812 268.648438 578.40625 269.757812 579.007812 C 270.871094 579.609375 272.003906 580.164062 273.160156 580.671875 C 274.316406 581.183594 275.492188 581.640625 276.6875 582.050781 C 277.882812 582.464844 279.09375 582.824219 280.316406 583.136719 L 280.316406 632.5 C 279.421875 632.730469 278.535156 632.988281 277.652344 633.273438 C 276.773438 633.558594 275.902344 633.871094 275.042969 634.207031 C 274.179688 634.542969 273.332031 634.90625 272.492188 635.292969 C 271.652344 635.683594 270.824219 636.09375 270.011719 636.535156 C 269.195312 636.972656 268.394531 637.433594 267.609375 637.917969 C 266.824219 638.40625 266.050781 638.914062 265.296875 639.449219 C 264.539062 639.980469 263.800781 640.535156 263.078125 641.113281 C 262.355469 641.691406 261.652344 642.289062 260.964844 642.90625 C 260.277344 643.527344 259.609375 644.167969 258.960938 644.828125 C 258.316406 645.484375 257.6875 646.164062 257.078125 646.863281 C 256.472656 647.558594 255.886719 648.273438 255.324219 649.007812 C 254.757812 649.742188 254.21875 650.488281 253.699219 651.253906 C 253.179688 652.019531 252.683594 652.800781 252.210938 653.597656 C 251.738281 654.390625 251.292969 655.199219 250.867188 656.023438 C 250.445312 656.84375 250.046875 657.679688 249.675781 658.523438 C 249.300781 659.371094 248.953125 660.226562 248.632812 661.09375 C 248.308594 661.960938 248.015625 662.835938 247.746094 663.722656 C 247.476562 664.605469 247.234375 665.5 247.019531 666.398438 C 246.804688 667.296875 246.617188 668.203125 246.457031 669.113281 C 246.296875 670.023438 246.164062 670.9375 246.058594 671.855469 C 245.953125 672.777344 245.875 673.695312 245.824219 674.621094 C 245.773438 675.542969 245.75 676.46875 245.757812 677.390625 C 245.761719 678.316406 245.796875 679.242188 245.855469 680.164062 C 245.917969 681.085938 246.007812 682.007812 246.125 682.925781 C 246.238281 683.839844 246.382812 684.753906 246.554688 685.664062 C 246.726562 686.570312 246.925781 687.472656 247.152344 688.371094 C 247.378906 689.269531 247.628906 690.15625 247.910156 691.039062 C 248.1875 691.921875 248.496094 692.792969 248.828125 693.65625 C 249.160156 694.519531 249.515625 695.371094 249.898438 696.210938 C 250.28125 697.054688 250.691406 697.882812 251.125 698.699219 C 251.558594 699.519531 252.015625 700.320312 252.496094 701.109375 C 252.976562 701.898438 253.480469 702.675781 254.011719 703.433594 C 254.539062 704.191406 255.089844 704.933594 255.660156 705.660156 C 256.234375 706.386719 256.828125 707.09375 257.445312 707.785156 C 258.058594 708.476562 258.695312 709.148438 259.351562 709.796875 C 260.007812 710.449219 260.679688 711.082031 261.375 711.695312 C 262.070312 712.304688 262.78125 712.894531 263.511719 713.464844 C 264.238281 714.03125 264.984375 714.578125 265.746094 715.101562 C 266.507812 715.625 267.285156 716.125 268.078125 716.601562 C 268.871094 717.078125 269.675781 717.53125 270.496094 717.960938 C 271.316406 718.386719 272.148438 718.789062 272.992188 719.167969 C 273.835938 719.546875 274.691406 719.898438 275.554688 720.226562 C 276.421875 720.554688 277.296875 720.851562 278.179688 721.128906 C 279.0625 721.402344 279.953125 721.648438 280.851562 721.871094 C 281.75 722.089844 282.652344 722.28125 283.5625 722.449219 C 284.472656 722.617188 285.386719 722.753906 286.304688 722.863281 C 287.222656 722.976562 288.140625 723.058594 289.066406 723.113281 C 289.988281 723.171875 290.914062 723.199219 291.835938 723.199219 C 292.761719 723.199219 293.6875 723.171875 294.609375 723.113281 C 295.53125 723.058594 296.453125 722.976562 297.371094 722.863281 C 298.289062 722.753906 299.203125 722.617188 300.113281 722.449219 C 301.023438 722.28125 301.925781 722.089844 302.824219 721.871094 C 303.722656 721.648438 304.613281 721.402344 305.496094 721.128906 C 306.378906 720.851562 307.253906 720.554688 308.117188 720.226562 C 308.984375 719.898438 309.839844 719.546875 310.683594 719.167969 C 311.527344 718.789062 312.359375 718.386719 313.175781 717.960938 C 313.996094 717.53125 314.800781 717.078125 315.59375 716.601562 C 316.386719 716.125 317.164062 715.625 317.925781 715.101562 C 318.6875 714.578125 319.433594 714.03125 320.164062 713.464844 C 320.894531 712.894531 321.605469 712.304688 322.300781 711.695312 C 322.992188 711.082031 323.667969 710.449219 324.324219 709.796875 C 324.980469 709.148438 325.617188 708.476562 326.230469 707.785156 C 326.847656 707.09375 327.441406 706.386719 328.011719 705.660156 C 328.585938 704.933594 329.136719 704.191406 329.664062 703.433594 C 330.191406 702.675781 330.699219 701.898438 331.179688 701.109375 C 331.660156 700.320312 332.117188 699.519531 332.550781 698.699219 C 332.984375 697.882812 333.390625 697.054688 333.773438 696.210938 C 334.160156 695.371094 334.515625 694.519531 334.847656 693.65625 C 335.179688 692.792969 335.484375 691.921875 335.765625 691.039062 C 336.042969 690.15625 336.296875 689.269531 336.523438 688.371094 C 336.75 687.472656 336.945312 686.570312 337.117188 685.664062 C 337.289062 684.753906 337.433594 683.839844 337.550781 682.925781 C 337.667969 682.007812 337.757812 681.085938 337.816406 680.164062 C 337.878906 679.242188 337.910156 678.316406 337.917969 677.390625 C 337.921875 676.46875 337.902344 675.542969 337.851562 674.621094 C 337.800781 673.695312 337.722656 672.777344 337.617188 671.855469 C 337.511719 670.9375 337.378906 670.023438 337.21875 669.113281 C 337.058594 668.203125 336.867188 667.296875 336.652344 666.398438 C 336.4375 665.5 336.195312 664.605469 335.929688 663.722656 C 335.660156 662.835938 335.363281 661.960938 335.042969 661.09375 C 334.722656 660.226562 334.375 659.371094 334 658.523438 C 333.628906 657.679688 333.230469 656.84375 332.804688 656.023438 C 332.382812 655.199219 331.933594 654.390625 331.460938 653.597656 C 330.992188 652.800781 330.496094 652.019531 329.976562 651.253906 C 329.457031 650.488281 328.914062 649.742188 328.351562 649.007812 C 327.789062 648.273438 327.203125 647.558594 326.59375 646.863281 C 325.988281 646.164062 325.359375 645.484375 324.710938 644.828125 C 324.0625 644.167969 323.394531 643.527344 322.710938 642.90625 C 322.023438 642.289062 321.320312 641.691406 320.597656 641.113281 C 319.875 640.535156 319.132812 639.980469 318.378906 639.449219 C 317.621094 638.914062 316.851562 638.40625 316.066406 637.917969 C 315.277344 637.433594 314.476562 636.972656 313.664062 636.535156 C 312.847656 636.09375 312.023438 635.683594 311.183594 635.292969 C 310.34375 634.90625 309.492188 634.542969 308.632812 634.207031 C 307.769531 633.871094 306.898438 633.558594 306.019531 633.273438 C 305.140625 632.988281 304.253906 632.730469 303.355469 632.5 L 303.355469 583.136719 C 304.582031 582.824219 305.792969 582.464844 306.988281 582.050781 C 308.179688 581.640625 309.355469 581.183594 310.515625 580.671875 C 311.671875 580.164062 312.804688 579.609375 313.914062 579.007812 C 315.027344 578.40625 316.109375 577.757812 317.167969 577.066406 C 318.226562 576.375 319.253906 575.640625 320.25 574.863281 C 321.246094 574.089844 322.210938 573.273438 323.136719 572.414062 C 324.066406 571.558594 324.960938 570.667969 325.816406 569.738281 C 326.671875 568.804688 327.488281 567.84375 328.261719 566.84375 C 329.039062 565.847656 329.769531 564.820312 330.460938 563.761719 C 331.152344 562.703125 331.796875 561.621094 332.398438 560.507812 C 333 559.398438 333.554688 558.261719 334.0625 557.105469 C 334.570312 555.949219 335.027344 554.773438 335.4375 553.578125 C 335.847656 552.382812 336.207031 551.171875 336.519531 549.945312 C 336.828125 548.722656 337.085938 547.484375 337.296875 546.238281 C 337.503906 544.992188 337.660156 543.738281 337.761719 542.480469 C 337.867188 541.222656 337.917969 539.960938 337.917969 538.695312 C 337.917969 537.433594 337.867188 536.171875 337.761719 534.914062 C 337.660156 533.652344 337.503906 532.402344 337.296875 531.152344 C 337.085938 529.90625 336.828125 528.671875 336.519531 527.445312 C 336.207031 526.222656 335.847656 525.011719 335.4375 523.816406 C 335.027344 522.621094 334.570312 521.445312 334.0625 520.289062 C 333.554688 519.132812 333 517.996094 332.398438 516.886719 C 331.796875 515.773438 331.152344 514.6875 330.460938 513.632812 C 329.769531 512.574219 329.039062 511.546875 328.261719 510.546875 C 327.488281 509.550781 326.671875 508.585938 325.816406 507.65625 C 324.960938 506.726562 324.066406 505.832031 323.136719 504.976562 C 322.210938 504.121094 321.246094 503.304688 320.25 502.527344 C 319.253906 501.75 318.226562 501.019531 317.167969 500.324219 C 316.109375 499.632812 315.027344 498.988281 313.914062 498.386719 C 312.804688 497.785156 311.671875 497.226562 310.515625 496.71875 C 309.355469 496.210938 308.179688 495.75 306.988281 495.339844 C 305.792969 494.929688 304.582031 494.570312 303.355469 494.257812 L 303.355469 423.496094 C 303.355469 422.738281 303.285156 421.988281 303.136719 421.246094 C 302.988281 420.503906 302.769531 419.785156 302.480469 419.085938 C 302.191406 418.386719 301.835938 417.722656 301.414062 417.09375 C 300.996094 416.464844 300.519531 415.882812 299.984375 415.347656 C 299.449219 414.8125 298.867188 414.335938 298.238281 413.914062 C 297.609375 413.496094 296.945312 413.140625 296.246094 412.851562 C 295.546875 412.5625 294.828125 412.34375 294.085938 412.195312 C 293.34375 412.046875 292.59375 411.972656 291.835938 411.972656 L 199.675781 411.972656 L 199.675781 329.691406 C 200.898438 329.378906 202.109375 329.019531 203.304688 328.609375 C 204.5 328.195312 205.675781 327.738281 206.832031 327.230469 C 207.988281 326.722656 209.121094 326.164062 210.234375 325.5625 C 211.34375 324.960938 212.429688 324.316406 213.488281 323.625 C 214.542969 322.929688 215.570312 322.195312 216.566406 321.421875 C 217.5625 320.644531 218.527344 319.828125 219.457031 318.972656 C 220.386719 318.113281 221.277344 317.222656 222.132812 316.292969 C 222.988281 315.363281 223.804688 314.398438 224.582031 313.402344 C 225.355469 312.402344 226.089844 311.375 226.78125 310.316406 C 227.472656 309.261719 228.117188 308.175781 228.71875 307.0625 C 229.320312 305.953125 229.871094 304.816406 230.378906 303.660156 C 230.886719 302.503906 231.347656 301.328125 231.757812 300.132812 C 232.167969 298.9375 232.527344 297.726562 232.835938 296.5 C 233.148438 295.277344 233.40625 294.042969 233.613281 292.796875 C 233.820312 291.546875 233.976562 290.296875 234.082031 289.035156 C 234.1875 287.777344 234.238281 286.515625 234.238281 285.253906 C 234.238281 283.988281 234.1875 282.726562 234.082031 281.46875 C 233.976562 280.207031 233.820312 278.957031 233.613281 277.710938 C 233.40625 276.464844 233.148438 275.226562 232.835938 274.003906 C 232.527344 272.777344 232.167969 271.566406 231.757812 270.371094 C 231.347656 269.175781 230.886719 268 230.378906 266.84375 C 229.871094 265.6875 229.320312 264.550781 228.71875 263.441406 C 228.117188 262.328125 227.472656 261.246094 226.78125 260.1875 C 226.089844 259.128906 225.355469 258.101562 224.582031 257.105469 C 223.804688 256.105469 222.988281 255.140625 222.132812 254.210938 C 221.277344 253.28125 220.386719 252.390625 219.457031 251.535156 C 218.527344 250.675781 217.5625 249.859375 216.566406 249.085938 C 215.570312 248.308594 214.542969 247.574219 213.488281 246.882812 C 212.429688 246.191406 211.34375 245.542969 210.234375 244.941406 C 209.121094 244.339844 207.988281 243.785156 206.832031 243.277344 C 205.675781 242.765625 204.5 242.308594 203.304688 241.894531 C 202.109375 241.484375 200.898438 241.125 199.675781 240.8125 L 199.675781 193.089844 L 568.320312 193.089844 L 568.320312 240.8125 C 567.097656 241.125 565.886719 241.484375 564.691406 241.894531 C 563.496094 242.308594 562.320312 242.765625 561.164062 243.277344 C 560.007812 243.785156 558.875 244.339844 557.765625 244.941406 C 556.652344 245.542969 555.570312 246.191406 554.511719 246.882812 C 553.453125 247.574219 552.425781 248.308594 551.429688 249.085938 C 550.433594 249.859375 549.46875 250.675781 548.539062 251.535156 C 547.613281 252.390625 546.71875 253.28125 545.863281 254.210938 C 545.007812 255.140625 544.191406 256.105469 543.417969 257.105469 C 542.640625 258.101562 541.910156 259.128906 541.21875 260.1875 C 540.527344 261.246094 539.878906 262.328125 539.28125 263.441406 C 538.679688 264.550781 538.125 265.6875 537.617188 266.84375 C 537.109375 268 536.652344 269.175781 536.242188 270.371094 C 535.832031 271.566406 535.472656 272.777344 535.160156 274.003906 C 534.851562 275.226562 534.59375 276.464844 534.382812 277.710938 C 534.175781 278.957031 534.019531 280.207031 533.917969 281.46875 C 533.8125 282.726562 533.757812 283.988281 533.757812 285.253906 C 533.757812 286.515625 533.8125 287.777344 533.917969 289.035156 C 534.019531 290.296875 534.175781 291.546875 534.382812 292.796875 C 534.59375 294.042969 534.851562 295.277344 535.160156 296.5 C 535.472656 297.726562 535.832031 298.9375 536.242188 300.132812 C 536.652344 301.328125 537.109375 302.503906 537.617188 303.660156 C 538.125 304.816406 538.679688 305.953125 539.28125 307.0625 C 539.878906 308.175781 540.527344 309.261719 541.21875 310.316406 C 541.910156 311.375 542.640625 312.402344 543.417969 313.402344 C 544.191406 314.398438 545.007812 315.363281 545.863281 316.292969 C 546.71875 317.222656 547.613281 318.113281 548.542969 318.972656 C 549.46875 319.828125 550.433594 320.644531 551.429688 321.421875 C 552.425781 322.195312 553.453125 322.929688 554.511719 323.625 C 555.570312 324.316406 556.652344 324.960938 557.765625 325.5625 C 558.875 326.164062 560.007812 326.722656 561.164062 327.230469 C 562.320312 327.738281 563.496094 328.195312 564.691406 328.609375 C 565.886719 329.019531 567.097656 329.378906 568.320312 329.691406 L 568.320312 411.972656 L 476.160156 411.972656 C 475.402344 411.972656 474.65625 412.046875 473.914062 412.195312 C 473.171875 412.34375 472.449219 412.5625 471.75 412.851562 C 471.054688 413.140625 470.390625 413.496094 469.761719 413.914062 C 469.132812 414.335938 468.550781 414.8125 468.015625 415.347656 C 467.480469 415.882812 467 416.464844 466.582031 417.09375 C 466.160156 417.722656 465.804688 418.386719 465.515625 419.085938 C 465.226562 419.785156 465.007812 420.503906 464.863281 421.246094 C 464.714844 421.988281 464.640625 422.738281 464.640625 423.496094 L 464.640625 494.257812 C 463.414062 494.570312 462.207031 494.929688 461.011719 495.339844 C 459.816406 495.75 458.640625 496.210938 457.484375 496.71875 C 456.328125 497.226562 455.191406 497.785156 454.082031 498.386719 C 452.972656 498.988281 451.886719 499.632812 450.828125 500.324219 C 449.773438 501.019531 448.746094 501.75 447.75 502.527344 C 446.75 503.304688 445.789062 504.121094 444.859375 504.976562 C 443.929688 505.832031 443.039062 506.726562 442.183594 507.65625 C 441.328125 508.585938 440.511719 509.550781 439.734375 510.546875 C 438.960938 511.546875 438.226562 512.574219 437.535156 513.632812 C 436.84375 514.6875 436.199219 515.773438 435.597656 516.886719 C 434.996094 517.996094 434.441406 519.132812 433.933594 520.289062 C 433.429688 521.445312 432.96875 522.621094 432.558594 523.816406 C 432.148438 525.011719 431.789062 526.222656 431.480469 527.445312 C 431.167969 528.671875 430.910156 529.90625 430.703125 531.152344 C 430.496094 532.402344 430.339844 533.652344 430.234375 534.914062 C 430.128906 536.171875 430.078125 537.433594 430.078125 538.695312 C 430.078125 539.960938 430.128906 541.222656 430.234375 542.480469 C 430.339844 543.738281 430.496094 544.992188 430.703125 546.238281 C 430.910156 547.484375 431.167969 548.722656 431.480469 549.945312 C 431.789062 551.171875 432.148438 552.382812 432.558594 553.578125 C 432.96875 554.773438 433.429688 555.949219 433.933594 557.105469 C 434.441406 558.261719 434.996094 559.398438 435.597656 560.507812 C 436.199219 561.621094 436.84375 562.703125 437.535156 563.761719 C 438.226562 564.820312 438.960938 565.847656 439.734375 566.84375 C 440.511719 567.84375 441.328125 568.804688 442.183594 569.738281 C 443.039062 570.667969 443.929688 571.558594 444.859375 572.414062 C 445.789062 573.273438 446.75 574.089844 447.75 574.863281 C 448.746094 575.640625 449.773438 576.375 450.828125 577.066406 C 451.886719 577.757812 452.972656 578.40625 454.082031 579.007812 C 455.191406 579.609375 456.328125 580.164062 457.484375 580.671875 C 458.640625 581.183594 459.816406 581.640625 461.011719 582.050781 C 462.207031 582.464844 463.414062 582.824219 464.640625 583.136719 L 464.640625 632.5 C 463.746094 632.730469 462.855469 632.988281 461.976562 633.273438 C 461.097656 633.558594 460.226562 633.871094 459.367188 634.207031 C 458.503906 634.542969 457.65625 634.90625 456.816406 635.292969 C 455.976562 635.683594 455.148438 636.09375 454.335938 636.535156 C 453.519531 636.972656 452.71875 637.433594 451.933594 637.917969 C 451.144531 638.40625 450.375 638.914062 449.617188 639.449219 C 448.863281 639.980469 448.125 640.535156 447.402344 641.113281 C 446.679688 641.691406 445.972656 642.289062 445.289062 642.90625 C 444.601562 643.527344 443.933594 644.167969 443.285156 644.828125 C 442.636719 645.484375 442.011719 646.164062 441.402344 646.863281 C 440.796875 647.558594 440.210938 648.273438 439.644531 649.007812 C 439.082031 649.742188 438.539062 650.488281 438.023438 651.253906 C 437.503906 652.019531 437.007812 652.800781 436.535156 653.597656 C 436.0625 654.390625 435.617188 655.199219 435.191406 656.023438 C 434.769531 656.84375 434.371094 657.679688 433.996094 658.523438 C 433.625 659.371094 433.277344 660.226562 432.957031 661.09375 C 432.632812 661.960938 432.339844 662.835938 432.070312 663.722656 C 431.800781 664.605469 431.558594 665.5 431.34375 666.398438 C 431.128906 667.296875 430.941406 668.203125 430.78125 669.113281 C 430.621094 670.023438 430.488281 670.9375 430.382812 671.855469 C 430.273438 672.777344 430.199219 673.695312 430.148438 674.621094 C 430.097656 675.542969 430.074219 676.46875 430.082031 677.390625 C 430.085938 678.316406 430.121094 679.242188 430.179688 680.164062 C 430.242188 681.085938 430.332031 682.007812 430.445312 682.925781 C 430.5625 683.839844 430.707031 684.753906 430.878906 685.664062 C 431.050781 686.570312 431.25 687.472656 431.476562 688.371094 C 431.699219 689.269531 431.953125 690.15625 432.234375 691.039062 C 432.511719 691.921875 432.816406 692.792969 433.148438 693.65625 C 433.480469 694.519531 433.839844 695.371094 434.222656 696.210938 C 434.605469 697.054688 435.011719 697.882812 435.445312 698.699219 C 435.878906 699.519531 436.335938 700.320312 436.820312 701.109375 C 437.300781 701.898438 437.804688 702.675781 438.332031 703.433594 C 438.859375 704.191406 439.410156 704.933594 439.984375 705.660156 C 440.558594 706.386719 441.152344 707.09375 441.765625 707.785156 C 442.382812 708.476562 443.019531 709.148438 443.671875 709.796875 C 444.328125 710.449219 445.003906 711.082031 445.699219 711.695312 C 446.390625 712.304688 447.105469 712.894531 447.832031 713.464844 C 448.5625 714.03125 449.308594 714.578125 450.070312 715.101562 C 450.832031 715.625 451.609375 716.125 452.402344 716.601562 C 453.195312 717.078125 454 717.53125 454.820312 717.960938 C 455.640625 718.386719 456.472656 718.789062 457.316406 719.167969 C 458.160156 719.546875 459.015625 719.898438 459.878906 720.226562 C 460.746094 720.554688 461.617188 720.851562 462.5 721.128906 C 463.386719 721.402344 464.277344 721.648438 465.171875 721.871094 C 466.070312 722.089844 466.976562 722.28125 467.886719 722.449219 C 468.796875 722.617188 469.707031 722.753906 470.628906 722.863281 C 471.546875 722.976562 472.464844 723.058594 473.390625 723.113281 C 474.3125 723.171875 475.234375 723.199219 476.160156 723.199219 C 477.085938 723.199219 478.007812 723.171875 478.933594 723.113281 C 479.855469 723.058594 480.777344 722.976562 481.695312 722.863281 C 482.613281 722.753906 483.527344 722.617188 484.433594 722.449219 C 485.34375 722.28125 486.25 722.089844 487.148438 721.871094 C 488.046875 721.648438 488.9375 721.402344 489.820312 721.128906 C 490.703125 720.851562 491.578125 720.554688 492.441406 720.226562 C 493.304688 719.898438 494.160156 719.546875 495.003906 719.167969 C 495.847656 718.789062 496.679688 718.386719 497.5 717.960938 C 498.320312 717.53125 499.125 717.078125 499.917969 716.601562 C 500.710938 716.125 501.488281 715.625 502.25 715.101562 C 503.011719 714.578125 503.757812 714.03125 504.488281 713.464844 C 505.21875 712.894531 505.929688 712.304688 506.621094 711.695312 C 507.316406 711.082031 507.992188 710.449219 508.648438 709.796875 C 509.304688 709.148438 509.9375 708.476562 510.554688 707.785156 C 511.167969 707.09375 511.761719 706.386719 512.335938 705.660156 C 512.910156 704.933594 513.460938 704.191406 513.988281 703.433594 C 514.515625 702.675781 515.019531 701.898438 515.503906 701.109375 C 515.984375 700.320312 516.441406 699.519531 516.875 698.699219 C 517.308594 697.882812 517.714844 697.054688 518.097656 696.210938 C 518.480469 695.371094 518.839844 694.519531 519.171875 693.65625 C 519.503906 692.792969 519.808594 691.921875 520.089844 691.039062 C 520.367188 690.15625 520.621094 689.269531 520.847656 688.371094 C 521.070312 687.472656 521.269531 686.570312 521.441406 685.664062 C 521.613281 684.753906 521.757812 683.839844 521.875 682.925781 C 521.992188 682.007812 522.078125 681.085938 522.140625 680.164062 C 522.203125 679.242188 522.234375 678.316406 522.242188 677.390625 C 522.246094 676.46875 522.222656 675.542969 522.171875 674.621094 C 522.125 673.695312 522.046875 672.777344 521.941406 671.855469 C 521.835938 670.9375 521.703125 670.023438 521.539062 669.113281 C 521.378906 668.203125 521.191406 667.296875 520.976562 666.398438 C 520.761719 665.5 520.519531 664.605469 520.25 663.722656 C 519.980469 662.835938 519.6875 661.960938 519.367188 661.09375 C 519.042969 660.226562 518.695312 659.371094 518.324219 658.523438 C 517.949219 657.679688 517.550781 656.84375 517.128906 656.023438 C 516.707031 655.199219 516.257812 654.390625 515.785156 653.597656 C 515.3125 652.800781 514.816406 652.019531 514.300781 651.253906 C 513.78125 650.488281 513.238281 649.742188 512.675781 649.007812 C 512.109375 648.273438 511.523438 647.558594 510.917969 646.863281 C 510.308594 646.164062 509.683594 645.484375 509.035156 644.828125 C 508.386719 644.167969 507.71875 643.527344 507.03125 642.90625 C 506.347656 642.289062 505.640625 641.691406 504.917969 641.113281 C 504.195312 640.535156 503.457031 639.980469 502.703125 639.449219 C 501.945312 638.914062 501.175781 638.40625 500.386719 637.917969 C 499.601562 637.433594 498.800781 636.972656 497.984375 636.535156 C 497.171875 636.09375 496.34375 635.683594 495.503906 635.292969 C 494.667969 634.90625 493.816406 634.542969 492.953125 634.207031 C 492.09375 633.871094 491.222656 633.558594 490.34375 633.273438 C 489.464844 632.988281 488.574219 632.730469 487.679688 632.5 L 487.679688 583.136719 C 488.90625 582.824219 490.113281 582.464844 491.308594 582.050781 C 492.503906 581.640625 493.679688 581.183594 494.835938 580.671875 C 495.992188 580.164062 497.128906 579.609375 498.238281 579.007812 C 499.351562 578.40625 500.433594 577.757812 501.492188 577.066406 C 502.546875 576.375 503.574219 575.640625 504.574219 574.863281 C 505.570312 574.089844 506.53125 573.273438 507.460938 572.414062 C 508.390625 571.558594 509.28125 570.667969 510.136719 569.738281 C 510.992188 568.804688 511.808594 567.84375 512.585938 566.84375 C 513.359375 565.847656 514.09375 564.820312 514.785156 563.761719 C 515.476562 562.703125 516.121094 561.621094 516.722656 560.507812 C 517.324219 559.398438 517.878906 558.261719 518.386719 557.105469 C 518.894531 555.949219 519.351562 554.773438 519.761719 553.578125 C 520.171875 552.382812 520.53125 551.171875 520.839844 549.945312 C 521.152344 548.722656 521.410156 547.484375 521.617188 546.238281 C 521.828125 544.992188 521.980469 543.738281 522.085938 542.480469 C 522.191406 541.222656 522.242188 539.960938 522.242188 538.695312 C 522.242188 537.433594 522.191406 536.171875 522.085938 534.914062 C 521.980469 533.652344 521.828125 532.402344 521.617188 531.152344 C 521.410156 529.90625 521.152344 528.671875 520.839844 527.445312 C 520.53125 526.222656 520.171875 525.011719 519.761719 523.816406 C 519.351562 522.621094 518.894531 521.445312 518.386719 520.289062 C 517.878906 519.132812 517.324219 517.996094 516.722656 516.886719 C 516.121094 515.773438 515.476562 514.6875 514.785156 513.632812 C 514.09375 512.574219 513.359375 511.546875 512.585938 510.546875 C 511.808594 509.550781 510.992188 508.585938 510.136719 507.65625 C 509.28125 506.726562 508.390625 505.832031 507.460938 504.976562 C 506.53125 504.121094 505.570312 503.304688 504.574219 502.527344 C 503.574219 501.75 502.546875 501.019531 501.492188 500.324219 C 500.433594 499.632812 499.351562 498.988281 498.238281 498.386719 C 497.128906 497.785156 495.992188 497.226562 494.835938 496.71875 C 493.679688 496.210938 492.503906 495.75 491.308594 495.339844 C 490.113281 494.929688 488.90625 494.570312 487.679688 494.257812 L 487.679688 435.015625 L 672.003906 435.015625 L 672.003906 494.257812 C 670.777344 494.570312 669.570312 494.929688 668.375 495.339844 C 667.179688 495.75 666.003906 496.210938 664.847656 496.71875 C 663.691406 497.226562 662.554688 497.785156 661.445312 498.386719 C 660.335938 498.988281 659.25 499.632812 658.191406 500.324219 C 657.136719 501.019531 656.109375 501.75 655.113281 502.527344 C 654.113281 503.304688 653.152344 504.121094 652.222656 504.976562 C 651.292969 505.832031 650.402344 506.726562 649.546875 507.65625 C 648.691406 508.585938 647.875 509.550781 647.097656 510.546875 C 646.324219 511.546875 645.589844 512.574219 644.898438 513.632812 C 644.207031 514.6875 643.5625 515.773438 642.960938 516.886719 C 642.359375 517.996094 641.804688 519.132812 641.300781 520.289062 C 640.792969 521.445312 640.332031 522.621094 639.921875 523.816406 C 639.511719 525.011719 639.152344 526.222656 638.84375 527.445312 C 638.53125 528.671875 638.273438 529.90625 638.066406 531.152344 C 637.859375 532.402344 637.703125 533.652344 637.597656 534.914062 C 637.492188 536.171875 637.441406 537.433594 637.441406 538.695312 C 637.441406 539.960938 637.492188 541.222656 637.597656 542.480469 C 637.703125 543.738281 637.859375 544.992188 638.066406 546.238281 C 638.273438 547.484375 638.53125 548.722656 638.84375 549.945312 C 639.152344 551.171875 639.511719 552.382812 639.921875 553.578125 C 640.332031 554.773438 640.792969 555.949219 641.300781 557.105469 C 641.804688 558.261719 642.359375 559.398438 642.960938 560.507812 C 643.5625 561.621094 644.207031 562.703125 644.898438 563.761719 C 645.589844 564.820312 646.324219 565.847656 647.097656 566.84375 C 647.875 567.84375 648.691406 568.804688 649.546875 569.738281 C 650.402344 570.667969 651.292969 571.558594 652.222656 572.414062 C 653.152344 573.273438 654.113281 574.089844 655.113281 574.863281 C 656.109375 575.640625 657.136719 576.375 658.191406 577.066406 C 659.25 577.757812 660.335938 578.40625 661.445312 579.007812 C 662.554688 579.609375 663.691406 580.164062 664.847656 580.671875 C 666.003906 581.183594 667.179688 581.640625 668.375 582.050781 C 669.570312 582.464844 670.777344 582.824219 672.003906 583.136719 L 672.003906 632.5 C 671.109375 632.730469 670.222656 632.988281 669.339844 633.273438 C 668.460938 633.558594 667.589844 633.871094 666.730469 634.207031 C 665.867188 634.542969 665.019531 634.90625 664.179688 635.292969 C 663.339844 635.683594 662.511719 636.09375 661.699219 636.535156 C 660.882812 636.972656 660.082031 637.433594 659.296875 637.917969 C 658.511719 638.40625 657.738281 638.914062 656.984375 639.449219 C 656.226562 639.980469 655.488281 640.535156 654.765625 641.113281 C 654.042969 641.691406 653.335938 642.289062 652.652344 642.90625 C 651.964844 643.527344 651.296875 644.167969 650.648438 644.828125 C 650 645.484375 649.375 646.164062 648.765625 646.863281 C 648.160156 647.558594 647.574219 648.273438 647.011719 649.007812 C 646.445312 649.742188 645.902344 650.488281 645.386719 651.253906 C 644.867188 652.019531 644.371094 652.800781 643.898438 653.597656 C 643.425781 654.390625 642.980469 655.199219 642.554688 656.023438 C 642.132812 656.84375 641.734375 657.679688 641.359375 658.523438 C 640.988281 659.371094 640.640625 660.226562 640.320312 661.09375 C 639.996094 661.960938 639.703125 662.835938 639.433594 663.722656 C 639.164062 664.605469 638.921875 665.5 638.707031 666.398438 C 638.492188 667.296875 638.304688 668.203125 638.144531 669.113281 C 637.984375 670.023438 637.851562 670.9375 637.746094 671.855469 C 637.640625 672.777344 637.5625 673.695312 637.511719 674.621094 C 637.460938 675.542969 637.4375 676.46875 637.445312 677.390625 C 637.449219 678.316406 637.484375 679.242188 637.542969 680.164062 C 637.605469 681.085938 637.695312 682.007812 637.808594 682.925781 C 637.925781 683.839844 638.070312 684.753906 638.242188 685.664062 C 638.414062 686.570312 638.613281 687.472656 638.839844 688.371094 C 639.0625 689.269531 639.316406 690.15625 639.597656 691.039062 C 639.875 691.921875 640.179688 692.792969 640.511719 693.65625 C 640.84375 694.519531 641.203125 695.371094 641.585938 696.210938 C 641.96875 697.054688 642.378906 697.882812 642.808594 698.699219 C 643.242188 699.519531 643.699219 700.320312 644.183594 701.109375 C 644.664062 701.898438 645.167969 702.675781 645.695312 703.433594 C 646.226562 704.191406 646.773438 704.933594 647.347656 705.660156 C 647.921875 706.386719 648.515625 707.09375 649.128906 707.785156 C 649.746094 708.476562 650.382812 709.148438 651.039062 709.796875 C 651.691406 710.449219 652.367188 711.082031 653.0625 711.695312 C 653.753906 712.304688 654.46875 712.894531 655.195312 713.464844 C 655.925781 714.03125 656.671875 714.578125 657.433594 715.101562 C 658.195312 715.625 658.972656 716.125 659.765625 716.601562 C 660.558594 717.078125 661.363281 717.53125 662.183594 717.960938 C 663.003906 718.386719 663.835938 718.789062 664.679688 719.167969 C 665.523438 719.546875 666.378906 719.898438 667.242188 720.226562 C 668.109375 720.554688 668.980469 720.851562 669.867188 721.128906 C 670.75 721.402344 671.640625 721.648438 672.539062 721.871094 C 673.433594 722.089844 674.339844 722.28125 675.25 722.449219 C 676.160156 722.617188 677.074219 722.753906 677.992188 722.863281 C 678.910156 722.976562 679.828125 723.058594 680.753906 723.113281 C 681.675781 723.171875 682.597656 723.199219 683.523438 723.199219 C 684.449219 723.199219 685.371094 723.171875 686.296875 723.113281 C 687.21875 723.058594 688.140625 722.976562 689.058594 722.863281 C 689.976562 722.753906 690.890625 722.617188 691.800781 722.449219 C 692.707031 722.28125 693.613281 722.089844 694.511719 721.871094 C 695.410156 721.648438 696.300781 721.402344 697.183594 721.128906 C 698.066406 720.851562 698.941406 720.554688 699.804688 720.226562 C 700.671875 719.898438 701.523438 719.546875 702.367188 719.167969 C 703.210938 718.789062 704.042969 718.386719 704.863281 717.960938 C 705.683594 717.53125 706.488281 717.078125 707.28125 716.601562 C 708.074219 716.125 708.851562 715.625 709.613281 715.101562 C 710.375 714.578125 711.121094 714.03125 711.851562 713.464844 C 712.582031 712.894531 713.292969 712.304688 713.984375 711.695312 C 714.679688 711.082031 715.355469 710.449219 716.011719 709.796875 C 716.667969 709.148438 717.300781 708.476562 717.917969 707.785156 C 718.53125 707.09375 719.128906 706.386719 719.699219 705.660156 C 720.273438 704.933594 720.824219 704.191406 721.351562 703.433594 C 721.878906 702.675781 722.382812 701.898438 722.867188 701.109375 C 723.347656 700.320312 723.804688 699.519531 724.238281 698.699219 C 724.671875 697.882812 725.078125 697.054688 725.460938 696.210938 C 725.84375 695.371094 726.203125 694.519531 726.535156 693.65625 C 726.867188 692.792969 727.171875 691.921875 727.453125 691.039062 C 727.730469 690.15625 727.984375 689.269531 728.210938 688.371094 C 728.433594 687.472656 728.632812 686.570312 728.804688 685.664062 C 728.976562 684.753906 729.121094 683.839844 729.238281 682.925781 C 729.355469 682.007812 729.441406 681.085938 729.503906 680.164062 C 729.566406 679.242188 729.597656 678.316406 729.605469 677.390625 C 729.609375 676.46875 729.585938 675.542969 729.535156 674.621094 C 729.488281 673.695312 729.410156 672.777344 729.304688 671.855469 C 729.199219 670.9375 729.066406 670.023438 728.902344 669.113281 C 728.742188 668.203125 728.554688 667.296875 728.339844 666.398438 C 728.125 665.5 727.882812 664.605469 727.613281 663.722656 C 727.347656 662.835938 727.050781 661.960938 726.730469 661.09375 C 726.40625 660.226562 726.058594 659.371094 725.6875 658.523438 C 725.3125 657.679688 724.914062 656.84375 724.492188 656.023438 C 724.070312 655.199219 723.621094 654.390625 723.148438 653.597656 C 722.675781 652.800781 722.183594 652.019531 721.664062 651.253906 C 721.144531 650.488281 720.601562 649.742188 720.039062 649.007812 C 719.472656 648.273438 718.886719 647.558594 718.28125 646.863281 C 717.675781 646.164062 717.046875 645.484375 716.398438 644.828125 C 715.75 644.167969 715.082031 643.527344 714.398438 642.90625 C 713.710938 642.289062 713.003906 641.691406 712.28125 641.113281 C 711.558594 640.535156 710.820312 639.980469 710.066406 639.449219 C 709.308594 638.914062 708.539062 638.40625 707.75 637.917969 C 706.964844 637.433594 706.164062 636.972656 705.351562 636.535156 C 704.535156 636.09375 703.707031 635.683594 702.871094 635.292969 C 702.03125 634.90625 701.179688 634.542969 700.320312 634.207031 C 699.457031 633.871094 698.585938 633.558594 697.707031 633.273438 C 696.828125 632.988281 695.941406 632.730469 695.042969 632.5 Z M 695.042969 632.5 " fill-opacity="1" fill-rule="nonzero"/></g></svg>