<svg xmlns="http://www.w3.org/2000/svg" xmlns:xlink="http://www.w3.org/1999/xlink" width="1024" zoomAndPan="magnify" viewBox="0 0 768 767.999994" height="1024" preserveAspectRatio="xMidYMid meet" version="1.0"><defs><clipPath id="b89c9ae291"><path d="M 35.632812 31.664062 L 732.382812 31.664062 L 732.382812 723.164062 L 35.632812 723.164062 Z M 35.632812 31.664062 " clip-rule="nonzero"/></clipPath></defs><g clip-path="url(#b89c9ae291)"><path fill="#027f5b" d="M 208.363281 164.085938 C 165.964844 184.183594 110.089844 207.066406 47.480469 212.757812 C 40.742188 213.453125 35.75 218.796875 35.863281 225.070312 C 37.492188 287.914062 39 367.714844 50.964844 403.144531 C 71.988281 469.121094 128.792969 522.90625 197.09375 546.019531 L 197.09375 671.125 C 197.09375 699.699219 220.558594 723.164062 249.132812 723.164062 L 680.203125 723.164062 C 708.894531 723.164062 732.242188 699.816406 732.242188 671.125 L 732.242188 201.605469 C 732.242188 192.546875 729.105469 184.878906 722.71875 178.488281 L 585.417969 41.1875 C 579.144531 34.917969 571.363281 31.664062 562.417969 31.664062 L 249.132812 31.664062 C 220.441406 31.664062 197.09375 55.011719 197.09375 83.820312 L 197.09375 101.011719 C 197.09375 104.613281 200 107.515625 203.597656 107.515625 L 234.03125 107.515625 C 237.632812 107.515625 240.539062 104.613281 240.539062 101.011719 L 240.539062 83.820312 C 240.539062 79.058594 244.488281 75.222656 249.132812 75.222656 L 555.679688 75.222656 L 555.679688 162.34375 C 555.679688 187.667969 576.242188 208.226562 601.5625 208.226562 L 688.800781 208.226562 L 688.800781 671.125 C 688.800781 675.769531 684.851562 679.71875 680.203125 679.71875 L 249.132812 679.71875 C 244.371094 679.71875 240.539062 675.886719 240.539062 671.125 L 240.539062 546.601562 C 240.539062 544.160156 239.144531 541.953125 237.054688 540.792969 C 298.851562 514.890625 346.707031 464.824219 367.152344 403.257812 C 382.019531 358.421875 381.207031 288.027344 382.253906 225.070312 C 382.371094 218.796875 377.375 213.453125 370.636719 212.875 C 307.792969 207.183594 251.574219 184.183594 209.058594 164.085938 Z M 417.101562 467.148438 L 640.824219 467.148438 C 643.496094 467.148438 645.585938 464.941406 645.585938 462.269531 L 645.585938 443.566406 C 645.585938 440.894531 643.496094 438.6875 640.824219 438.6875 L 417.101562 438.6875 C 414.429688 438.6875 412.339844 440.894531 412.339844 443.566406 L 412.339844 462.269531 C 412.339844 464.941406 414.429688 467.148438 417.101562 467.148438 Z M 433.480469 324.621094 L 640.824219 324.621094 C 643.496094 324.621094 645.585938 326.828125 645.585938 329.5 L 645.585938 348.316406 C 645.585938 350.988281 643.496094 353.195312 640.824219 353.195312 L 433.480469 353.195312 C 430.925781 353.195312 428.71875 350.988281 428.71875 348.316406 L 428.71875 329.5 C 428.71875 326.828125 430.925781 324.621094 433.480469 324.621094 Z M 436.730469 296.160156 L 640.824219 296.160156 C 643.496094 296.160156 645.585938 293.953125 645.585938 291.28125 L 645.585938 272.578125 C 645.585938 269.90625 643.496094 267.699219 640.824219 267.699219 L 436.730469 267.699219 C 434.175781 267.699219 432.085938 269.90625 432.085938 272.578125 L 432.085938 291.28125 C 432.085938 293.953125 434.175781 296.160156 436.730469 296.160156 Z M 305.9375 552.640625 L 640.824219 552.640625 C 643.496094 552.640625 645.585938 554.847656 645.585938 557.519531 L 645.585938 576.222656 C 645.585938 578.894531 643.496094 581.101562 640.824219 581.101562 L 305.9375 581.101562 C 303.378906 581.101562 301.289062 578.894531 301.289062 576.222656 L 301.289062 557.519531 C 301.289062 554.847656 303.378906 552.640625 305.9375 552.640625 Z M 378.421875 495.605469 L 640.824219 495.605469 C 643.496094 495.605469 645.585938 497.8125 645.585938 500.484375 L 645.585938 519.304688 C 645.585938 521.976562 643.496094 524.183594 640.824219 524.183594 L 378.421875 524.183594 C 375.863281 524.183594 373.65625 521.976562 373.65625 519.304688 L 373.65625 500.484375 C 373.65625 497.8125 375.863281 495.605469 378.421875 495.605469 Z M 431.273438 410.113281 L 640.824219 410.113281 C 643.496094 410.113281 645.585938 407.90625 645.585938 405.234375 L 645.585938 386.53125 C 645.585938 383.859375 643.496094 381.652344 640.824219 381.652344 L 431.273438 381.652344 C 428.601562 381.652344 426.511719 383.859375 426.511719 386.53125 L 426.511719 405.234375 C 426.511719 407.90625 428.601562 410.113281 431.273438 410.113281 Z M 171.074219 329.960938 L 195.816406 356.097656 L 253.199219 299.992188 C 257.847656 295.347656 265.511719 295.464844 270.160156 300.109375 L 286.886719 317.300781 C 291.417969 321.949219 291.300781 329.5 286.652344 334.144531 L 211.847656 407.324219 L 203.132812 415.921875 C 200.8125 418.246094 197.90625 419.40625 194.539062 419.289062 C 191.171875 419.171875 188.382812 417.894531 186.058594 415.457031 L 177.695312 406.511719 L 136.226562 362.488281 C 131.695312 357.726562 132.042969 350.058594 136.808594 345.644531 L 154.113281 329.382812 C 156.554688 327.058594 159.457031 326.011719 162.710938 326.128906 C 165.964844 326.246094 168.75 327.523438 171.074219 329.960938 Z M 208.59375 212.875 C 176.882812 227.859375 135.066406 245.050781 88.367188 249.230469 C 83.375 249.695312 79.539062 253.761719 79.65625 258.523438 C 80.933594 305.335938 82.097656 364.925781 91.039062 391.410156 C 107.417969 442.988281 153.070312 484.570312 207.199219 500.484375 C 209.175781 501.066406 211.035156 500.949219 213.007812 500.371094 C 267.253906 483.757812 310.117188 442.988281 327.195312 391.527344 C 338.230469 358.074219 337.648438 305.453125 338.460938 258.410156 C 338.460938 253.761719 334.742188 249.8125 329.75 249.347656 C 282.820312 245.050781 240.886719 227.972656 209.058594 212.875 Z M 208.59375 212.875 " fill-opacity="1" fill-rule="evenodd"/></g></svg>