<svg xmlns="http://www.w3.org/2000/svg" xmlns:xlink="http://www.w3.org/1999/xlink" width="1070" zoomAndPan="magnify" viewBox="0 0 802.5 135.000003" height="180" preserveAspectRatio="xMidYMid meet" version="1.0"><defs><g/></defs><path fill="#027f5b" d="M 349.351562 90.171875 C 344.015625 90.839844 338.683594 91.886719 332.203125 92.933594 C 339.636719 86.742188 343.636719 79.691406 345.921875 71.5 C 352.304688 47.964844 339.921875 25.671875 316.769531 18.148438 C 307.148438 15.003906 298 15.003906 289.425781 20.433594 C 279.710938 26.4375 271.136719 33.867188 264.941406 43.585938 C 263.703125 45.488281 262.65625 47.585938 261.800781 49.015625 C 254.84375 41.488281 248.746094 33.390625 241.316406 27.007812 C 228.167969 15.671875 212.925781 12.8125 196.253906 19.386719 C 179.867188 25.863281 162.71875 29.484375 145.09375 27.386719 C 127.277344 25.292969 109.652344 21.863281 92.121094 18.527344 C 67.542969 13.765625 43.058594 12.621094 18.765625 19.671875 C 17.242188 20.148438 15.8125 20.816406 14.285156 21.386719 C 14.476562 21.765625 14.574219 22.148438 14.761719 22.53125 C 15.527344 22.433594 16.289062 22.339844 17.050781 22.148438 C 40.675781 15.003906 64.398438 15.289062 88.40625 19.957031 C 117.65625 25.578125 146.710938 34.628906 178.34375 26.910156 C 167.289062 36.914062 166.242188 49.300781 165.003906 61.304688 C 163.859375 72.453125 168.242188 82.167969 176.628906 89.886719 C 200.539062 112.371094 236.648438 105.511719 250.460938 75.976562 C 251.605469 73.402344 253.035156 71.023438 254.464844 68.257812 C 256.65625 71.878906 258.371094 74.929688 260.371094 77.882812 C 275.613281 99.890625 298.191406 107.699219 321.34375 99.03125 C 338.585938 92.648438 356.402344 89.886719 374.695312 91.980469 L 411.5625 90.933594 C 390.320312 90.550781 369.644531 87.503906 349.351562 90.171875 Z M 261.988281 55.398438 C 262.277344 55.492188 262.65625 55.589844 262.847656 55.875 C 267.132812 62.542969 271.324219 69.210938 275.613281 75.976562 C 275.042969 75.59375 274.46875 75.308594 273.898438 74.929688 C 265.230469 69.496094 259.226562 61.398438 261.988281 55.398438 Z M 240.839844 29.769531 C 228.074219 25.386719 217.785156 17.195312 204.257812 19.957031 C 213.117188 15.195312 231.027344 19.765625 240.839844 29.769531 Z M 236.648438 34.628906 C 229.597656 31.007812 223.40625 27.769531 216.070312 24.054688 C 224.546875 25.578125 231.40625 27.386719 236.648438 34.628906 Z M 203.304688 23.957031 C 209.6875 25.578125 215.972656 27.199219 222.355469 28.722656 C 222.261719 29.101562 222.167969 29.578125 222.070312 29.960938 C 215.785156 28.4375 209.496094 26.816406 203.113281 25.292969 C 203.207031 24.816406 203.304688 24.339844 203.304688 23.957031 Z M 166.71875 57.875 C 168.148438 70.546875 171.769531 80.835938 180.914062 90.171875 C 170.625 82.929688 164.335938 68.925781 166.71875 57.875 Z M 198.730469 95.984375 C 198.730469 95.507812 198.824219 95.125 198.824219 94.648438 C 204.921875 94.933594 211.019531 95.316406 217.023438 95.601562 C 217.023438 96.078125 216.925781 96.554688 216.925781 96.9375 C 210.828125 96.746094 204.828125 96.363281 198.730469 95.984375 Z M 212.066406 100.554688 C 211.972656 100.269531 211.878906 99.984375 211.78125 99.792969 C 217.878906 97.886719 223.976562 95.984375 230.074219 93.980469 C 230.265625 94.269531 230.457031 94.554688 230.550781 94.933594 C 224.453125 96.839844 218.261719 98.746094 212.066406 100.554688 Z M 252.082031 66.355469 C 244.175781 81.789062 231.882812 93.410156 210.449219 93.507812 C 189.964844 93.410156 174.816406 81.5 172.910156 63.6875 C 171.484375 50.445312 176.4375 39.296875 186.726562 31.105469 C 193.015625 26.054688 200.824219 27.199219 208.160156 28.53125 C 221.785156 31.007812 233.410156 37.105469 241.886719 48.347656 C 245.316406 52.921875 248.652344 57.492188 251.796875 62.351562 C 252.460938 63.210938 252.652344 65.304688 252.082031 66.355469 Z M 256.75 58.445312 C 250.082031 49.015625 243.984375 40.441406 237.316406 31.007812 C 249.605469 37.390625 258.464844 49.394531 256.75 58.445312 Z M 305.71875 98.652344 C 301.71875 100.078125 296.859375 99.792969 291.808594 98.269531 C 291.140625 98.078125 290.570312 97.886719 289.902344 97.601562 C 284.1875 95.507812 278.28125 91.980469 273.039062 87.597656 C 272.46875 87.121094 271.898438 86.644531 271.324219 86.074219 C 270.183594 85.027344 269.136719 83.980469 268.085938 82.929688 C 267.609375 82.359375 267.039062 81.789062 266.5625 81.3125 C 265.609375 80.167969 264.65625 79.023438 263.800781 77.882812 C 260.371094 73.214844 257.988281 68.257812 257.320312 63.402344 C 257.703125 63.210938 258.082031 62.925781 258.464844 62.734375 C 260.75 66.542969 262.941406 70.449219 265.324219 74.261719 C 269.421875 80.738281 274.28125 86.074219 279.902344 89.980469 C 287.234375 95.03125 295.8125 97.984375 305.71875 98.652344 Z M 268.085938 74.453125 C 281.328125 81.882812 290.855469 96.269531 308.289062 95.695312 C 290.378906 97.125 278.28125 87.789062 268.085938 74.453125 Z M 310.480469 90.457031 C 294.761719 89.980469 281.996094 84.457031 274.089844 69.878906 C 271.421875 65.019531 268.085938 60.445312 264.847656 55.96875 C 263.324219 53.875 263.132812 52.160156 264.941406 50.253906 C 269.230469 45.585938 272.945312 40.15625 277.898438 36.152344 C 296.382812 21.101562 315.914062 22.816406 332.679688 39.964844 C 340.585938 47.964844 344.113281 57.113281 341.160156 67.972656 C 338.109375 78.546875 326.011719 92.078125 310.480469 90.457031 Z M 319.152344 96.9375 C 325.058594 92.839844 330.871094 88.648438 336.777344 84.550781 C 332.488281 91.027344 326.488281 95.03125 319.152344 96.9375 Z M 319.152344 96.9375 " fill-opacity="1" fill-rule="nonzero"/><path fill="#027f5b" d="M 419.089844 91.410156 L 383.839844 91.410156 C 384.886719 89.21875 393.75 92.554688 393.75 83.40625 L 393.75 59.496094 C 393.75 59.207031 393.75 59.019531 393.75 58.828125 C 393.75 58.636719 393.75 58.351562 393.75 58.160156 C 393.75 56.921875 393.558594 55.96875 393.367188 55.300781 C 393.082031 54.445312 392.511719 53.398438 391.460938 52.253906 L 387.078125 47.015625 C 388.03125 46.632812 389.269531 46.0625 390.605469 45.394531 C 391.558594 44.917969 392.699219 44.347656 393.84375 43.679688 C 394.226562 43.488281 394.605469 43.296875 394.988281 43.109375 C 398.226562 41.296875 402.988281 38.628906 409.277344 34.914062 L 409.277344 83.503906 C 409.183594 92.554688 417.945312 89.3125 419.089844 91.410156 Z M 392.699219 16.621094 C 392.699219 11.859375 396.605469 7.953125 401.371094 7.953125 C 406.132812 7.953125 410.039062 11.859375 410.039062 16.621094 C 410.039062 21.386719 406.132812 25.292969 401.371094 25.292969 C 396.703125 25.292969 392.699219 21.386719 392.699219 16.621094 Z M 392.699219 16.621094 " fill-opacity="1" fill-rule="nonzero"/><path fill="#027f5b" d="M 465.105469 83.40625 L 465.011719 49.492188 C 465.011719 43.585938 462.4375 38.535156 457.199219 38.535156 C 452.816406 38.535156 448.910156 40.726562 443.480469 44.347656 L 443.480469 49.109375 L 443.574219 83.3125 C 443.574219 92.457031 451.101562 89.21875 452.054688 91.316406 L 419.757812 91.316406 C 420.710938 89.125 428.234375 92.457031 428.234375 83.3125 L 428.140625 66.542969 L 428.140625 59.304688 C 428.140625 59.019531 428.140625 58.828125 428.140625 58.636719 C 428.140625 58.542969 428.140625 58.445312 428.140625 58.351562 C 428.140625 58.257812 428.140625 58.160156 428.140625 58.066406 C 428.140625 56.828125 427.949219 55.875 427.761719 55.207031 C 427.472656 54.351562 426.902344 53.300781 425.855469 52.160156 L 421.472656 46.917969 C 422.425781 46.539062 423.664062 45.964844 424.996094 45.300781 C 425.1875 45.203125 425.472656 45.011719 425.757812 44.917969 C 426.519531 44.535156 427.378906 44.0625 428.234375 43.585938 C 428.617188 43.394531 429 43.203125 429.378906 43.011719 C 432.617188 41.203125 437.382812 38.535156 443.671875 34.820312 L 443.671875 43.773438 C 452.722656 38.152344 458.246094 34.820312 466.535156 34.820312 C 474.25 34.820312 480.636719 39.203125 480.636719 48.730469 L 480.730469 83.40625 C 480.730469 92.554688 488.257812 89.3125 489.210938 91.410156 L 456.816406 91.410156 C 457.578125 89.3125 465.105469 92.554688 465.105469 83.40625 Z M 465.105469 83.40625 " fill-opacity="1" fill-rule="nonzero"/><path fill="#027f5b" d="M 528.175781 37.582031 L 514.644531 37.582031 L 514.644531 83.3125 C 514.644531 92.554688 522.269531 89.21875 523.125 91.410156 L 490.542969 91.410156 C 491.496094 89.21875 499.023438 92.554688 499.023438 83.3125 L 499.117188 37.582031 L 491.496094 37.582031 C 491.496094 37.582031 499.878906 28.722656 504.644531 16.8125 C 504.929688 16.050781 505.121094 15.382812 505.40625 14.71875 C 505.5 14.527344 505.5 14.429688 505.597656 14.242188 C 509.597656 4.617188 514.359375 3.09375 520.078125 3.09375 C 525.316406 3.09375 529.605469 6.523438 531.222656 10.621094 L 518.265625 19.480469 C 518.171875 16.71875 518.171875 16.71875 518.171875 15.003906 C 518.171875 9 517.789062 4.523438 514.742188 5 C 511.882812 5.382812 510.550781 9.097656 510.550781 15.574219 C 510.550781 21.386719 513.3125 29.101562 514.457031 37.105469 L 528.269531 37.105469 Z M 528.175781 37.582031 " fill-opacity="1" fill-rule="nonzero"/><path fill="#027f5b" d="M 564.757812 91.410156 L 529.507812 91.410156 C 530.554688 89.21875 539.417969 92.554688 539.417969 83.40625 L 539.417969 59.496094 C 539.417969 59.207031 539.417969 59.019531 539.417969 58.828125 C 539.417969 58.636719 539.417969 58.351562 539.417969 58.160156 C 539.417969 56.921875 539.226562 55.96875 539.035156 55.300781 C 538.75 54.445312 538.179688 53.398438 537.128906 52.253906 L 532.746094 47.015625 C 533.699219 46.632812 534.9375 46.0625 536.273438 45.394531 C 537.226562 44.917969 538.367188 44.347656 539.511719 43.679688 C 539.894531 43.488281 540.273438 43.296875 540.65625 43.109375 C 543.894531 41.296875 548.65625 38.628906 554.945312 34.914062 L 554.945312 83.503906 C 554.851562 92.554688 563.617188 89.3125 564.757812 91.410156 Z M 538.367188 16.621094 C 538.367188 11.859375 542.273438 7.953125 547.039062 7.953125 C 551.800781 7.953125 555.707031 11.859375 555.707031 16.621094 C 555.707031 21.386719 551.800781 25.292969 547.039062 25.292969 C 542.371094 25.292969 538.367188 21.386719 538.367188 16.621094 Z M 538.367188 16.621094 " fill-opacity="1" fill-rule="nonzero"/><path fill="#027f5b" d="M 610.773438 83.40625 L 610.679688 49.492188 C 610.679688 43.585938 608.105469 38.535156 602.867188 38.535156 C 598.484375 38.535156 594.578125 40.726562 589.148438 44.347656 L 589.148438 49.109375 L 589.242188 83.3125 C 589.242188 92.457031 596.769531 89.21875 597.722656 91.316406 L 565.425781 91.316406 C 566.378906 89.125 573.90625 92.457031 573.90625 83.3125 L 573.808594 66.542969 L 573.808594 59.304688 C 573.808594 59.019531 573.808594 58.828125 573.808594 58.636719 C 573.808594 58.542969 573.808594 58.445312 573.808594 58.351562 C 573.808594 58.257812 573.808594 58.160156 573.808594 58.066406 C 573.808594 56.828125 573.617188 55.875 573.429688 55.207031 C 573.140625 54.351562 572.570312 53.300781 571.523438 52.160156 L 567.140625 46.917969 C 568.09375 46.539062 569.332031 45.964844 570.664062 45.300781 C 570.855469 45.203125 571.140625 45.011719 571.425781 44.917969 C 572.191406 44.535156 573.046875 44.0625 573.90625 43.585938 C 574.285156 43.394531 574.667969 43.203125 575.046875 43.011719 C 578.285156 41.203125 583.050781 38.535156 589.339844 34.820312 L 589.339844 43.773438 C 598.390625 38.152344 603.914062 34.820312 612.203125 34.820312 C 619.921875 34.820312 626.304688 39.203125 626.304688 48.730469 L 626.398438 83.40625 C 626.398438 92.554688 633.925781 89.3125 634.878906 91.410156 L 602.484375 91.410156 C 603.246094 89.3125 610.773438 92.554688 610.773438 83.40625 Z M 610.773438 83.40625 " fill-opacity="1" fill-rule="nonzero"/><path fill="#027f5b" d="M 670.984375 90.648438 L 635.257812 90.648438 C 636.402344 88.457031 645.355469 91.792969 645.355469 82.453125 L 645.355469 58.160156 C 645.355469 57.875 645.355469 57.683594 645.355469 57.398438 C 645.355469 57.207031 645.355469 56.921875 645.355469 56.730469 C 645.355469 55.492188 645.167969 54.539062 644.976562 53.875 C 644.691406 53.015625 644.023438 51.96875 643.070312 50.824219 L 638.59375 45.488281 C 639.640625 45.011719 640.785156 44.535156 642.117188 43.871094 C 643.070312 43.394531 644.214844 42.820312 645.355469 42.15625 C 645.738281 41.964844 646.121094 41.773438 646.5 41.582031 C 649.738281 39.773438 654.597656 37.011719 660.980469 33.296875 L 660.980469 82.453125 C 660.980469 91.792969 669.9375 88.457031 670.984375 90.648438 Z M 719 81.214844 C 719 83.121094 714.046875 92.839844 700.328125 92.839844 C 696.613281 92.839844 693.5625 92.078125 691.085938 90.742188 C 686.417969 88.171875 684.132812 83.3125 684.132812 77.023438 L 684.132812 71.210938 L 684.035156 47.109375 L 684.035156 39.773438 C 684.035156 39.488281 684.035156 39.296875 684.035156 39.011719 C 684.035156 38.820312 684.035156 38.535156 684.035156 38.34375 C 684.035156 37.105469 683.847656 36.152344 683.65625 35.484375 C 683.371094 34.628906 682.703125 33.582031 681.75 32.34375 L 677.558594 27.386719 C 674.128906 29.101562 672.128906 29.960938 672.03125 29.960938 C 669.554688 31.007812 666.886719 31.484375 664.222656 31.484375 C 655.550781 31.484375 647.738281 25.960938 644.878906 17.859375 C 644.5 16.910156 644.308594 15.765625 644.308594 14.71875 C 644.308594 9.859375 648.3125 5.855469 653.167969 5.855469 C 658.027344 5.855469 662.03125 9.859375 662.03125 14.71875 C 662.03125 19.578125 658.027344 23.480469 653.167969 23.480469 C 650.597656 23.480469 648.214844 22.339844 646.597656 20.527344 C 650.027344 26.910156 656.789062 31.105469 664.222656 31.105469 C 666.886719 31.105469 669.460938 30.628906 671.84375 29.578125 C 671.9375 29.578125 684.800781 23.957031 699.566406 14.621094 L 699.660156 14.8125 L 699.660156 15.097656 L 699.757812 37.582031 L 716.714844 37.582031 L 716.714844 38.152344 L 699.757812 38.152344 L 699.851562 80.835938 C 700.328125 87.121094 703.472656 89.601562 707.664062 89.601562 C 711.570312 89.601562 714.140625 88.074219 716.332031 85.503906 C 717.476562 84.265625 717.570312 83.882812 718.144531 82.929688 C 718.429688 82.453125 719 80.550781 719 81.214844 Z M 719 81.214844 " fill-opacity="1" fill-rule="nonzero"/><path fill="#027f5b" d="M 778.734375 37.390625 C 778.164062 37.964844 776.640625 37.867188 774.257812 39.582031 C 771.6875 41.394531 768.253906 45.777344 764.824219 53.777344 L 749.390625 89.601562 L 745.582031 98.363281 L 742.53125 105.890625 C 733.863281 127.136719 719.953125 123.609375 719.953125 123.609375 L 721.097656 109.128906 C 722.242188 109.988281 723.382812 110.75 724.429688 111.320312 C 725.859375 112.082031 727.195312 112.65625 728.433594 112.941406 C 731.480469 113.796875 733.863281 113.320312 735.769531 112.464844 C 735.960938 112.371094 736.054688 112.273438 736.246094 112.273438 C 736.4375 112.179688 736.53125 112.082031 736.722656 111.988281 C 736.816406 111.988281 736.816406 111.894531 736.910156 111.894531 C 737.484375 111.511719 738.054688 111.035156 738.625 110.464844 C 739.292969 109.796875 739.960938 108.941406 740.53125 108.082031 C 740.53125 108.082031 740.53125 107.988281 740.53125 107.988281 C 740.53125 107.988281 740.53125 107.988281 740.53125 107.890625 L 740.628906 107.699219 C 740.722656 107.605469 740.722656 107.511719 740.816406 107.414062 C 741.007812 107.035156 741.105469 106.75 741.292969 106.273438 L 743.390625 101.316406 L 743.484375 101.128906 L 746.535156 93.695312 L 744.628906 89.503906 L 724.621094 44.726562 C 721 36.726562 716.523438 38.820312 715.570312 37.296875 L 745.199219 37.296875 C 743.867188 37.964844 740.339844 37.964844 740.339844 41.582031 C 740.339844 42.535156 741.292969 44.726562 742.054688 46.441406 L 754.535156 75.214844 L 761.300781 59.398438 C 762.636719 56.351562 763.585938 52.160156 763.585938 48.539062 C 763.585938 39.296875 755.964844 38.628906 754.535156 37.296875 L 778.734375 37.296875 Z M 778.734375 37.390625 " fill-opacity="1" fill-rule="nonzero"/><path fill="#027f5b" d="M 519.027344 38.34375 C 515.597656 38.34375 512.929688 38.152344 512.457031 37.773438 L 512.835938 37.488281 L 513.121094 37.105469 C 513.882812 37.488281 521.410156 37.488281 528.175781 37.203125 L 528.175781 38.152344 C 525.125 38.25 521.792969 38.34375 519.027344 38.34375 Z M 519.027344 38.34375 " fill-opacity="1" fill-rule="nonzero"/><path fill="#027f5b" d="M 665.171875 31.390625 C 658.21875 31.390625 651.265625 28.339844 645.738281 19.195312 C 645.546875 18.910156 645.355469 18.527344 645.261719 18.527344 L 645.929688 17.859375 C 646.023438 17.957031 646.214844 18.242188 646.5 18.71875 C 655.933594 34.4375 670.128906 31.484375 680.417969 26.246094 L 680.894531 27.101562 C 676.226562 29.484375 670.699219 31.390625 665.171875 31.390625 Z M 665.171875 31.390625 " fill-opacity="1" fill-rule="nonzero"/><path fill="#027f5b" d="M 696.898438 38.058594 L 740.152344 38.058594 L 740.152344 39.011719 L 696.898438 39.011719 Z M 696.898438 38.058594 " fill-opacity="1" fill-rule="nonzero"/><path fill="#027f5b" d="M 586.671875 46.347656 L 586.003906 45.679688 C 586.289062 45.394531 592.957031 39.011719 604.582031 37.011719 L 604.773438 37.964844 C 593.339844 39.867188 586.765625 46.25 586.671875 46.347656 Z M 586.671875 46.347656 " fill-opacity="1" fill-rule="nonzero"/><path fill="#027f5b" d="M 440.90625 46.347656 L 440.242188 45.679688 C 440.527344 45.394531 447.195312 39.011719 458.816406 37.011719 L 459.007812 37.964844 C 447.574219 39.867188 440.90625 46.25 440.90625 46.347656 Z M 440.90625 46.347656 " fill-opacity="1" fill-rule="nonzero"/><g fill="#027f5b" fill-opacity="1"><g transform="translate(406.237352, 123.391841)"><g><path d="M 16.375 -16.546875 L 10.484375 -16.546875 L 10.484375 0 L 6.484375 0 L 6.484375 -16.546875 L 0.578125 -16.546875 L 0.578125 -19.90625 L 16.375 -19.90625 Z M 16.375 -16.546875 "/></g></g></g><g fill="#027f5b" fill-opacity="1"><g transform="translate(427.386352, 123.391841)"><g><path d="M 15.375 -19.265625 C 16.207031 -18.910156 16.898438 -18.285156 17.453125 -17.390625 C 18.015625 -16.503906 18.296875 -15.476562 18.296875 -14.3125 C 18.296875 -12.832031 17.832031 -11.585938 16.90625 -10.578125 C 15.988281 -9.566406 14.695312 -8.957031 13.03125 -8.75 C 13.757812 -8.25 14.3125 -7.835938 14.6875 -7.515625 C 15.070312 -7.191406 15.488281 -6.738281 15.9375 -6.15625 C 16.394531 -5.570312 16.957031 -4.742188 17.625 -3.671875 L 19.90625 0 L 15.09375 0 L 11.875 -4.84375 C 11.144531 -5.914062 10.582031 -6.675781 10.1875 -7.125 C 9.789062 -7.582031 9.367188 -7.894531 8.921875 -8.0625 C 8.472656 -8.226562 7.84375 -8.3125 7.03125 -8.3125 L 6.03125 -8.3125 L 6.03125 0 L 2.03125 0 L 2.03125 -19.90625 L 10.734375 -19.90625 C 11.671875 -19.90625 12.523438 -19.863281 13.296875 -19.78125 C 14.066406 -19.695312 14.757812 -19.523438 15.375 -19.265625 Z M 12.53125 -11.703125 C 13.019531 -11.847656 13.410156 -12.125 13.703125 -12.53125 C 14.003906 -12.9375 14.15625 -13.445312 14.15625 -14.0625 C 14.15625 -15.125 13.695312 -15.859375 12.78125 -16.265625 C 12.539062 -16.367188 12.242188 -16.441406 11.890625 -16.484375 C 11.546875 -16.523438 10.945312 -16.546875 10.09375 -16.546875 L 6.03125 -16.546875 L 6.03125 -11.484375 L 9.5625 -11.484375 C 11.007812 -11.484375 12 -11.554688 12.53125 -11.703125 Z M 12.53125 -11.703125 "/></g></g></g><g fill="#027f5b" fill-opacity="1"><g transform="translate(451.620078, 123.391841)"><g><path d="M 19.984375 0 L 15.59375 0 L 13.875 -4.5 L 5.921875 -4.5 L 4.28125 0 L 0 0 L 7.75 -19.90625 L 12.015625 -19.90625 Z M 7.140625 -7.859375 L 12.59375 -7.859375 L 9.84375 -15.265625 Z M 7.140625 -7.859375 "/></g></g></g><g fill="#027f5b" fill-opacity="1"><g transform="translate(475.853803, 123.391841)"><g><path d="M 14.09375 -6.609375 L 14.09375 -19.90625 L 17.8125 -19.90625 L 17.8125 0 L 13.78125 0 L 5.78125 -12.984375 L 5.78125 0 L 2.0625 0 L 2.0625 -19.90625 L 5.953125 -19.90625 Z M 14.09375 -6.609375 "/></g></g></g><g fill="#027f5b" fill-opacity="1"><g transform="translate(500.087529, 123.391841)"><g><path d="M 8.984375 -20.234375 C 11.179688 -20.234375 12.976562 -19.742188 14.375 -18.765625 C 15.78125 -17.785156 16.519531 -16.265625 16.59375 -14.203125 L 12.5625 -14.03125 C 12.4375 -14.957031 12.097656 -15.671875 11.546875 -16.171875 C 11.003906 -16.671875 10.128906 -16.921875 8.921875 -16.921875 C 8.085938 -16.921875 7.316406 -16.769531 6.609375 -16.46875 C 5.910156 -16.175781 5.5625 -15.671875 5.5625 -14.953125 C 5.5625 -14.335938 5.875 -13.847656 6.5 -13.484375 C 7.132812 -13.128906 8.257812 -12.765625 9.875 -12.390625 C 11.375 -12.046875 12.609375 -11.671875 13.578125 -11.265625 C 14.546875 -10.867188 15.382812 -10.226562 16.09375 -9.34375 C 16.800781 -8.46875 17.15625 -7.28125 17.15625 -5.78125 C 17.15625 -5.019531 16.976562 -4.210938 16.625 -3.359375 C 16.269531 -2.503906 15.695312 -1.773438 14.90625 -1.171875 C 14.3125 -0.679688 13.523438 -0.304688 12.546875 -0.046875 C 11.578125 0.203125 10.453125 0.328125 9.171875 0.328125 C 6.691406 0.328125 4.785156 -0.226562 3.453125 -1.34375 C 2.117188 -2.46875 1.300781 -4.179688 1 -6.484375 L 4.890625 -6.84375 C 5.316406 -4.300781 6.765625 -3.03125 9.234375 -3.03125 C 10.523438 -3.03125 11.5 -3.300781 12.15625 -3.84375 C 12.8125 -4.394531 13.140625 -5.039062 13.140625 -5.78125 C 13.140625 -6.320312 12.976562 -6.75 12.65625 -7.0625 C 12.332031 -7.375 11.820312 -7.644531 11.125 -7.875 C 10.4375 -8.113281 9.347656 -8.40625 7.859375 -8.75 C 6.015625 -9.164062 4.53125 -9.851562 3.40625 -10.8125 C 2.28125 -11.78125 1.71875 -13.066406 1.71875 -14.671875 C 1.71875 -15.546875 1.941406 -16.40625 2.390625 -17.25 C 2.835938 -18.09375 3.601562 -18.800781 4.6875 -19.375 C 5.769531 -19.945312 7.203125 -20.234375 8.984375 -20.234375 Z M 8.984375 -20.234375 "/></g></g></g><g fill="#027f5b" fill-opacity="1"><g transform="translate(522.792785, 123.391841)"><g><path d="M 13.8125 -19.4375 C 14.8125 -19.007812 15.632812 -18.332031 16.28125 -17.40625 C 16.9375 -16.476562 17.265625 -15.269531 17.265625 -13.78125 C 17.265625 -12.34375 16.941406 -11.144531 16.296875 -10.1875 C 15.660156 -9.226562 14.851562 -8.546875 13.875 -8.140625 C 12.875 -7.710938 11.28125 -7.5 9.09375 -7.5 L 6.03125 -7.5 L 6.03125 0 L 2.03125 0 L 2.03125 -19.90625 L 8.953125 -19.90625 C 10.234375 -19.90625 11.25 -19.867188 12 -19.796875 C 12.757812 -19.734375 13.363281 -19.613281 13.8125 -19.4375 Z M 13.125 -13.734375 C 13.125 -14.921875 12.539062 -15.765625 11.375 -16.265625 C 10.945312 -16.453125 10.046875 -16.546875 8.671875 -16.546875 L 6.03125 -16.546875 L 6.03125 -10.875 L 8.671875 -10.875 C 10.046875 -10.875 11.128906 -11.0625 11.921875 -11.4375 C 12.722656 -11.820312 13.125 -12.585938 13.125 -13.734375 Z M 13.125 -13.734375 "/></g></g></g><g fill="#027f5b" fill-opacity="1"><g transform="translate(542.635506, 123.391841)"><g><path d="M 19.984375 0 L 15.59375 0 L 13.875 -4.5 L 5.921875 -4.5 L 4.28125 0 L 0 0 L 7.75 -19.90625 L 12.015625 -19.90625 Z M 7.140625 -7.859375 L 12.59375 -7.859375 L 9.84375 -15.265625 Z M 7.140625 -7.859375 "/></g></g></g><g fill="#027f5b" fill-opacity="1"><g transform="translate(566.869231, 123.391841)"><g><path d="M 15.375 -19.265625 C 16.207031 -18.910156 16.898438 -18.285156 17.453125 -17.390625 C 18.015625 -16.503906 18.296875 -15.476562 18.296875 -14.3125 C 18.296875 -12.832031 17.832031 -11.585938 16.90625 -10.578125 C 15.988281 -9.566406 14.695312 -8.957031 13.03125 -8.75 C 13.757812 -8.25 14.3125 -7.835938 14.6875 -7.515625 C 15.070312 -7.191406 15.488281 -6.738281 15.9375 -6.15625 C 16.394531 -5.570312 16.957031 -4.742188 17.625 -3.671875 L 19.90625 0 L 15.09375 0 L 11.875 -4.84375 C 11.144531 -5.914062 10.582031 -6.675781 10.1875 -7.125 C 9.789062 -7.582031 9.367188 -7.894531 8.921875 -8.0625 C 8.472656 -8.226562 7.84375 -8.3125 7.03125 -8.3125 L 6.03125 -8.3125 L 6.03125 0 L 2.03125 0 L 2.03125 -19.90625 L 10.734375 -19.90625 C 11.671875 -19.90625 12.523438 -19.863281 13.296875 -19.78125 C 14.066406 -19.695312 14.757812 -19.523438 15.375 -19.265625 Z M 12.53125 -11.703125 C 13.019531 -11.847656 13.410156 -12.125 13.703125 -12.53125 C 14.003906 -12.9375 14.15625 -13.445312 14.15625 -14.0625 C 14.15625 -15.125 13.695312 -15.859375 12.78125 -16.265625 C 12.539062 -16.367188 12.242188 -16.441406 11.890625 -16.484375 C 11.546875 -16.523438 10.945312 -16.546875 10.09375 -16.546875 L 6.03125 -16.546875 L 6.03125 -11.484375 L 9.5625 -11.484375 C 11.007812 -11.484375 12 -11.554688 12.53125 -11.703125 Z M 12.53125 -11.703125 "/></g></g></g><g fill="#027f5b" fill-opacity="1"><g transform="translate(591.102957, 123.391841)"><g><path d="M 16.796875 -16.546875 L 6.03125 -16.546875 L 6.03125 -12.125 L 16.03125 -12.125 L 16.03125 -8.75 L 6.03125 -8.75 L 6.03125 -3.359375 L 17.15625 -3.359375 L 17.15625 0 L 2.03125 0 L 2.03125 -19.90625 L 16.796875 -19.90625 Z M 16.796875 -16.546875 "/></g></g></g><g fill="#027f5b" fill-opacity="1"><g transform="translate(613.808202, 123.391841)"><g><path d="M 14.09375 -6.609375 L 14.09375 -19.90625 L 17.8125 -19.90625 L 17.8125 0 L 13.78125 0 L 5.78125 -12.984375 L 5.78125 0 L 2.0625 0 L 2.0625 -19.90625 L 5.953125 -19.90625 Z M 14.09375 -6.609375 "/></g></g></g><g fill="#027f5b" fill-opacity="1"><g transform="translate(638.041938, 123.391841)"><g><path d="M 10.59375 -20.234375 C 12.625 -20.234375 14.34375 -19.738281 15.75 -18.75 C 17.164062 -17.757812 18.101562 -16.3125 18.5625 -14.40625 L 14.59375 -13.453125 C 14.351562 -14.492188 13.863281 -15.3125 13.125 -15.90625 C 12.382812 -16.5 11.472656 -16.796875 10.390625 -16.796875 C 8.835938 -16.796875 7.625 -16.242188 6.75 -15.140625 C 5.882812 -14.035156 5.453125 -12.351562 5.453125 -10.09375 C 5.453125 -8.019531 5.804688 -6.335938 6.515625 -5.046875 C 7.234375 -3.753906 8.507812 -3.109375 10.34375 -3.109375 C 11.507812 -3.109375 12.453125 -3.476562 13.171875 -4.21875 C 13.898438 -4.96875 14.421875 -6 14.734375 -7.3125 L 18.625 -6.09375 C 18.082031 -3.914062 17.097656 -2.300781 15.671875 -1.25 C 14.242188 -0.195312 12.476562 0.328125 10.375 0.328125 C 8.570312 0.328125 6.984375 -0.0859375 5.609375 -0.921875 C 4.242188 -1.753906 3.1875 -2.929688 2.4375 -4.453125 C 1.6875 -5.972656 1.3125 -7.75 1.3125 -9.78125 C 1.3125 -11.601562 1.625 -13.304688 2.25 -14.890625 C 2.882812 -16.472656 3.894531 -17.757812 5.28125 -18.75 C 6.664062 -19.738281 8.4375 -20.234375 10.59375 -20.234375 Z M 10.59375 -20.234375 "/></g></g></g><g fill="#027f5b" fill-opacity="1"><g transform="translate(662.275675, 123.391841)"><g><path d="M 5.890625 0 L 1.890625 0 L 1.890625 -19.90625 L 5.890625 -19.90625 Z M 5.890625 0 "/></g></g></g><g fill="#027f5b" fill-opacity="1"><g transform="translate(674.17049, 123.391841)"><g><path d="M 19.984375 0 L 15.59375 0 L 13.875 -4.5 L 5.921875 -4.5 L 4.28125 0 L 0 0 L 7.75 -19.90625 L 12.015625 -19.90625 Z M 7.140625 -7.859375 L 12.59375 -7.859375 L 9.84375 -15.265625 Z M 7.140625 -7.859375 "/></g></g></g></svg>