<?xml version='1.0' encoding='utf-8'?>
<svg xmlns="http://www.w3.org/2000/svg" xmlns:ns1="https://boxy-svg.com" version="1.1" id="svg2" width="1070" height="180" viewBox="0 0 1070 180">
  <defs id="defs6">
    <clipPath clipPathUnits="userSpaceOnUse" id="clipPath16">
      <path d="M 0,199 H 841.89 V 0 H 0 Z" id="path14" />
    </clipPath>
    <ns1:guide x="827.422" y="106.775" angle="90" />
    <ns1:guide x="994.641" y="98.408" angle="-90" />
    <ns1:guide x="735.573" y="96.905" angle="180" />
    <ns1:guide x="820.876" y="101.692" angle="0" />
    <ns1:guide x="617.093" y="122.649" angle="0" />
    <ns1:guide x="821.5445412182823" y="107.1381304340517" angle="0" />
  </defs>
  <g id="logo" transform="matrix(1.333333, 0, 0, -1.333333, -16.544367, 216.680801)">
    <g id="superior" transform="matrix(1, 0, 0, 1, 0.181644, -0.08663)">
      <g id="nudo" clip-path="url(#clipPath16)">
        <g id="g18" transform="translate(332.0908,62.772)">
          <path d="M 0,0 C 6.151,4.332 12.303,8.664 18.455,12.996 13.996,6.226 7.753,2.025 0,0 m -9.13,6.832 c -16.527,0.479 -29.914,6.336 -38.2,21.587 -2.784,5.124 -6.272,9.89 -9.703,14.628 -1.623,2.242 -1.788,3.956 0.082,6.002 4.522,4.946 8.42,10.634 13.551,14.819 19.382,15.807 39.862,13.999 57.473,-3.956 C 22.351,51.471 26.068,41.953 22.969,30.487 19.951,19.319 7.193,5.175 -9.13,6.832 m -44.413,16.786 c 13.896,-7.763 23.871,-22.925 42.231,-22.266 -18.841,-1.566 -31.623,8.3 -42.231,22.266 m 39.488,-25.352 c -4.196,-1.476 -9.278,-1.17 -14.588,0.438 -0.664,0.201 -1.331,0.423 -2.001,0.664 -6.025,2.167 -12.235,5.905 -17.691,10.53 -0.607,0.514 -1.204,1.039 -1.79,1.574 -1.173,1.07 -2.303,2.179 -3.381,3.321 -0.539,0.572 -1.064,1.151 -1.576,1.738 -1.022,1.173 -1.987,2.374 -2.884,3.597 -3.587,4.892 -6.084,10.123 -6.835,15.214 0.409,0.245 0.817,0.491 1.226,0.737 2.408,-4.036 4.735,-8.122 7.238,-12.098 4.293,-6.819 9.37,-12.359 15.277,-16.536 7.596,-5.371 16.564,-8.49 27.005,-9.179 m -51.457,42.136 c -6.982,9.865 -13.376,18.898 -20.395,28.815 12.901,-6.663 22.183,-19.331 20.395,-28.815 m -4.88,-8.274 C -78.684,15.976 -91.619,3.68 -114.101,3.677 c -21.518,0.148 -37.408,12.552 -39.411,31.279 -1.489,13.93 3.666,25.571 14.522,34.198 6.627,5.266 14.81,4.128 22.529,2.734 14.284,-2.58 26.465,-9.019 35.417,-20.751 3.631,-4.76 7.109,-9.649 10.389,-14.655 0.708,-1.079 0.848,-3.212 0.263,-4.354 M -112.388,-3.82 c -0.089,0.281 -0.177,0.563 -0.266,0.844 6.388,2.021 12.775,4.042 19.162,6.063 0.183,-0.322 0.367,-0.644 0.55,-0.966 -6.482,-1.981 -12.964,-3.961 -19.446,-5.941 M -126.421,1 c 0.025,0.452 0.051,0.903 0.077,1.354 6.383,-0.342 12.766,-0.685 19.15,-1.027 -0.028,-0.479 -0.055,-0.958 -0.082,-1.436 -6.382,0.37 -12.764,0.739 -19.145,1.109 m -33.594,40.075 c 1.486,-13.308 5.299,-24.117 14.915,-33.893 -10.836,7.504 -17.357,22.209 -14.915,33.893 m 38.443,35.585 c 6.671,-1.677 13.341,-3.354 20.012,-5.031 -0.105,-0.433 -0.21,-0.865 -0.314,-1.298 -6.618,1.631 -13.235,3.262 -19.853,4.893 z m 35.008,-11.278 c -7.446,3.848 -13.932,7.199 -21.554,11.138 8.83,-1.576 16.028,-3.463 21.554,-11.138 m 4.34,5.162 c -13.389,4.627 -24.163,13.188 -38.378,10.344 9.333,4.962 28.061,0.091 38.378,-10.344 m 22.205,-26.901 c 0,0 0,0 0,0 10e-4,0.002 0.002,0.003 0.003,0.005 0.299,-0.149 0.719,-0.226 0.875,-0.47 4.457,-6.998 8.888,-14.011 13.382,-21.116 -0.622,0.355 -1.233,0.722 -1.833,1.102 -8.99,5.695 -15.269,14.154 -12.427,20.479 M 31.695,7.177 C 26.062,6.452 20.476,5.364 13.707,4.252 c 7.757,6.459 12.047,13.874 14.371,22.474 6.674,24.702 -6.332,48.06 -30.619,56.002 -10.126,3.312 -19.671,3.26 -28.666,-2.355 C -41.365,74.03 -50.396,66.3 -56.925,56.04 c -1.286,-2.021 -2.399,-4.153 -3.302,-5.727 -7.277,7.932 -13.667,16.386 -21.524,23.131 -13.849,11.888 -29.832,14.887 -47.273,8.034 -17.25,-6.777 -35.24,-10.609 -53.686,-8.446 -18.654,2.188 -37.169,5.769 -55.63,9.332 -25.812,4.981 -51.462,6.235 -77.03,-1.162 -1.614,-0.467 -3.145,-1.222 -4.715,-1.843 0.162,-0.415 0.324,-0.831 0.486,-1.246 0.811,0.128 1.649,0.162 2.428,0.396 24.752,7.455 49.716,7.173 74.874,2.333 30.724,-5.912 61.161,-15.357 94.433,-7.253 -11.588,-10.451 -12.699,-23.529 -13.994,-36.084 -1.205,-11.681 3.448,-21.854 12.165,-30.034 25.108,-23.564 62.964,-16.429 77.481,14.637 1.243,2.66 2.718,5.21 4.24,8.103 2.322,-3.776 4.127,-7.045 6.243,-10.1 C -45.704,-3.02 -22.074,-11.208 2.313,-2.118 20.416,4.629 39.107,7.513 58.296,5.241 L 97.029,6.39 C 74.735,6.699 53.013,9.92 31.695,7.177" style="fill-opacity: 1; fill: white; fill-rule: nonzero; stroke: none;" id="path20" />
        </g>
      </g>
      <g id="infinity">
        <g id="i1" transform="translate(409.3442,147.1377)" />
        <g id="n1" transform="translate(485.291,77.0024)" />
        <g id="f1" transform="translate(551.5293,125.0532)" />
        <g id="i2" transform="translate(562.2432,147.1377)" />
        <g id="n2" transform="translate(638.1875,77.0024)" />
        <g id="i1t1" transform="translate(751.8486,79.3345)" />
        <g id="y1" transform="translate(814.5059,125.2817)" />
        <g id="f1-palito" transform="translate(535.3857,125.2817)" />
        <g id="it_union" transform="translate(674.7549,145.5)" />
        <g id="ty_union" transform="translate(728.5732,125.0957)">
          <g>
            <path d="M -319.229 22.042 C -319.229 27.039 -315.113 31.156 -310.114 31.156 C -305.1 31.156 -300.984 27.039 -300.984 22.042 C -300.984 17.027 -305.1 12.926 -310.114 12.926 C -315.113 12.926 -319.229 17.027 -319.229 22.042 M -291.605 -56.543 L -328.607 -56.543 C -327.462 -54.268 -318.193 -57.735 -318.193 -48.093 L -318.193 -22.946 C -318.193 -22.683 -318.193 -22.436 -318.208 -22.203 C -318.208 -21.971 -318.224 -21.738 -318.239 -21.521 C -318.27 -20.191 -318.441 -19.216 -318.641 -18.551 C -318.92 -17.669 -319.586 -16.601 -320.622 -15.348 L -325.265 -9.837 C -324.228 -9.39 -322.99 -8.817 -321.597 -8.121 C -320.575 -7.594 -319.446 -7.006 -318.239 -6.356 C -317.867 -6.155 -317.481 -5.938 -317.079 -5.722 C -313.688 -3.865 -308.691 -0.986 -302.051 2.883 C -302.051 2.898 -302.035 2.898 -302.035 2.898 L -302.021 2.898 L -302.021 -48.093 C -302.021 -57.735 -292.751 -54.268 -291.605 -56.543" style="fill-opacity: 1; fill-rule: nonzero; stroke: none; fill:white" id="path24" />
            <path d="M -243.282 -48.093 L -243.408 -12.514 C -243.408 -6.341 -246.101 -1.002 -251.626 -1.002 C -256.253 -1.002 -260.354 -3.308 -266.003 -7.146 L -266.003 -12.147 L -265.891 -48.093 C -265.891 -57.735 -257.984 -54.268 -257.009 -56.543 L -290.946 -56.543 C -289.97 -54.268 -282.062 -57.735 -282.062 -48.093 L -282.129 -30.529 L -282.158 -30.529 L -282.158 -22.946 C -282.158 -22.682 -282.158 -22.435 -282.174 -22.203 C -282.174 -22.094 -282.174 -21.97 -282.189 -21.863 C -282.189 -21.738 -282.189 -21.631 -282.205 -21.521 C -282.236 -20.191 -282.406 -19.216 -282.607 -18.551 C -282.886 -17.669 -283.552 -16.6 -284.589 -15.347 L -289.23 -9.837 C -288.194 -9.389 -286.956 -8.817 -285.564 -8.121 C -285.316 -7.996 -285.068 -7.857 -284.805 -7.734 C -284.001 -7.316 -283.118 -6.851 -282.205 -6.356 C -281.834 -6.155 -281.447 -5.938 -281.045 -5.721 C -277.656 -3.864 -272.657 -0.986 -266.018 2.883 L -266.018 2.899 L -266.003 2.899 L -265.935 -6.09 C -259.315 0.3 -250.728 2.899 -242.001 2.899 C -233.906 2.899 -227.221 -1.729 -227.221 -11.742 L -227.094 -48.093 C -227.094 -57.735 -219.186 -54.268 -218.212 -56.543 L -252.165 -56.543 C -251.189 -54.268 -243.282 -57.735 -243.282 -48.093" style="fill-opacity: 1; fill-rule: nonzero; stroke: none; fill:white" id="path28" />
            <path d="M -177.074 -1.009 L -191.274 -1.009 L -191.223 -48.035 C -191.223 -57.743 -183.258 -54.253 -182.277 -56.543 L -216.468 -56.543 C -215.487 -54.253 -207.523 -57.743 -207.523 -48.035 L -207.457 -0.021 L -215.484 -0.021 C -215.484 -0.021 -206.683 9.238 -201.672 21.788 C -201.401 22.571 -201.128 23.31 -200.852 24.011 C -200.797 24.166 -200.733 24.317 -200.681 24.476 L -200.681 24.446 C -196.556 34.561 -191.538 36.183 -185.533 36.183 C -180.079 36.183 -175.575 32.553 -173.845 28.331 L -187.466 19.012 C -187.543 21.918 -187.543 21.918 -187.543 23.727 C -187.543 30.068 -187.901 34.72 -191.19 34.268 C -194.197 33.863 -195.616 29.982 -195.616 23.125 C -195.616 17.046 -192.468 8.585 -191.315 0.186 L -177.073 0.187 C -177.073 0.187 -177.074 -1.009 -177.074 -1.009 Z" style="fill-opacity: 1; fill-rule: nonzero; stroke: none;fill: white" id="path32" />
            <path d="M -166.33 22.042 C -166.33 27.039 -162.214 31.156 -157.215 31.156 C -152.2 31.156 -148.085 27.039 -148.085 22.042 C -148.085 17.027 -152.2 12.926 -157.215 12.926 C -162.214 12.926 -166.33 17.027 -166.33 22.042 M -138.706 -56.543 L -175.708 -56.543 C -174.562 -54.268 -165.294 -57.735 -165.294 -48.093 L -165.294 -22.946 C -165.294 -22.683 -165.294 -22.436 -165.309 -22.203 C -165.309 -21.971 -165.324 -21.738 -165.34 -21.521 C -165.37 -20.191 -165.54 -19.216 -165.741 -18.551 C -166.02 -17.669 -166.685 -16.601 -167.723 -15.348 L -172.366 -9.837 C -171.328 -9.39 -170.091 -8.817 -168.698 -8.121 C -167.676 -7.594 -166.547 -7.006 -165.34 -6.356 C -164.969 -6.155 -164.582 -5.938 -164.18 -5.722 C -160.789 -3.865 -155.792 -0.986 -149.152 2.883 C -149.152 2.898 -149.137 2.898 -149.137 2.898 L -149.121 2.898 L -149.121 -48.093 C -149.121 -57.735 -139.851 -54.268 -138.706 -56.543" style="fill-opacity: 1; fill-rule: nonzero; stroke: none;fill:white" id="path36" />
            <path d="M -90.386 -48.093 L -90.511 -12.514 C -90.511 -6.341 -93.203 -1.002 -98.728 -1.002 C -103.356 -1.002 -107.457 -3.308 -113.105 -7.146 L -113.105 -12.147 L -112.993 -48.093 C -112.993 -57.735 -105.086 -54.268 -104.112 -56.543 L -138.048 -56.543 C -137.074 -54.268 -129.165 -57.735 -129.165 -48.093 L -129.231 -30.529 L -129.261 -30.529 L -129.261 -22.946 C -129.261 -22.682 -129.261 -22.435 -129.277 -22.203 C -129.277 -22.094 -129.277 -21.97 -129.292 -21.863 C -129.292 -21.738 -129.292 -21.631 -129.308 -21.521 C -129.339 -20.191 -129.509 -19.216 -129.71 -18.551 C -129.99 -17.669 -130.655 -16.6 -131.692 -15.347 L -136.333 -9.837 C -135.297 -9.389 -134.059 -8.817 -132.666 -8.121 C -132.418 -7.996 -132.17 -7.857 -131.908 -7.734 C -131.104 -7.316 -130.22 -6.851 -129.308 -6.356 C -128.937 -6.155 -128.549 -5.938 -128.147 -5.721 C -124.758 -3.864 -119.759 -0.986 -113.12 2.883 L -113.12 2.899 L -113.105 2.899 L -113.098 -6.092 C -106.204 0.203 -97.831 2.899 -89.103 2.899 C -81.009 2.899 -74.324 -1.729 -74.324 -11.742 L -74.198 -48.093 C -74.198 -57.735 -66.29 -54.268 -65.314 -56.543 L -99.267 -56.543 C -98.292 -54.268 -90.386 -57.735 -90.386 -48.093" style="fill-opacity: 1; fill-rule: nonzero; stroke: none; fill: white" id="path40" />
            <path d="M 85.933 0.186 C 85.312 -0.449 83.736 -0.356 81.197 -2.12 C 78.503 -4.039 74.899 -8.667 71.308 -17.007 L 55.076 -54.612 L 51.11 -63.779 L 47.87 -71.658 L 47.87 -71.639 C 38.747 -93.899 24.171 -90.207 24.171 -90.207 L 25.392 -74.963 C 26.615 -75.892 27.791 -76.634 28.89 -77.238 C 30.407 -78.074 31.816 -78.631 33.115 -78.987 C 36.303 -79.837 38.856 -79.39 40.79 -78.46 C 40.962 -78.383 41.116 -78.305 41.271 -78.229 C 41.44 -78.135 41.58 -78.059 41.736 -77.965 C 41.795 -77.934 41.858 -77.889 41.905 -77.857 C 42.538 -77.455 43.143 -76.943 43.714 -76.371 C 44.457 -75.628 45.124 -74.777 45.743 -73.879 C 45.774 -73.849 45.789 -73.803 45.789 -73.787 C 45.805 -73.772 45.821 -73.756 45.821 -73.725 L 45.93 -73.57 C 45.99 -73.478 46.052 -73.369 46.098 -73.277 C 46.27 -72.921 46.423 -72.534 46.579 -72.116 L 48.745 -66.947 L 48.823 -66.793 L 52.071 -59.023 L 50.108 -54.612 L 29.061 -7.629 C 25.286 0.728 20.565 -1.439 19.604 0.186 L 50.679 0.186 C 49.241 -0.557 45.618 -0.496 45.618 -4.302 C 45.618 -5.323 46.657 -7.629 47.415 -9.44 L 60.552 -39.617 L 67.625 -23.043 C 69.034 -19.839 70.054 -15.475 70.054 -11.622 C 70.054 -1.872 62.1 -1.207 60.552 0.186 L 85.933 0.186 Z" style="fill-opacity: 1; fill-rule: nonzero; stroke: none;fill: white" id="path48" />
            <g>
              <path d="M 22.525 -45.761 C 22.525 -47.711 17.341 -57.941 2.95 -57.941 C -0.935 -57.941 -4.155 -57.181 -6.707 -55.759 C -11.581 -53.066 -14.043 -48.006 -14.043 -41.366 L -14.075 -35.687 L -14.075 -35.238 L -14.136 -9.951 L -14.167 -9.951 L -14.167 -2.276 C -14.167 -1.996 -14.167 -1.734 -14.181 -1.502 C -14.181 -1.269 -14.197 -1.037 -14.212 -0.821 C -14.243 0.525 -14.414 1.516 -14.615 2.182 C -14.895 3.094 -15.591 4.162 -16.627 5.447 L -19.882 9.6 C -21.31 10.403 -6.241 13.491 -7.957 12.68 C -17.545 8.151 -16.511 10.884 -19.549 9.613 C -41.004 0.64 -55.781 8.92 -55.91 23.99 L -46.691 14.789 C -55.492 14.56 -55.918 22.842 -55.918 24.003 C -55.918 29.078 -51.741 33.256 -46.663 33.256 C -41.589 33.256 -37.412 29.078 -37.412 24.003 C -37.412 18.926 -41.589 14.763 -46.663 14.763 C -49.404 14.763 -52.066 15.206 -52.529 17.702 C -49.05 7.048 -37.276 3.376 -21.041 11.285 C -19.586 11.994 -25.37 8.825 -21.086 11.279 C -20.971 11.345 -13.378 14.283 2.051 24.126 L 2.176 23.925 C 2.192 23.925 2.192 23.94 2.208 23.94 L 2.239 23.94 L 2.239 23.677 L 2.28 0.178 L 19.604 0.187 L 22.778 -1.009 L 2.267 -1.009 L 2.392 -45.374 C 2.919 -51.952 6.214 -54.535 10.611 -54.535 C 14.757 -54.535 17.373 -52.973 19.71 -50.265 C 20.871 -48.966 21.008 -48.593 21.629 -47.557 C 21.891 -47.108 22.525 -45.127 22.525 -45.761 M -27.91 -55.681 L -65.42 -55.681 C -64.259 -53.375 -54.867 -56.888 -54.867 -47.123 L -54.867 -21.62 C -54.867 -21.341 -54.867 -21.093 -54.882 -20.862 C -54.882 -20.63 -54.898 -20.397 -54.913 -20.165 C -54.945 -18.818 -55.114 -17.829 -55.316 -17.163 C -55.61 -16.265 -56.275 -15.181 -57.329 -13.913 L -62.032 -8.326 C -60.98 -7.863 -59.726 -7.29 -58.318 -6.577 C -57.282 -6.051 -56.137 -5.448 -54.913 -4.782 C -54.542 -4.581 -54.14 -4.365 -53.738 -4.148 C -50.302 -2.26 -45.225 0.65 -38.495 4.58 C -38.495 4.595 -38.479 4.595 -38.479 4.595 L -38.463 4.595 L -38.463 -47.123 C -38.463 -56.888 -29.071 -53.375 -27.91 -55.681" style="fill-opacity: 1; fill-rule: nonzero; stroke: none;fill:white" id="path44" />
            </g>
          </g>
        </g>
        <g id="n2_line" transform="translate(612.5361,116.2896)" />
        <g id="n1_line" transform="translate(459.5156,116.2896)" />
      </g>
    </g>
    <g id="inferior">
      <g id="inferior-A1" transform="translate(501.1992,35.7461)">
        <path d="M 0,0 -3.663,9.019 H -3.719 L -7.437,0 Z m -4.772,12.459 h 2.414 L 6.049,-7.187 H 2.941 l -1.97,4.856 H -8.38 l -1.942,-4.856 h -3.109 z" id="path72" style="fill: lightgray;" />
      </g>
      <g id="inferior-S1" transform="translate(517.043,32.6665)">
        <path d="m 0,0 c 0.481,-0.722 1.097,-1.253 1.846,-1.596 0.749,-0.342 1.521,-0.513 2.316,-0.513 0.444,0 0.898,0.069 1.36,0.208 0.462,0.139 0.883,0.347 1.263,0.624 0.379,0.278 0.689,0.62 0.929,1.027 0.24,0.407 0.361,0.878 0.361,1.415 0,0.758 -0.241,1.336 -0.721,1.734 C 6.872,3.297 6.275,3.63 5.563,3.898 4.852,4.167 4.074,4.426 3.233,4.675 2.391,4.925 1.614,5.272 0.902,5.716 c -0.713,0.444 -1.309,1.04 -1.79,1.789 -0.481,0.75 -0.721,1.763 -0.721,3.039 0,0.573 0.125,1.184 0.375,1.831 0.25,0.647 0.642,1.24 1.179,1.776 0.536,0.537 1.225,0.985 2.067,1.346 0.842,0.361 1.854,0.541 3.039,0.541 1.072,0 2.098,-0.148 3.08,-0.444 0.979,-0.296 1.84,-0.897 2.58,-1.803 L 8.547,11.82 C 8.214,12.338 7.742,12.754 7.132,13.069 6.521,13.383 5.827,13.541 5.051,13.541 4.311,13.541 3.695,13.444 3.205,13.25 2.715,13.055 2.321,12.806 2.026,12.5 1.729,12.195 1.521,11.866 1.401,11.515 1.281,11.164 1.222,10.84 1.222,10.544 1.222,9.711 1.462,9.073 1.942,8.629 2.424,8.186 3.021,7.825 3.732,7.547 4.444,7.27 5.222,7.02 6.063,6.798 6.905,6.576 7.682,6.266 8.395,5.869 9.106,5.471 9.702,4.934 10.184,4.259 10.665,3.583 10.905,2.654 10.905,1.47 c 0,-0.943 -0.18,-1.794 -0.541,-2.553 C 10.004,-1.841 9.518,-2.479 8.907,-2.997 8.297,-3.515 7.575,-3.913 6.743,-4.19 5.911,-4.468 5.022,-4.606 4.079,-4.606 c -1.258,0 -2.451,0.222 -3.579,0.666 -1.129,0.443 -2.025,1.127 -2.691,2.053 z" id="path76" style="fill: lightgray;" />
      </g>
      <g id="g78" transform="translate(547.5654,30.5576)">
        <path d="M 0,0 C 1.128,0 2.146,0.208 3.053,0.624 3.959,1.041 4.735,1.6 5.384,2.303 6.03,3.006 6.53,3.833 6.882,4.786 7.232,5.739 7.409,6.751 7.409,7.825 7.409,8.897 7.232,9.91 6.882,10.863 6.53,11.816 6.03,12.644 5.384,13.347 4.735,14.049 3.959,14.609 3.053,15.025 2.146,15.441 1.128,15.65 0,15.65 -1.128,15.65 -2.146,15.441 -3.052,15.025 -3.959,14.609 -4.735,14.049 -5.383,13.347 -6.03,12.644 -6.53,11.816 -6.881,10.863 -7.233,9.91 -7.408,8.897 -7.408,7.825 -7.408,6.751 -7.233,5.739 -6.881,4.786 -6.53,3.833 -6.03,3.006 -5.383,2.303 -4.735,1.6 -3.959,1.041 -3.052,0.624 -2.146,0.208 -1.128,0 0,0 m 0,-2.498 c -1.498,0 -2.877,0.264 -4.134,0.791 -1.259,0.527 -2.336,1.253 -3.233,2.179 -0.898,0.924 -1.6,2.016 -2.109,3.274 -0.508,1.257 -0.763,2.617 -0.763,4.079 0,1.461 0.255,2.821 0.763,4.079 0.509,1.258 1.211,2.349 2.109,3.274 0.897,0.925 1.974,1.651 3.233,2.178 1.257,0.527 2.636,0.791 4.134,0.791 1.499,0 2.876,-0.264 4.135,-0.791 1.258,-0.527 2.335,-1.253 3.232,-2.178 0.898,-0.925 1.6,-2.016 2.11,-3.274 C 9.984,10.646 10.239,9.286 10.239,7.825 10.239,6.363 9.984,5.003 9.477,3.746 8.967,2.488 8.265,1.396 7.367,0.472 6.47,-0.454 5.393,-1.18 4.135,-1.707 2.876,-2.234 1.499,-2.498 0,-2.498" id="path80" style="fill: lightgray;" />
      </g>
      <g id="g82" transform="translate(581.9727,43.9595)">
        <path d="m 0,0 c -0.556,0.722 -1.259,1.277 -2.109,1.665 -0.851,0.389 -1.73,0.583 -2.636,0.583 -1.11,0 -2.113,-0.208 -3.011,-0.624 -0.897,-0.416 -1.665,-0.985 -2.303,-1.707 -0.638,-0.722 -1.133,-1.568 -1.484,-2.539 -0.353,-0.971 -0.527,-2.012 -0.527,-3.122 0,-1.036 0.166,-2.016 0.499,-2.941 0.333,-0.925 0.813,-1.739 1.443,-2.441 0.628,-0.704 1.397,-1.259 2.303,-1.666 0.906,-0.407 1.932,-0.61 3.08,-0.61 1.128,0 2.118,0.231 2.969,0.694 0.85,0.462 1.572,1.109 2.165,1.942 l 2.247,-1.692 c -0.149,-0.205 -0.407,-0.496 -0.778,-0.875 -0.37,-0.379 -0.859,-0.758 -1.469,-1.137 -0.612,-0.38 -1.347,-0.713 -2.206,-0.999 -0.861,-0.287 -1.856,-0.43 -2.984,-0.43 -1.553,0 -2.955,0.296 -4.204,0.888 -1.248,0.592 -2.312,1.368 -3.19,2.33 -0.879,0.962 -1.55,2.049 -2.012,3.261 -0.463,1.211 -0.694,2.437 -0.694,3.676 0,1.517 0.25,2.918 0.75,4.204 0.499,1.286 1.197,2.395 2.094,3.33 0.897,0.934 1.975,1.66 3.233,2.178 1.258,0.518 2.645,0.777 4.162,0.777 1.295,0 2.566,-0.249 3.815,-0.749 C 0.402,3.497 1.424,2.729 2.22,1.693 Z" id="path84" style="fill: lightgray;" />
      </g>
      <path d="m 594.487,48.205 h 2.663 V 28.559 h -2.663 z" id="path86" style="fill: lightgray;" />
      <g id="g88" transform="translate(619.7939,35.7461)">
        <path d="M 0,0 -3.663,9.019 H -3.719 L -7.437,0 Z m -4.772,12.459 h 2.414 L 6.049,-7.187 H 2.941 l -1.97,4.856 H -8.38 l -1.942,-4.856 h -3.109 z" id="path90" style="fill: lightgray;" />
      </g>
      <g id="g92" transform="translate(648.7344,43.9595)">
        <path d="m 0,0 c -0.556,0.722 -1.259,1.277 -2.109,1.665 -0.851,0.389 -1.73,0.583 -2.636,0.583 -1.11,0 -2.113,-0.208 -3.011,-0.624 -0.897,-0.416 -1.665,-0.985 -2.303,-1.707 -0.638,-0.722 -1.133,-1.568 -1.484,-2.539 -0.353,-0.971 -0.527,-2.012 -0.527,-3.122 0,-1.036 0.166,-2.016 0.499,-2.941 0.333,-0.925 0.813,-1.739 1.443,-2.441 0.628,-0.704 1.397,-1.259 2.303,-1.666 0.906,-0.407 1.932,-0.61 3.08,-0.61 1.128,0 2.118,0.231 2.969,0.694 0.85,0.462 1.572,1.109 2.165,1.942 l 2.247,-1.692 c -0.149,-0.205 -0.407,-0.496 -0.778,-0.875 -0.37,-0.379 -0.859,-0.758 -1.469,-1.137 -0.612,-0.38 -1.347,-0.713 -2.206,-0.999 -0.861,-0.287 -1.856,-0.43 -2.984,-0.43 -1.553,0 -2.955,0.296 -4.204,0.888 -1.248,0.592 -2.312,1.368 -3.19,2.33 -0.879,0.962 -1.55,2.049 -2.012,3.261 -0.463,1.211 -0.694,2.437 -0.694,3.676 0,1.517 0.25,2.918 0.75,4.204 0.499,1.286 1.197,2.395 2.094,3.33 0.897,0.934 1.975,1.66 3.233,2.178 1.258,0.518 2.645,0.777 4.162,0.777 1.295,0 2.566,-0.249 3.815,-0.749 C 0.402,3.497 1.424,2.729 2.22,1.693 Z" id="path94" style="fill: lightgray;" />
      </g>
      <path d="m 661.249,48.205 h 2.663 V 28.559 h -2.663 z" id="path96" style="fill: lightgray;" />
      <g id="g98" transform="translate(685.6943,53.311)">
        <path d="m 0,0 h 3.552 l -4.135,-3.996 h -2.303 z m -1.055,-22.753 c 1.128,0 2.146,0.208 3.053,0.624 0.906,0.416 1.683,0.975 2.331,1.678 0.647,0.703 1.147,1.531 1.498,2.484 0.351,0.952 0.527,1.965 0.527,3.038 0,1.073 -0.176,2.086 -0.527,3.039 -0.351,0.952 -0.851,1.78 -1.498,2.483 -0.648,0.703 -1.425,1.263 -2.331,1.679 -0.907,0.416 -1.925,0.624 -3.053,0.624 -1.128,0 -2.145,-0.208 -3.051,-0.624 -0.908,-0.416 -1.684,-0.976 -2.331,-1.679 -0.648,-0.703 -1.148,-1.531 -1.499,-2.483 -0.352,-0.953 -0.527,-1.966 -0.527,-3.039 0,-1.073 0.175,-2.086 0.527,-3.038 0.351,-0.953 0.851,-1.781 1.499,-2.484 0.647,-0.703 1.423,-1.262 2.331,-1.678 0.906,-0.416 1.923,-0.624 3.051,-0.624 m 0,-2.498 c -1.498,0 -2.877,0.264 -4.133,0.791 -1.259,0.527 -2.336,1.253 -3.234,2.178 -0.897,0.925 -1.599,2.016 -2.108,3.274 -0.509,1.258 -0.764,2.618 -0.764,4.079 0,1.461 0.255,2.821 0.764,4.079 0.509,1.258 1.211,2.35 2.108,3.274 0.898,0.925 1.975,1.652 3.234,2.179 1.256,0.527 2.635,0.791 4.133,0.791 1.499,0 2.876,-0.264 4.135,-0.791 1.258,-0.527 2.335,-1.254 3.232,-2.179 0.898,-0.924 1.6,-2.016 2.11,-3.274 0.508,-1.258 0.763,-2.618 0.763,-4.079 0,-1.461 -0.255,-2.821 -0.763,-4.079 -0.51,-1.258 -1.212,-2.349 -2.11,-3.274 -0.897,-0.925 -1.974,-1.651 -3.232,-2.178 -1.259,-0.527 -2.636,-0.791 -4.135,-0.791" id="path100" style="fill: lightgray;" />
      </g>
      <g id="g102" transform="translate(705.3682,48.2051)">
        <path d="m 0,0 h 3.496 l 10.821,-16.149 h 0.056 V 0 h 2.664 V -19.646 H 13.651 L 2.719,-3.496 H 2.663 v -16.15 H 0 Z" id="path104" style="fill: lightgray;" />
      </g>
    </g>
  </g>
</svg>